<svg viewBox="0 0 15 14" fill="none" xmlns="http://www.w3.org/2000/svg">
<path d="M1.82223 0.0820312C0.724533 0.0820312 0.00683594 0.777206 0.00683594 1.69092C0.00683594 2.58445 0.703152 3.29945 1.78011 3.29945H1.80094C2.92011 3.29945 3.61661 2.58445 3.61661 1.69092C3.59568 0.777206 2.92011 0.0820312 1.82223 0.0820312Z" fill="url(#paint0_linear)"/>
<path d="M0.196289 4.57068H3.40532V13.8819H0.196289V4.57068Z" fill="url(#paint1_linear)"/>
<path d="M11.2827 4.35217C9.5516 4.35217 8.39076 5.92105 8.39076 5.92105V4.57071H5.18164V13.882H8.39058V8.68219C8.39058 8.40382 8.4115 8.12589 8.49629 7.92683C8.72828 7.37097 9.2562 6.79511 10.1427 6.79511C11.3039 6.79511 11.7684 7.64899 11.7684 8.90073V13.882H14.9771V8.54305C14.9771 5.68304 13.3939 4.35217 11.2827 4.35217Z" fill="url(#paint2_linear)"/>
<defs>
<linearGradient id="paint0_linear" x1="1.81172" y1="0.0820312" x2="1.81172" y2="3.29945" gradientUnits="userSpaceOnUse">
<stop stop-color="#85B6FF"/>
<stop offset="1" stop-color="#0080DB"/>
</linearGradient>
<linearGradient id="paint1_linear" x1="1.80081" y1="4.57068" x2="1.80081" y2="13.8819" gradientUnits="userSpaceOnUse">
<stop stop-color="#85B6FF"/>
<stop offset="1" stop-color="#0080DB"/>
</linearGradient>
<linearGradient id="paint2_linear" x1="10.0794" y1="4.35217" x2="10.0794" y2="13.882" gradientUnits="userSpaceOnUse">
<stop stop-color="#85B6FF"/>
<stop offset="1" stop-color="#0080DB"/>
</linearGradient>
</defs>
</svg>
