<svg width="31" height="31" viewBox="0 0 31 31" fill="none" xmlns="http://www.w3.org/2000/svg">
    <path d="M15.5003 0C10.1716 0 5.83643 4.33518 5.83643 9.66377V21.3362C5.83643 26.6648 10.1716 30.9999 15.5003 30.9999C20.8289 30.9999 25.164 26.6647 25.164 21.3362V9.66377C25.164 4.33518 20.8289 0 15.5003 0V0ZM24.0056 9.66377V9.81615C21.5108 11.1277 18.7208 11.8459 15.8861 11.9058V8.67484C16.7036 8.49736 17.3179 7.76861 17.3179 6.89877V4.47628C17.3179 3.60643 16.7036 2.87768 15.8861 2.70021V1.16757C20.3976 1.37007 24.0056 5.10331 24.0056 9.66377ZM15.5003 3.43089C16.0766 3.43089 16.5457 3.89983 16.5457 4.47628V6.89884C16.5457 7.47521 16.0767 7.94423 15.5003 7.94423C14.9238 7.94423 14.4549 7.47529 14.4549 6.89884V4.47628C14.4549 3.89991 14.9239 3.43089 15.5003 3.43089ZM15.1139 1.16765V2.70036C14.2967 2.87807 13.6827 3.60666 13.6827 4.47628V6.89884C13.6827 7.76846 14.2967 8.49705 15.1139 8.67476V11.9058C12.2796 11.846 9.48974 11.1277 6.99496 9.81607V9.66385C6.99488 5.10347 10.6027 1.37038 15.1139 1.16765ZM15.5003 29.8415C10.8104 29.8415 6.99488 26.0261 6.99488 21.3362V10.684C9.62188 11.9937 12.544 12.6827 15.5 12.6827C18.4563 12.6827 21.3786 11.9937 24.0056 10.6841V21.3362C24.0056 26.026 20.1902 29.8415 15.5003 29.8415Z" fill="white"/>
</svg>
