<svg viewBox="0 0 47 50" fill="none" xmlns="http://www.w3.org/2000/svg">
    <path d="M5.48333 43.3333C2.46045 43.3333 0 45.9508 0 49.1666C0 49.6275 0.35015 50 0.783333 50H10.1833C10.6165 50 10.9667 49.6275 10.9667 49.1666C10.9667 45.9508 8.50622 43.3333 5.48333 43.3333ZM1.64578 48.3333C1.95755 46.7041 3.16858 45.4241 4.7 45.0916V46.6666H6.26667V45.0916C7.79808 45.425 9.00912 46.7041 9.32088 48.3333H1.64578Z" fill="white"/>
    <path d="M46.2167 35.8333H44.8427C44.7996 35.7175 44.755 35.6025 44.7064 35.4867L45.6785 34.4525C45.9848 34.1267 45.9848 33.6 45.6785 33.2742L42.3556 29.7392C42.1935 29.5667 41.9796 29.4917 41.7673 29.5025C43.0089 28.8017 43.8667 27.4292 43.8667 25.8333V4.16667C43.8667 1.86917 42.1096 0 39.95 0H3.91667C1.75702 0 0 1.86917 0 4.16667V25.8333C0 28.1308 1.75702 30 3.91667 30H14.1392L11.1797 35.8333H10.9667H9.79167C8.27983 35.8333 7.05 37.1417 7.05 38.75C7.05 40.3583 8.27983 41.6667 9.79167 41.6667H26.6333C26.6333 42.1275 26.9835 42.5 27.4167 42.5H28.7906C28.8337 42.6158 28.8784 42.7308 28.9269 42.8467L27.9548 43.8808C27.6485 44.2067 27.6485 44.7333 27.9548 45.0592L31.2777 48.5942C31.584 48.92 32.0791 48.92 32.3853 48.5942L33.3575 47.56C33.4664 47.6117 33.5745 47.6592 33.6833 47.705V49.1667C33.6833 49.6275 34.0335 50 34.4667 50H39.1667C39.5998 50 39.95 49.6275 39.95 49.1667V47.705C40.0589 47.6592 40.167 47.6117 40.2759 47.56L41.248 48.5942C41.5543 48.92 42.0493 48.92 42.3556 48.5942L45.6785 45.0592C45.9848 44.7333 45.9848 44.2067 45.6785 43.8808L44.7064 42.8467C44.755 42.7308 44.7996 42.6158 44.8427 42.5H46.2167C46.6499 42.5 47 42.1275 47 41.6667V36.6667C47 36.2058 46.6499 35.8333 46.2167 35.8333ZM1.56667 4.16667C1.56667 2.78833 2.62103 1.66667 3.91667 1.66667H39.95C41.2456 1.66667 42.3 2.78833 42.3 4.16667V21.6667H1.56667V4.16667ZM3.91667 28.3333C2.62103 28.3333 1.56667 27.2117 1.56667 25.8333V23.3333H42.3V25.8333C42.3 27.2117 41.2456 28.3333 39.95 28.3333H39.1667H34.4667H28.4146H15.452H3.91667ZM41.2378 29.75L40.2759 30.7733C40.167 30.7217 40.0589 30.6742 39.95 30.6283V30C40.4036 30 40.832 29.9017 41.2378 29.75ZM33.6833 30V30.6283C33.5745 30.6742 33.4664 30.7217 33.3575 30.7733L32.6305 30H33.6833ZM31.0318 30L30.3565 30.7183L29.8967 30H31.0318ZM26.6333 40H9.79167C9.14385 40 8.61667 39.4392 8.61667 38.75C8.61667 38.0608 9.14385 37.5 9.79167 37.5H10.9667H11.6466H26.6333V40ZM12.9599 35.8325L15.9189 30H28.001L29.2293 31.9175L27.9548 33.2733C27.6485 33.5992 27.6485 34.1258 27.9548 34.4517L28.9269 35.4858C28.8784 35.6017 28.8337 35.7167 28.7906 35.8325H27.4167H12.9599ZM45.4333 40.8333H44.2905C43.9481 40.8333 43.6466 41.0692 43.5432 41.4158C43.4241 41.8183 43.2635 42.2283 43.0653 42.6317C42.9071 42.955 42.9643 43.3492 43.2063 43.6067L44.0179 44.47L41.8026 46.8267L40.9911 45.9633C40.7482 45.7058 40.3785 45.6458 40.0746 45.8133C39.6954 46.0242 39.31 46.195 38.9317 46.3217C38.605 46.4325 38.3833 46.7533 38.3833 47.1175V48.3333H35.25V47.1175C35.25 46.7533 35.0283 46.4325 34.7024 46.3225C34.3241 46.1958 33.9387 46.025 33.5596 45.8142C33.2556 45.6467 32.8851 45.7067 32.6431 45.9642L31.8315 46.8275L29.6163 44.4708L30.4278 43.6075C30.6699 43.35 30.727 42.9558 30.5688 42.6325C30.3706 42.2292 30.21 41.8192 30.091 41.4167C29.9868 41.0692 29.6852 40.8333 29.3429 40.8333H28.2V37.5H29.3429C29.6852 37.5 29.9868 37.2642 30.0902 36.9175C30.2092 36.515 30.3698 36.105 30.568 35.7017C30.7262 35.3783 30.6691 34.9842 30.427 34.7267L29.6155 33.8633L31.8307 31.5067L32.6423 32.37C32.8843 32.6283 33.2549 32.6883 33.5588 32.52C33.9379 32.3092 34.3233 32.1383 34.7017 32.0117C35.0283 31.9008 35.25 31.58 35.25 31.2158V30H38.3833V31.2158C38.3833 31.58 38.605 31.9008 38.9309 32.0108C39.3092 32.1375 39.6946 32.3083 40.0738 32.5192C40.3777 32.6875 40.7474 32.6275 40.9903 32.3692L41.8018 31.5058L44.0171 33.8625L43.2055 34.7258C42.9635 34.9833 42.9063 35.3775 43.0645 35.7008C43.2627 36.1042 43.4233 36.5142 43.5424 36.9167C43.6465 37.2642 43.9481 37.5 44.2905 37.5H45.4333V40.8333Z" fill="white"/>
    <path d="M36.8162 34.1666C34.2242 34.1666 32.1162 36.4091 32.1162 39.1666C32.1162 41.9241 34.2242 44.1666 36.8162 44.1666C39.4083 44.1666 41.5162 41.9241 41.5162 39.1666C41.5162 36.4091 39.4083 34.1666 36.8162 34.1666ZM36.8162 42.5C35.0882 42.5 33.6829 41.005 33.6829 39.1666C33.6829 37.3283 35.0882 35.8333 36.8162 35.8333C38.5442 35.8333 39.9495 37.3283 39.9495 39.1666C39.9495 41.005 38.5442 42.5 36.8162 42.5Z" fill="white"/>
    <path d="M15.4369 6.42253L14.3293 5.2442L8.84592 11.0775C8.53964 11.4034 8.53964 11.93 8.84592 12.2559L14.3293 18.0892L15.4369 16.9109L10.5074 11.6667L15.4369 6.42253Z" fill="#85B6FF"/>
    <path d="M32.6701 11.0775L27.1867 5.2442L26.0791 6.42253L31.0086 11.6667L26.0791 16.9109L27.1867 18.0892L32.6701 12.2559C32.9764 11.93 32.9764 11.4034 32.6701 11.0775Z" fill="#85B6FF"/>
    <path d="M23.5802 2.96529L16.5322 17.9609L17.9335 18.7063L24.9814 3.71063L23.5802 2.96529Z" fill="#85B6FF"/>
    <path d="M32.1165 16.6667H30.5498V18.3334H32.1165V16.6667Z" fill="white"/>
    <path d="M35.2503 16.6667H33.6836V18.3334H35.2503V16.6667Z" fill="white"/>
    <path d="M38.3831 16.6667H36.8164V18.3334H38.3831V16.6667Z" fill="white"/>
</svg>
