<svg viewBox="0 0 21 13" fill="none" xmlns="http://www.w3.org/2000/svg">
<path d="M10.8176 9.02951C10.8176 7.44331 10.0485 6.27082 8.4595 5.83136C9.61887 5.28975 10.2235 4.46918 10.2235 3.19284C10.2235 0.676209 8.3055 0.0625 6.09262 0.0625H0V12.698H6.26325C8.61175 12.698 10.8176 11.5968 10.8176 9.02951ZM2.84025 2.21949H5.5055C6.53012 2.21949 7.45237 2.50102 7.45237 3.66321C7.45237 4.73612 6.73487 5.16787 5.71987 5.16787H2.84025V2.21949ZM2.83937 10.5522V7.07251H5.93512C7.1855 7.07251 7.9765 7.58236 7.9765 8.87673C7.9765 10.1531 7.03237 10.5522 5.8765 10.5522H2.83937Z" fill="url(#paint0_linear)"/>
<path d="M16.4463 12.9374C18.6811 12.9374 20.1283 11.9529 20.8248 9.86032H18.5568C18.3127 10.6414 17.3064 11.0543 16.5259 11.0543C15.0201 11.0543 14.2291 10.1916 14.2291 8.72561H20.9779C20.9893 8.57711 20.9998 8.4166 20.9998 8.2561C20.9998 5.54977 19.3811 3.29321 16.4463 3.29321C13.5947 3.29321 11.6592 5.38926 11.6592 8.13507C11.6583 10.983 13.4923 12.9374 16.4463 12.9374ZM16.3658 5.19013C17.6564 5.19013 18.3057 5.93173 18.4142 7.14456H14.2326C14.3174 5.94203 15.1338 5.19013 16.3658 5.19013Z" fill="url(#paint1_linear)"/>
<path d="M13.709 0.725952H18.9485V1.97054H13.709V0.725952Z" fill="url(#paint2_linear)"/>
<defs>
<linearGradient id="paint0_linear" x1="5.40881" y1="0.0625" x2="5.40881" y2="12.698" gradientUnits="userSpaceOnUse">
<stop stop-color="#85B6FF"/>
<stop offset="1" stop-color="#0080DB"/>
</linearGradient>
<linearGradient id="paint1_linear" x1="16.3295" y1="3.29321" x2="16.3295" y2="12.9374" gradientUnits="userSpaceOnUse">
<stop stop-color="#85B6FF"/>
<stop offset="1" stop-color="#0080DB"/>
</linearGradient>
<linearGradient id="paint2_linear" x1="16.3287" y1="0.725952" x2="16.3287" y2="1.97054" gradientUnits="userSpaceOnUse">
<stop stop-color="#85B6FF"/>
<stop offset="1" stop-color="#0080DB"/>
</linearGradient>
</defs>
</svg>
