<svg viewBox="0 0 23 25" fill="none" xmlns="http://www.w3.org/2000/svg">
<path d="M21.9941 14.2818C22.716 8.1701 21.6473 4.31163 19.7196 2.56645L19.7206 2.56544C16.6093 -0.414861 6.10163 -0.855974 2.3793 2.69929C0.707676 4.43839 0.118878 6.99076 0.0543523 10.1505C-0.0101735 13.3113 -0.086798 19.2324 5.3989 20.8386H5.40394L5.3989 23.2916C5.3989 23.2916 5.3616 24.2854 5.99274 24.4852C6.71462 24.7204 7.04129 24.259 9.28658 21.5617C13.0412 21.8892 15.9247 21.1388 16.2523 21.0293C17.0105 20.7737 21.3005 20.2028 21.9941 14.2818ZM9.6566 19.8357C9.6566 19.8357 7.28023 22.816 6.54121 23.5898C6.29924 23.8412 6.03408 23.8179 6.03811 23.319C6.03811 22.9915 6.05626 19.2466 6.05626 19.2466C1.40536 17.906 1.6796 12.8641 1.73001 10.2266C1.78042 7.58803 2.26033 5.42709 3.67586 3.97192C6.94147 0.892251 16.1535 1.58079 18.5007 3.79954C21.37 6.35799 20.3487 13.5861 20.3548 13.8326C19.765 18.775 16.2886 19.0884 15.6494 19.3024C15.3762 19.3936 12.8405 20.0497 9.6566 19.8357Z" fill="url(#paint0_linear)"/>
<path d="M10.9718 4.55103C10.5836 4.55103 10.5836 5.15946 10.9718 5.16453C13.9833 5.18785 16.4635 7.29911 16.4908 11.1718C16.4908 11.5804 17.0856 11.5754 17.0806 11.1667H17.0796C17.0473 6.99388 14.3392 4.57435 10.9718 4.55103Z" fill="url(#paint1_linear)"/>
<path d="M14.9323 10.5296C14.9233 10.9332 15.5171 10.9525 15.5222 10.5438C15.5716 8.24296 14.1611 6.3477 11.5105 6.14793C11.1223 6.11953 11.082 6.73304 11.4691 6.76143C13.7679 6.93686 14.9787 8.51472 14.9323 10.5296Z" fill="url(#paint2_linear)"/>
<path d="M14.2977 13.1471C13.7997 12.8571 13.2926 13.0376 13.0828 13.3226L12.6443 13.8935C12.4215 14.1835 12.0051 14.145 12.0051 14.145C8.9663 13.3368 8.15368 10.1385 8.15368 10.1385C8.15368 10.1385 8.11638 9.70546 8.39464 9.47324L8.94311 9.01692C9.21735 8.79788 9.39076 8.27058 9.11148 7.7524C8.3654 6.39661 7.86432 5.92913 7.60924 5.57016C7.34106 5.23248 6.93777 5.15642 6.51835 5.38459H6.50928C5.63717 5.8977 4.68239 6.858 4.98788 7.8467C5.50913 8.88915 6.46693 12.2122 9.51981 14.723C10.9545 15.9104 13.225 17.1273 14.1889 17.4082L14.1979 17.4224C15.1477 17.7408 16.0712 16.743 16.5642 15.8395V15.8324C16.783 15.3953 16.7104 14.9816 16.3908 14.7108C15.8242 14.1551 14.9692 13.5416 14.2977 13.1471Z" fill="url(#paint3_linear)"/>
<path d="M11.9264 8.41151C12.8949 8.4683 13.3646 8.97735 13.415 10.0228C13.4331 10.4315 14.0227 10.4031 14.0046 9.99445C13.9401 8.62953 13.2326 7.869 11.9586 7.79801C11.5706 7.77469 11.5343 8.38819 11.9264 8.41151Z" fill="url(#paint4_linear)"/>
<defs>
<linearGradient id="paint0_linear" x1="11.1304" y1="0.180176" x2="11.1304" y2="24.5389" gradientUnits="userSpaceOnUse">
<stop stop-color="#85B6FF"/>
<stop offset="1" stop-color="#0080DB"/>
</linearGradient>
<linearGradient id="paint1_linear" x1="13.8806" y1="4.55103" x2="13.8806" y2="11.4757" gradientUnits="userSpaceOnUse">
<stop stop-color="#85B6FF"/>
<stop offset="1" stop-color="#0080DB"/>
</linearGradient>
<linearGradient id="paint2_linear" x1="13.3608" y1="6.14697" x2="13.3608" y2="10.8415" gradientUnits="userSpaceOnUse">
<stop stop-color="#85B6FF"/>
<stop offset="1" stop-color="#0080DB"/>
</linearGradient>
<linearGradient id="paint3_linear" x1="10.8098" y1="5.25391" x2="10.8098" y2="17.4829" gradientUnits="userSpaceOnUse">
<stop stop-color="#85B6FF"/>
<stop offset="1" stop-color="#0080DB"/>
</linearGradient>
<linearGradient id="paint4_linear" x1="12.8272" y1="7.79736" x2="12.8272" y2="10.3155" gradientUnits="userSpaceOnUse">
<stop stop-color="#85B6FF"/>
<stop offset="1" stop-color="#0080DB"/>
</linearGradient>
</defs>
</svg>
