<svg viewBox="0 0 55 50" fill="none" xmlns="http://www.w3.org/2000/svg">
    <g>
        <path d="M37.1052 8.20783L31.8669 0.566918C31.665 0.272442 31.3406 0.0979004 30.9951 0.0979004C30.6497 0.0979004 30.3253 0.272442 30.1234 0.566918L24.8851 8.20783C24.7534 8.39986 24.6826 8.63048 24.6826 8.86707V9.04726V45.6609C24.6826 47.9889 26.4859 49.8829 28.7024 49.8829H33.2877C35.5044 49.8829 37.3077 47.9889 37.3077 45.6609V9.04726V8.86707C37.3077 8.63048 37.2369 8.39975 37.1052 8.20783ZM30.9951 3.15706L34.2598 7.919H27.7306L30.9951 3.15706ZM26.8311 10.1755H31.9314V39.3992H30.0585V17.8484C30.0586 17.2251 29.5777 16.72 28.9844 16.72C28.3912 16.72 27.9102 17.2251 27.9102 17.8482V39.3991H26.8311V10.1755ZM35.1592 45.6607C35.1592 46.7445 34.3197 47.6263 33.2877 47.6263H28.7024C27.6707 47.6263 26.8311 46.7445 26.8311 45.6607V41.6556H35.1592V45.6607ZM35.1592 39.3992H34.08V10.1755H35.1592V39.3992Z" fill="white"/>
        <path d="M30.0371 13.0968C30.0231 13.0257 30.0027 12.9546 29.9759 12.8858C29.949 12.8181 29.9157 12.7527 29.877 12.6917C29.8384 12.6297 29.7933 12.5721 29.7438 12.5202C29.6944 12.4683 29.6396 12.421 29.5806 12.3792C29.5226 12.3386 29.4603 12.3047 29.3947 12.2765C29.3303 12.2483 29.2627 12.2258 29.1938 12.2111C29.0553 12.1829 28.9124 12.1829 28.7738 12.2111C28.7061 12.2258 28.6385 12.2483 28.5731 12.2765C28.5085 12.3047 28.4462 12.3386 28.3882 12.3792C28.3291 12.421 28.2743 12.4683 28.2249 12.5202C28.1755 12.5721 28.1304 12.6297 28.0906 12.6917C28.052 12.7527 28.0186 12.8181 27.9918 12.8858C27.9649 12.9546 27.9445 13.0257 27.9306 13.0968C27.9166 13.1701 27.9102 13.2446 27.9102 13.3179C27.9102 13.6147 28.0251 13.9057 28.225 14.1156C28.4247 14.3255 28.7019 14.4462 28.9844 14.4462C29.0542 14.4462 29.1252 14.4383 29.1938 14.4236C29.2627 14.4089 29.3304 14.3875 29.3947 14.3593C29.4603 14.3311 29.5226 14.2961 29.5806 14.2555C29.6396 14.2149 29.6944 14.1675 29.7438 14.1156C29.7933 14.0637 29.8384 14.0062 29.877 13.9441C29.9157 13.8832 29.949 13.8177 29.9759 13.7489C30.0027 13.6812 30.0231 13.6101 30.0371 13.5379C30.0511 13.4657 30.0585 13.3913 30.0585 13.3179C30.0585 13.2446 30.0511 13.1701 30.0371 13.0968Z" fill="#85B6FF"/>
        <path d="M10.4484 21.2285L10.448 21.0565C10.4482 20.1674 11.1369 19.4439 11.9835 19.4439C11.9987 19.4439 12.0138 19.4436 12.029 19.4429L15.301 19.2975C17.2117 19.2834 18.7622 17.6464 18.7622 15.6362C18.7622 13.6173 17.1983 11.9749 15.2762 11.9749H7.96542C7.22797 11.9749 6.62792 11.3446 6.62792 10.5699C6.62792 10.1951 6.76864 9.84323 7.02409 9.57911C7.26912 9.32559 7.58945 9.18681 7.92783 9.18681C7.94029 9.18681 7.95296 9.18715 7.96542 9.18715L14.3621 9.18692C16.7479 9.18692 18.6888 7.14816 18.6888 4.64229C18.6888 2.13643 16.7478 0.0977783 14.362 0.0977783H7.08543C6.49224 0.0977783 6.01121 0.6029 6.01121 1.22604C6.01121 1.84918 6.49224 2.3543 7.08543 2.3543H14.362C15.5631 2.3543 16.5404 3.38068 16.5404 4.64229C16.5404 5.90391 15.5631 6.93029 14.3621 6.9304L7.97305 6.93063C7.05288 6.91732 6.17825 7.28705 5.51696 7.97089C4.84794 8.66273 4.47948 9.58565 4.47948 10.5701C4.47948 12.589 6.04333 14.2315 7.96542 14.2315H15.2761C16.0136 14.2315 16.6136 14.8616 16.6136 15.6363C16.6136 16.4109 16.0136 17.0412 15.2761 17.0412C15.261 17.0412 15.2458 17.0415 15.2307 17.0422L11.9589 17.1876C9.93887 17.2015 8.29972 18.9318 8.29972 21.0589L8.30004 21.2292C3.63504 21.7916 0 25.9638 0 31.0117V40.0541C0 45.4843 4.2062 49.9021 9.3763 49.9021C14.5464 49.9021 18.7526 45.4843 18.7526 40.0541V31.0117C18.7526 25.9623 15.1154 21.789 10.4484 21.2285ZM2.14843 31.0117C2.14843 27.209 4.82409 24.0504 8.30208 23.5039V32.7062H2.14843V31.0117ZM16.6042 40.0541C16.6042 44.24 13.3618 47.6456 9.3763 47.6456C5.39085 47.6456 2.14843 44.24 2.14843 40.0541V34.9628H16.6042V40.0541ZM16.6042 32.7062H10.4505V23.5039C13.9285 24.0504 16.6042 27.209 16.6042 31.0117V32.7062Z" fill="white"/>
        <path d="M4.00271 1.00527C3.98875 0.934185 3.96834 0.863104 3.94148 0.79428C3.91463 0.726585 3.88132 0.661146 3.84265 0.60022C3.80409 0.538166 3.75897 0.480625 3.70956 0.428725C3.50975 0.218868 3.2326 0.0981445 2.95009 0.0981445C2.66757 0.0981445 2.39042 0.218868 2.19061 0.428725C2.1412 0.480625 2.09608 0.538166 2.05741 0.60022C2.01777 0.661146 1.98544 0.726585 1.95858 0.79428C1.93065 0.863104 1.91035 0.934185 1.89628 1.00527C1.88231 1.0786 1.87598 1.15307 1.87598 1.2264C1.87598 1.29974 1.88242 1.37421 1.89628 1.44641C1.91024 1.51862 1.93065 1.5897 1.95848 1.6574C1.98533 1.72622 2.01767 1.79166 2.0573 1.85259C2.09598 1.91464 2.14109 1.97218 2.19051 2.02408C2.23992 2.07598 2.29471 2.12337 2.3539 2.16399C2.4119 2.2046 2.47421 2.23958 2.53866 2.26779C2.60419 2.29599 2.67186 2.31743 2.74061 2.3321C2.80936 2.34677 2.88026 2.35466 2.95009 2.35466C3.2326 2.35466 3.50975 2.23394 3.70956 2.02408C3.75897 1.97218 3.80409 1.91464 3.84265 1.85259C3.88132 1.79166 3.91463 1.72622 3.94148 1.6574C3.96834 1.5897 3.98875 1.51862 4.00271 1.44641C4.01668 1.37421 4.0242 1.29974 4.0242 1.2264C4.0242 1.15307 4.01668 1.0786 4.00271 1.00527Z" fill="#85B6FF"/>
        <path d="M54.9914 11.3556C54.8727 8.69329 53.5958 7.3756 52.5697 6.31684C51.4596 5.1712 50.7895 4.47969 51.4222 2.21336C51.7087 1.18732 51.3142 0.648578 51.0533 0.418751C50.7288 0.13285 50.1497 -0.10792 49.2323 0.368995C48.0437 0.987056 46.2395 2.80412 44.845 4.78748C43.5646 6.60861 42.0632 9.33561 42.1814 11.9857C42.2698 13.9673 43.0697 15.7844 44.3757 17.0625C43.7303 17.9773 43.3477 19.1084 43.3477 20.3317C43.3477 21.1079 43.4984 21.8477 43.7723 22.5192V44.568C43.7723 47.2516 45.851 49.4347 48.4059 49.4347C50.9608 49.4347 53.0396 47.2516 53.0396 44.568V23.2478C53.5404 22.4006 53.8264 21.4008 53.8264 20.3317C53.8265 19.123 53.4527 18.0049 52.8214 17.0961C54.2781 15.676 55.0906 13.5809 54.9914 11.3556ZM50.8911 44.5679C50.8912 46.0072 49.7764 47.1781 48.406 47.1781C47.0356 47.1781 45.9208 46.0072 45.9208 44.5679V25.0762C46.4787 25.4194 47.1059 25.6599 47.7828 25.7697C47.837 25.7785 47.8918 25.7829 47.9466 25.7829H49.2277C49.2826 25.7829 49.3374 25.7785 49.3915 25.7697C49.4623 25.7582 49.5328 25.7449 49.6029 25.7303C49.6477 25.7212 49.6919 25.7106 49.7362 25.7003C49.7554 25.6958 49.7746 25.6915 49.7937 25.6868C50.1793 25.5922 50.5465 25.4547 50.8911 25.2795V44.5679ZM50.0392 23.1957C50.0345 23.1981 50.0301 23.2006 50.0257 23.203C49.9948 23.2203 49.9635 23.2368 49.932 23.253C49.917 23.2607 49.902 23.2681 49.8868 23.2756C49.8628 23.2874 49.8386 23.2989 49.8143 23.3101C49.7914 23.3206 49.7684 23.3307 49.7453 23.3406C49.7265 23.3486 49.7078 23.3567 49.6889 23.3644C49.6602 23.376 49.6312 23.3868 49.6022 23.3976C49.5871 23.4031 49.5722 23.4088 49.5571 23.4141C49.5243 23.4255 49.4913 23.4361 49.4582 23.4464C49.4457 23.4504 49.4332 23.4545 49.4205 23.4584C49.3844 23.4691 49.348 23.4787 49.3115 23.4879C49.3012 23.4905 49.2911 23.4936 49.2808 23.4961C49.2338 23.5075 49.1867 23.5177 49.1392 23.5267H48.0356C48.0346 23.5265 48.0335 23.5263 48.0324 23.5261C47.9805 23.5162 47.9293 23.5045 47.8783 23.4919C47.8579 23.4868 47.8377 23.4813 47.8174 23.4757C47.787 23.4675 47.7567 23.4588 47.7266 23.4496C47.7012 23.4418 47.6758 23.4341 47.6506 23.4256C47.6316 23.4193 47.6128 23.4122 47.5939 23.4055C46.3682 22.965 45.4965 21.7294 45.4965 20.3319C45.4965 19.2855 45.9708 18.3538 46.7048 17.7596C46.733 17.7367 46.7617 17.7145 46.7906 17.6927C46.84 17.6555 46.8905 17.6197 46.9421 17.5856C46.9646 17.5705 46.9873 17.5557 47.0102 17.5413C47.0814 17.4968 47.1544 17.455 47.2291 17.4164C47.2364 17.4126 47.2437 17.4085 47.251 17.4048C47.2943 17.3829 47.3383 17.362 47.3826 17.3422C47.3899 17.3389 47.3973 17.3361 47.4046 17.3329C47.4818 17.2992 47.5605 17.269 47.6406 17.2418C47.6655 17.2334 47.6903 17.2255 47.7153 17.2179C47.7696 17.201 47.8244 17.1859 47.88 17.1722C47.9223 17.1618 47.9648 17.152 48.0077 17.1435C48.0368 17.1376 48.0659 17.132 48.0953 17.127C48.1625 17.1159 48.2303 17.1066 48.2987 17.1001C48.3172 17.0983 48.3359 17.097 48.3545 17.0956C48.4317 17.0896 48.5093 17.0854 48.5876 17.0854C48.6671 17.0854 48.7456 17.0898 48.8238 17.0959C48.8423 17.0974 48.8609 17.0985 48.8792 17.1003C48.9478 17.1069 49.0156 17.1164 49.083 17.1277C49.1134 17.1329 49.1436 17.1387 49.1738 17.1447C49.217 17.1533 49.2598 17.1635 49.3025 17.1741C49.3585 17.1881 49.4141 17.2035 49.4689 17.2207C49.4916 17.2278 49.5144 17.2352 49.5371 17.2429C49.6141 17.2691 49.6898 17.2983 49.7641 17.3305C49.775 17.3352 49.7861 17.3397 49.7969 17.3446C49.9271 17.4029 50.0526 17.4706 50.1729 17.5464C50.1995 17.5632 50.2258 17.5808 50.252 17.5985C50.3005 17.6312 50.3481 17.6652 50.3947 17.7006C50.4273 17.7255 50.4595 17.751 50.4913 17.7772C51.2132 18.3721 51.6783 19.2957 51.6783 20.3319C51.6783 21.5481 51.0183 22.6421 50.0392 23.1957ZM51.2198 15.5741C51.1965 15.5599 51.1721 15.5478 51.1487 15.5339C51.0926 15.5008 51.0357 15.4688 50.9783 15.4378C50.949 15.422 50.9199 15.4056 50.8903 15.3904C50.6989 15.2917 50.501 15.2055 50.2975 15.1315C50.2862 15.1274 50.2751 15.1235 50.2638 15.1194C50.1619 15.0832 50.0588 15.0497 49.9543 15.02C49.9539 15.0199 49.9534 15.0198 49.9529 15.0196C49.7412 14.9594 49.5243 14.9133 49.3029 14.8813C49.2827 14.8784 49.2624 14.8759 49.2422 14.8732C49.1567 14.8619 49.0706 14.8529 48.984 14.8461C48.9581 14.8441 48.9323 14.8416 48.9064 14.8399C48.8007 14.8333 48.6945 14.8288 48.5873 14.8288C48.4811 14.8288 48.376 14.8332 48.2713 14.8397C48.2463 14.8413 48.2214 14.8438 48.1963 14.8457C48.1105 14.8523 48.0252 14.8611 47.9406 14.8722C47.9207 14.8748 47.9009 14.8773 47.8811 14.8802C47.5532 14.9268 47.235 15.0055 46.9291 15.113C46.9204 15.116 46.9118 15.1191 46.9032 15.1222C46.8063 15.1569 46.7105 15.1941 46.6162 15.2345C46.6083 15.2379 46.6004 15.2409 46.5925 15.2443C46.4941 15.2871 46.397 15.3323 46.3016 15.381C46.2809 15.3917 46.2607 15.4034 46.2401 15.4142C46.1749 15.4486 46.1103 15.4842 46.0467 15.5214C46.0281 15.5322 46.0088 15.5416 45.9903 15.5527C45.0025 14.6698 44.3927 13.343 44.3275 11.8802C44.2554 10.2627 45.1581 8.04894 46.8043 5.80653C47.6294 4.68256 48.4243 3.83399 49.0535 3.25734C48.8752 5.66764 50.0701 6.90071 51.0641 7.92641C51.9774 8.86885 52.7661 9.68266 52.8453 11.4611C52.9179 13.087 52.3061 14.6036 51.2198 15.5741Z" fill="white"/>
    </g>
</svg>
