<svg viewBox="0 0 25 25" fill="none" xmlns="http://www.w3.org/2000/svg">
<g>
<path d="M24.0727 12.1785C24.0727 5.91826 18.9305 0.842237 12.5856 0.842237C11.9172 0.842237 11.2609 0.899491 10.6211 1.00797C9.59451 0.370645 8.37971 0 7.07761 0C3.39709 0 0.415039 2.94256 0.415039 6.57518C0.415039 7.78806 0.749221 8.92259 1.33028 9.90043C1.17824 10.6357 1.09695 11.3996 1.09695 12.1785C1.09695 18.4403 6.24065 23.5163 12.5841 23.5163C13.3036 23.5163 14.0051 23.4501 14.6885 23.3265C15.6279 23.8237 16.6981 24.107 17.8392 24.107C21.5182 24.107 24.5002 21.1629 24.5002 17.5333C24.5002 16.4846 24.2504 15.4932 23.8078 14.6133C23.9824 13.8269 24.0727 13.0148 24.0727 12.1785Z" fill="white"/>
<path d="M18.4772 17.5965C17.9459 18.3393 17.1616 18.9269 16.1425 19.3428C15.1354 19.7556 13.9297 19.9681 12.5538 19.9681C10.904 19.9681 9.52056 19.6818 8.43974 19.1153C7.66751 18.704 7.03226 18.148 6.54905 17.4579C6.05982 16.7649 5.81445 16.0763 5.81445 15.4088C5.81445 14.996 5.97552 14.6344 6.29315 14.3406C6.60776 14.0468 7.01119 13.9006 7.49289 13.9006C7.88729 13.9006 8.22749 14.0167 8.50447 14.2472C8.7679 14.4702 8.9952 14.7986 9.17735 15.219C9.38057 15.68 9.60185 16.0688 9.83518 16.3716C10.0625 16.6684 10.3861 16.9155 10.8001 17.1099C11.2171 17.3027 11.7785 17.4037 12.468 17.4037C13.4178 17.4037 14.1976 17.2018 14.7817 16.8085C15.3552 16.4243 15.6322 15.9603 15.6322 15.3938C15.6322 14.9478 15.4862 14.5952 15.1896 14.3195C14.8765 14.0302 14.464 13.8057 13.9643 13.6505C13.4419 13.4908 12.7329 13.3161 11.8568 13.1352C10.6631 12.8836 9.65002 12.5868 8.84618 12.2463C8.02276 11.8998 7.35741 11.4206 6.8727 10.8225C6.37895 10.2108 6.12907 9.44688 6.12907 8.5489C6.12907 7.6931 6.39099 6.92167 6.90882 6.25572C7.42214 5.59428 8.17179 5.07749 9.13972 4.72643C10.0926 4.37839 11.2261 4.20361 12.5101 4.20361C13.5353 4.20361 14.437 4.32113 15.1911 4.55316C15.9483 4.78519 16.5866 5.09858 17.0878 5.4858C17.5936 5.87754 17.9699 6.29188 18.2048 6.72581C18.4426 7.16274 18.5646 7.59818 18.5646 8.01854C18.5646 8.42384 18.4065 8.79298 18.0934 9.1124C17.7773 9.43483 17.3799 9.59755 16.9132 9.59755C16.4887 9.59755 16.1545 9.49359 15.9242 9.2932C15.709 9.10486 15.4847 8.81106 15.2378 8.3922C14.9518 7.85582 14.604 7.43244 14.2066 7.13261C13.8198 6.84182 13.1755 6.69718 12.2873 6.69718C11.4654 6.69718 10.7941 6.8599 10.2973 7.18233C9.81862 7.4912 9.58529 7.84678 9.58529 8.26865C9.58529 8.5263 9.66056 8.74175 9.81561 8.92707C9.97818 9.12596 10.2085 9.29621 10.5005 9.44085C10.8016 9.59002 11.1132 9.71055 11.4248 9.79492C11.7439 9.88231 12.2783 10.0134 13.0144 10.1806C13.9447 10.3765 14.7982 10.598 15.5539 10.8376C16.3201 11.0771 16.9794 11.3739 17.5214 11.722C18.0708 12.076 18.5058 12.5281 18.8159 13.0705C19.126 13.6174 19.2826 14.2879 19.2826 15.0683C19.2811 16.001 19.0101 16.8522 18.4772 17.5965Z" fill="black"/>
</g>

</svg>
