<svg viewBox="0 0 24 23" fill="none" xmlns="http://www.w3.org/2000/svg">
<g>
<path d="M17.0316 13.7366L17.0231 13.8056C14.959 12.7968 14.7431 12.6624 14.4765 13.0545C14.2916 13.326 13.7527 13.9419 13.5904 14.1241C13.4261 14.3036 13.2628 14.3174 12.984 14.1932C12.7024 14.0551 11.7984 13.7651 10.7283 12.8262C9.89476 12.0944 9.3353 11.1969 9.17009 10.9208C8.89506 10.455 9.47047 10.3887 9.99426 9.41666C10.0881 9.22335 10.0403 9.07147 9.97079 8.93431C9.90039 8.79624 9.34 7.44309 9.10533 6.90368C8.88004 6.3661 8.64819 6.43422 8.47453 6.43422C7.93385 6.38819 7.53866 6.39556 7.19041 6.75087C5.67538 8.38385 6.05742 10.0684 7.35374 11.8597C9.90133 15.1293 11.2587 15.7313 13.7405 16.5671C14.4108 16.7761 15.0218 16.7466 15.5053 16.6785C16.0441 16.5948 17.1639 16.0148 17.3977 15.3659C17.637 14.7169 17.637 14.1784 17.5666 14.0542C17.4972 13.9299 17.3132 13.8609 17.0316 13.7366Z" fill="url(#paint0_linear)"/>
<path d="M19.8604 3.7409C12.6429 -3.10123 0.698133 1.86122 0.69344 11.5137C0.69344 13.443 1.20878 15.3246 2.19064 16.9861L0.598633 22.6582L6.54519 21.1376C13.9655 25.0681 23.1233 19.8488 23.127 11.5192C23.127 8.59565 21.9631 5.84426 19.8463 3.7768L19.8604 3.7409ZM21.2515 11.4888C21.2459 18.515 13.3807 22.9031 7.16003 19.3168L6.8221 19.1198L3.30204 20.0173L4.24542 16.662L4.02107 16.3169C0.149942 10.2737 4.59742 2.37579 11.9304 2.37579C14.4217 2.37579 16.7599 3.32851 18.5209 5.05446C20.2809 6.76568 21.2515 9.05866 21.2515 11.4888Z" fill="url(#paint1_linear)"/>
</g>
<defs>
<linearGradient id="paint0_linear" x1="11.9077" y1="6.41431" x2="11.9077" y2="16.7291" gradientUnits="userSpaceOnUse">
<stop stop-color="#85B6FF"/>
<stop offset="1" stop-color="#0080DB"/>
</linearGradient>
<linearGradient id="paint1_linear" x1="11.8628" y1="0.565674" x2="11.8628" y2="22.6582" gradientUnits="userSpaceOnUse">
<stop stop-color="#85B6FF"/>
<stop offset="1" stop-color="#0080DB"/>
</linearGradient>
<clipPath id="clip0">
<rect x="0.598633" y="0.0649414" width="22.5284" height="22.5942" fill="white"/>
</clipPath>
</defs>
</svg>
