<svg viewBox="0 0 52 50" fill="none" xmlns="http://www.w3.org/2000/svg">
    <path d="M49.4 0.122559H2.6C1.91068 0.123353 1.24983 0.394747 0.762409 0.877206C0.274988 1.35966 0.000802798 2.01379 0 2.69609V47.3039C0.000802798 47.9862 0.274988 48.6404 0.762409 49.1228C1.24983 49.6053 1.91068 49.8767 2.6 49.8775H49.4C50.0893 49.8767 50.7502 49.6053 51.2376 49.1228C51.725 48.6404 51.9992 47.9862 52 47.3039V2.69609C51.9992 2.01379 51.725 1.35966 51.2376 0.877206C50.7502 0.394747 50.0893 0.123353 49.4 0.122559ZM2.6 1.83824H49.4C49.6298 1.8385 49.8501 1.92896 50.0125 2.08978C50.175 2.2506 50.2664 2.46865 50.2667 2.69609V6.9853H1.73333V2.69609C1.73359 2.46865 1.82498 2.2506 1.98746 2.08978C2.14993 1.92896 2.37022 1.8385 2.6 1.83824ZM49.4 48.1618H2.6C2.37022 48.1615 2.14993 48.0711 1.98746 47.9102C1.82498 47.7494 1.73359 47.5314 1.73333 47.3039V8.70099H50.2667V47.3039C50.2664 47.5314 50.175 47.7494 50.0125 47.9102C49.8501 48.0711 49.6298 48.1615 49.4 48.1618Z" fill="white"/>
    <path d="M11.2671 5.26961C11.7457 5.26961 12.1337 4.88554 12.1337 4.41177C12.1337 3.93799 11.7457 3.55392 11.2671 3.55392C10.7884 3.55392 10.4004 3.93799 10.4004 4.41177C10.4004 4.88554 10.7884 5.26961 11.2671 5.26961Z" fill="white"/>
    <path d="M7.80026 5.26961C8.27891 5.26961 8.66693 4.88554 8.66693 4.41177C8.66693 3.93799 8.27891 3.55392 7.80026 3.55392C7.32161 3.55392 6.93359 3.93799 6.93359 4.41177C6.93359 4.88554 7.32161 5.26961 7.80026 5.26961Z" fill="white"/>
    <path d="M4.33346 5.26961C4.81211 5.26961 5.20013 4.88554 5.20013 4.41177C5.20013 3.93799 4.81211 3.55392 4.33346 3.55392C3.85482 3.55392 3.4668 3.93799 3.4668 4.41177C3.4668 4.88554 3.85482 5.26961 4.33346 5.26961Z" fill="white"/>
    <path d="M45.9335 12.1324H6.06686C5.83701 12.1324 5.61657 12.2227 5.45404 12.3836C5.2915 12.5445 5.2002 12.7627 5.2002 12.9902V26.7157C5.2002 26.9432 5.2915 27.1614 5.45404 27.3223C5.61657 27.4831 5.83701 27.5735 6.06686 27.5735H45.9335C46.1634 27.5735 46.3838 27.4831 46.5464 27.3223C46.7089 27.1614 46.8002 26.9432 46.8002 26.7157V12.9902C46.8002 12.7627 46.7089 12.5445 46.5464 12.3836C46.3838 12.2227 46.1634 12.1324 45.9335 12.1324ZM31.7255 24.8354L33.8002 22.7817L36.908 25.8578H32.5002L31.7255 24.8354ZM30.3335 25.8578H23.4002L26.8669 21.2826L30.3335 25.8578ZM21.2335 25.8578H14.6647L19.0669 19.6331L22.3898 24.3318L21.2335 25.8578ZM45.0669 25.8578H39.3591L34.413 20.962C34.3326 20.8824 34.237 20.8192 34.1319 20.7761C34.0267 20.7329 33.914 20.7108 33.8002 20.7108C33.6864 20.7108 33.5737 20.7329 33.4685 20.7761C33.3634 20.8192 33.2678 20.8824 33.1874 20.962L30.6749 23.4489L27.5602 19.3382C27.4795 19.2317 27.3748 19.1452 27.2544 19.0857C27.1341 19.0261 27.0014 18.9951 26.8669 18.9951C26.7323 18.9951 26.5996 19.0261 26.4793 19.0857C26.3589 19.1452 26.2543 19.2317 26.1735 19.3382L23.4842 22.8876L19.7769 17.6453C19.697 17.5323 19.5907 17.44 19.4671 17.3763C19.3435 17.3126 19.2062 17.2794 19.0669 17.2794C18.9275 17.2794 18.7902 17.3126 18.6666 17.3763C18.543 17.44 18.4368 17.5323 18.3568 17.6453L12.549 25.8578H6.93353V13.848H45.0669V25.8578Z" fill="white"/>
    <path d="M31.1997 18.9951C31.6783 18.9951 32.0663 18.611 32.0663 18.1373C32.0663 17.6635 31.6783 17.2794 31.1997 17.2794C30.721 17.2794 30.333 17.6635 30.333 18.1373C30.333 18.611 30.721 18.9951 31.1997 18.9951Z" fill="white"/>
    <path d="M29.4663 31.0049C29.9449 31.0049 30.3329 30.6209 30.3329 30.1471C30.3329 29.6733 29.9449 29.2892 29.4663 29.2892C28.9876 29.2892 28.5996 29.6733 28.5996 30.1471C28.5996 30.6209 28.9876 31.0049 29.4663 31.0049Z" fill="#85B6FF"/>
    <path d="M25.9995 31.0049C26.4781 31.0049 26.8661 30.6209 26.8661 30.1471C26.8661 29.6733 26.4781 29.2892 25.9995 29.2892C25.5208 29.2892 25.1328 29.6733 25.1328 30.1471C25.1328 30.6209 25.5208 31.0049 25.9995 31.0049Z" fill="#85B6FF"/>
    <path d="M22.5337 31.0049C23.0123 31.0049 23.4003 30.6209 23.4003 30.1471C23.4003 29.6733 23.0123 29.2892 22.5337 29.2892C22.055 29.2892 21.667 29.6733 21.667 30.1471C21.667 30.6209 22.055 31.0049 22.5337 31.0049Z" fill="#85B6FF"/>
    <path d="M16.4669 32.7206H6.06686C5.83701 32.7206 5.61657 32.811 5.45404 32.9718C5.2915 33.1327 5.2002 33.3509 5.2002 33.5784V40.4412C5.2002 40.6687 5.2915 40.8869 5.45404 41.0478C5.61657 41.2086 5.83701 41.299 6.06686 41.299H16.4669C16.6967 41.299 16.9172 41.2086 17.0797 41.0478C17.2422 40.8869 17.3335 40.6687 17.3335 40.4412V33.5784C17.3335 33.3509 17.2422 33.1327 17.0797 32.9718C16.9172 32.811 16.6967 32.7206 16.4669 32.7206ZM15.6002 34.4363V39.3426L11.8085 36.3401C11.6548 36.2183 11.4638 36.152 11.2669 36.152C11.0699 36.152 10.8789 36.2183 10.7252 36.3401L6.93353 39.3426V34.4363H15.6002ZM13.1295 39.5833H9.40418L11.2669 38.1084L13.1295 39.5833Z" fill="white"/>
    <path d="M31.2002 32.7206H20.8003C20.5704 32.7206 20.35 32.811 20.1874 32.9718C20.0249 33.1327 19.9336 33.3509 19.9336 33.5784V40.4412C19.9336 40.6687 20.0249 40.8869 20.1874 41.0478C20.35 41.2086 20.5704 41.299 20.8003 41.299H31.2002C31.4301 41.299 31.6505 41.2086 31.8131 41.0478C31.9756 40.8869 32.0669 40.6687 32.0669 40.4412V33.5784C32.0669 33.3509 31.9756 33.1327 31.8131 32.9718C31.6505 32.811 31.4301 32.7206 31.2002 32.7206ZM30.3336 34.4363V39.3426L26.5419 36.3401C26.3882 36.2183 26.1972 36.152 26.0003 36.152C25.8033 36.152 25.6123 36.2183 25.4586 36.3401L21.6669 39.3426V34.4363H30.3336ZM27.8629 39.5833H24.1376L26.0003 38.1084L27.8629 39.5833Z" fill="white"/>
    <path d="M45.9337 32.7206H35.5337C35.3038 32.7206 35.0834 32.811 34.9208 32.9718C34.7583 33.1327 34.667 33.3509 34.667 33.5784V40.4412C34.667 40.6687 34.7583 40.8869 34.9208 41.0478C35.0834 41.2086 35.3038 41.299 35.5337 41.299H45.9337C46.1635 41.299 46.384 41.2086 46.5465 41.0478C46.709 40.8869 46.8003 40.6687 46.8003 40.4412V33.5784C46.8003 33.3509 46.709 33.1327 46.5465 32.9718C46.384 32.811 46.1635 32.7206 45.9337 32.7206ZM45.067 34.4363V39.3426L41.2753 36.3401C41.1216 36.2183 40.9306 36.152 40.7337 36.152C40.5367 36.152 40.3457 36.2183 40.192 36.3401L36.4003 39.3426V34.4363H45.067ZM42.5963 39.5833H38.871L40.7337 38.1084L42.5963 39.5833Z" fill="white"/>
    <path d="M14.7336 43.0147H7.80026C7.57041 43.0147 7.34997 43.1051 7.18743 43.266C7.0249 43.4268 6.93359 43.645 6.93359 43.8726C6.93359 44.1001 7.0249 44.3183 7.18743 44.4791C7.34997 44.64 7.57041 44.7304 7.80026 44.7304H14.7336C14.9634 44.7304 15.1839 44.64 15.3464 44.4791C15.509 44.3183 15.6003 44.1001 15.6003 43.8726C15.6003 43.645 15.509 43.4268 15.3464 43.266C15.1839 43.1051 14.9634 43.0147 14.7336 43.0147Z" fill="#85B6FF"/>
    <path d="M29.467 43.0147H22.5337C22.3038 43.0147 22.0834 43.1051 21.9208 43.266C21.7583 43.4268 21.667 43.645 21.667 43.8726C21.667 44.1001 21.7583 44.3183 21.9208 44.4791C22.0834 44.64 22.3038 44.7304 22.5337 44.7304H29.467C29.6969 44.7304 29.9173 44.64 30.0798 44.4791C30.2424 44.3183 30.3337 44.1001 30.3337 43.8726C30.3337 43.645 30.2424 43.4268 30.0798 43.266C29.9173 43.1051 29.6969 43.0147 29.467 43.0147Z" fill="#85B6FF"/>
    <path d="M44.2004 43.0147H37.2671C37.0372 43.0147 36.8168 43.1051 36.6542 43.266C36.4917 43.4268 36.4004 43.645 36.4004 43.8726C36.4004 44.1001 36.4917 44.3183 36.6542 44.4791C36.8168 44.64 37.0372 44.7304 37.2671 44.7304H44.2004C44.4302 44.7304 44.6507 44.64 44.8132 44.4791C44.9757 44.3183 45.0671 44.1001 45.0671 43.8726C45.0671 43.645 44.9757 43.4268 44.8132 43.266C44.6507 43.1051 44.4302 43.0147 44.2004 43.0147Z" fill="#85B6FF"/>
</svg>
