<svg viewBox="0 0 31 23" fill="none" xmlns="http://www.w3.org/2000/svg">
<path d="M0.646981 2.0513C4.90161 5.54721 12.3672 11.6976 14.5614 13.6153C14.8559 13.8741 15.1719 14.0057 15.4999 14.0057C15.8272 14.0057 16.1426 13.8753 16.4365 13.6178C18.6326 11.6982 26.0981 5.54721 30.3528 2.0513C30.6177 1.83406 30.6581 1.45223 30.4436 1.18664C29.9479 0.572946 29.2087 0.221069 28.4165 0.221069H2.58321C1.79107 0.221069 1.05186 0.572946 0.55616 1.1867C0.341703 1.45223 0.382088 1.83406 0.646981 2.0513Z" fill="url(#paint0_linear)"/>
<path d="M30.6251 3.94575C30.3962 3.84236 30.1269 3.87843 29.9364 4.03633C27.15 6.32793 23.4787 9.35572 20.7099 11.6663C20.5643 11.7875 20.4823 11.9655 20.4854 12.1522C20.4886 12.3382 20.5775 12.5138 20.7276 12.63C23.3003 14.6292 27.1771 17.3791 29.9768 19.3336C30.0884 19.4119 30.2208 19.4517 30.3539 19.4517C30.4549 19.4517 30.5557 19.4291 30.6485 19.3826C30.8642 19.2755 30.9998 19.0601 30.9998 18.8251V4.51421C30.9997 4.27007 30.8534 4.04796 30.6251 3.94575Z" fill="url(#paint1_linear)"/>
<path d="M1.023 19.3336C3.82329 17.3791 7.70084 14.6292 10.2728 12.63C10.4229 12.5137 10.5118 12.3381 10.515 12.1521C10.5181 11.9655 10.4362 11.7874 10.2905 11.6662C7.52168 9.35566 3.84975 6.32788 1.06338 4.03628C0.871633 3.87837 0.601715 3.84354 0.374664 3.94569C0.146342 4.04791 0 4.27002 0 4.51416V18.8251C0 19.0601 0.135625 19.2755 0.351293 19.3826C0.44399 19.4291 0.544922 19.4517 0.645854 19.4517C0.778936 19.4517 0.911352 19.4119 1.023 19.3336Z" fill="url(#paint2_linear)"/>
<path d="M30.2083 21.0384C27.5045 19.1616 22.5239 15.6627 19.5508 13.3214C19.3086 13.1299 18.9579 13.136 18.7195 13.3355C18.1362 13.8293 17.648 14.2455 17.3017 14.5477C16.2383 15.4791 14.7625 15.4791 13.6966 14.5465C13.3516 14.2448 12.8635 13.8275 12.2801 13.3355C12.0436 13.1348 11.6923 13.1286 11.4494 13.3214C8.4864 15.6546 3.50012 19.1578 0.79192 21.0383C0.641159 21.1436 0.544041 21.3057 0.525151 21.485C0.506866 21.6643 0.568018 21.8423 0.694803 21.9745C1.18366 22.4855 1.87238 22.7786 2.5832 22.7786H28.4166C29.1274 22.7786 29.8154 22.4855 30.3055 21.9746C30.4316 21.843 30.4934 21.6649 30.4751 21.4856C30.4562 21.3064 30.3591 21.1436 30.2083 21.0384Z" fill="url(#paint3_linear)"/>
<defs>
<linearGradient id="paint0_linear" x1="15.4999" y1="0.221069" x2="15.4999" y2="14.0057" gradientUnits="userSpaceOnUse">
<stop stop-color="#85B6FF"/>
<stop offset="1" stop-color="#0080DB"/>
</linearGradient>
<linearGradient id="paint1_linear" x1="25.7426" y1="3.88733" x2="25.7426" y2="19.4517" gradientUnits="userSpaceOnUse">
<stop stop-color="#85B6FF"/>
<stop offset="1" stop-color="#0080DB"/>
</linearGradient>
<linearGradient id="paint2_linear" x1="5.25754" y1="3.88782" x2="5.25754" y2="19.4517" gradientUnits="userSpaceOnUse">
<stop stop-color="#85B6FF"/>
<stop offset="1" stop-color="#0080DB"/>
</linearGradient>
<linearGradient id="paint3_linear" x1="15.5001" y1="13.1808" x2="15.5001" y2="22.7786" gradientUnits="userSpaceOnUse">
<stop stop-color="#85B6FF"/>
<stop offset="1" stop-color="#0080DB"/>
</linearGradient>
</defs>
</svg>
