<svg width="166" height="63" viewBox="0 0 166 63" fill="none" xmlns="http://www.w3.org/2000/svg">
<g clip-path="url(#clip0)">
<path d="M37.0959 0C36.6404 0 36.2174 0.0980823 35.8268 0.228776C36.6566 0.783918 37.1122 1.51892 37.3398 2.352C37.3563 2.46639 37.3888 2.54816 37.405 2.66231C37.4213 2.76039 37.4375 2.85847 37.4375 2.95631C37.5027 4.39369 37.0634 4.57331 36.7541 5.42269C36.2823 6.51716 36.4125 7.69316 36.982 8.64039C37.0307 8.75478 37.0959 8.88547 37.1771 8.99986C36.5589 4.86731 39.992 4.24669 40.6264 2.95631C40.6751 1.82947 39.7478 1.07792 39.0157 0.555388C38.3161 0.130447 37.6816 0 37.0959 0ZM42.2695 0.930918C42.2046 1.30669 42.2533 1.20861 42.2371 1.40478C42.2208 1.53547 42.2208 1.69878 42.2046 1.82947C42.1721 1.95992 42.1396 2.09061 42.0906 2.22131C42.0582 2.35225 42.0094 2.48269 41.9607 2.61339C41.8955 2.74408 41.8468 2.85847 41.7815 2.98892C41.7328 3.05439 41.7003 3.11986 41.6514 3.18508L41.5539 3.33208C41.4727 3.44647 41.3912 3.56086 41.3098 3.65869C41.2121 3.75678 41.1309 3.87116 41.0169 3.95269V3.969C40.9192 4.05078 40.8218 4.14886 40.7078 4.23039C40.3663 4.49178 39.9757 4.68769 39.6176 4.93278C39.5039 5.01431 39.39 5.07978 39.2923 5.17786C39.1784 5.25939 39.0807 5.34092 38.9832 5.43925C38.8693 5.53708 38.7881 5.63516 38.6904 5.74955C38.6091 5.84739 38.5115 5.96202 38.4462 6.07616C38.365 6.19055 38.2838 6.30469 38.2186 6.41908C38.1534 6.55002 38.1047 6.66416 38.0394 6.79461C37.9907 6.92555 37.942 7.03994 37.9095 7.17039C37.8605 7.31739 37.828 7.44808 37.7956 7.57878C37.7793 7.64425 37.7793 7.72578 37.7631 7.79125C37.7466 7.85647 37.7466 7.92194 37.7306 7.98716C37.7306 8.11786 37.7141 8.26486 37.7141 8.39555C37.7141 8.49363 37.7141 8.59147 37.7306 8.68955C37.7306 8.82025 37.7468 8.95094 37.7793 9.09794C37.7956 9.22863 37.828 9.35908 37.8605 9.48977C37.9095 9.62072 37.942 9.75116 37.991 9.88186C38.0232 9.96339 38.0722 10.0452 38.1047 10.1106L34.3628 8.65694C33.7377 8.47827 33.1085 8.31483 32.4755 8.16678L31.4505 7.92194C30.4743 7.72578 29.4818 7.57878 28.4895 7.48094C28.457 7.48094 28.4406 7.46439 28.4083 7.46439C27.4405 7.36653 26.4685 7.31747 25.4958 7.31739C24.7799 7.31739 24.064 7.35 23.3646 7.39892C22.3719 7.46439 21.3796 7.59508 20.3869 7.75839C20.143 7.79125 19.8989 7.84016 19.655 7.88933C19.1505 7.98716 18.6625 8.10155 18.1908 8.21594L17.4584 8.41186C17.2145 8.50994 16.9866 8.62433 16.759 8.72216L16.222 8.96725C16.1895 8.98355 16.1568 8.98355 16.1408 8.99986C15.9779 9.08139 15.8315 9.14686 15.685 9.22839C15.6458 9.24176 15.6077 9.2582 15.5711 9.27755C15.3922 9.35908 15.2133 9.45716 15.0668 9.53894C14.9529 9.58786 14.839 9.65308 14.7415 9.702C14.6943 9.73204 14.6454 9.75934 14.5951 9.78378C14.4486 9.8653 14.3022 9.94708 14.1718 10.0289C14.0256 10.1104 13.8954 10.1922 13.7815 10.2739C13.6675 10.3555 13.5539 10.4209 13.4562 10.5025C13.4399 10.5188 13.4237 10.5188 13.4072 10.5351C13.3097 10.6006 13.1958 10.6821 13.0981 10.7639L13.0656 10.7965L12.8217 10.9924C12.789 11.0089 12.7565 11.0416 12.724 11.0579C12.6428 11.1231 12.5614 11.2049 12.4799 11.2703C12.4637 11.3027 12.4312 11.3192 12.4149 11.3356C12.3172 11.4336 12.2195 11.5152 12.1221 11.6132C12.1056 11.6132 12.1056 11.6296 12.0896 11.6459C11.9919 11.7274 11.8942 11.8255 11.7967 11.9236C11.7803 11.9399 11.7803 11.9562 11.764 11.9562C11.6828 12.0377 11.6016 12.1195 11.5201 12.2176C11.4876 12.2502 11.4389 12.2828 11.4062 12.3154C11.325 12.4135 11.2273 12.5116 11.1296 12.6094C11.1133 12.6422 11.0809 12.6586 11.0644 12.6912C10.9344 12.8219 10.8205 12.9526 10.6903 13.0832L10.6416 13.1322C10.3812 13.4099 10.1046 13.6876 9.81175 13.9326C9.52325 14.1911 9.21889 14.4311 8.90047 14.6513C8.58499 14.8734 8.2593 15.0805 7.92446 15.2719C7.5924 15.4548 7.25018 15.6183 6.89948 15.7619C6.55338 15.9095 6.2004 16.0404 5.84177 16.1539C5.15861 16.3009 4.45872 16.5786 3.85702 16.6276C3.72659 16.6276 3.58041 16.6602 3.45023 16.6765C3.3038 16.7093 3.17362 16.7419 3.04343 16.7746L2.65288 16.9216C2.5227 16.9705 2.39276 17.0359 2.26258 17.1012C2.14864 17.1827 2.01845 17.2482 1.90451 17.3299C1.79057 17.4115 1.67688 17.5096 1.57918 17.6076C1.46523 17.6892 1.35129 17.8036 1.25384 17.9016C1.15614 18.016 1.05844 18.1141 0.977231 18.2282C0.89602 18.3589 0.79832 18.4733 0.733106 18.6038C0.651895 18.7184 0.570438 18.8489 0.505223 18.9795C0.440254 19.1266 0.375285 19.2572 0.326312 19.4045C0.274993 19.5451 0.226177 19.6866 0.179887 19.8289C0.147402 19.9596 0.114918 20.0903 0.0986758 20.221C0.0986758 20.2373 0.0821875 20.2536 0.0821875 20.2699C0.0497031 20.4169 0.0497031 20.6131 0.0334609 20.7109C0.0172187 20.8253 0.000976562 20.9234 0.000976562 21.0375C0.000976562 21.103 0.000976562 21.1846 0.0172187 21.25C0.0334609 21.3644 0.0497031 21.4625 0.0824336 21.5603C0.114918 21.6584 0.147402 21.7562 0.196375 21.8543V21.8706C0.245102 21.9687 0.31007 22.0668 0.375285 22.1646C0.440254 22.2627 0.505469 22.3608 0.586926 22.4586C0.668137 22.5402 0.76559 22.6385 0.863289 22.72C0.960988 22.8181 1.05869 22.8996 1.17238 22.9814C1.56293 23.3243 1.66063 23.4387 2.16488 23.7001C2.24609 23.749 2.32755 23.7816 2.42525 23.8308C2.44149 23.8308 2.45773 23.8471 2.47397 23.8471C2.47397 23.8797 2.47397 23.896 2.49046 23.9286C2.5067 24.0596 2.53919 24.19 2.57167 24.3207C2.60416 24.4677 2.65288 24.5984 2.70186 24.7128C2.75058 24.8109 2.78307 24.9087 2.83204 25.0068C2.84828 25.0394 2.86452 25.0723 2.88077 25.0883C2.94598 25.2193 3.0112 25.3334 3.07616 25.4478L3.32004 25.7907C3.40125 25.8888 3.49895 26.0032 3.59665 26.1013C3.69435 26.1991 3.79205 26.2809 3.90575 26.3787C3.90575 26.3787 3.92223 26.3953 3.93823 26.3953C4.03593 26.4768 4.13363 26.5583 4.23108 26.6238C4.34502 26.7053 4.45897 26.7708 4.58915 26.8363C4.70309 26.9015 4.83327 26.967 4.96321 27.0159C5.06091 27.0648 5.17485 27.0974 5.28879 27.1303C5.30504 27.1466 5.32128 27.1466 5.35376 27.1629C5.41898 27.1792 5.50019 27.1955 5.5654 27.2118C5.51643 28.0938 5.50019 28.9269 5.63037 29.2209C5.7768 29.5475 6.49268 28.5513 7.20857 27.408C7.11112 28.5348 7.04615 29.8578 7.20857 30.2499C7.38748 30.6583 8.36374 29.3842 9.20981 27.9794C20.7452 25.3008 31.2716 33.3043 32.3781 44.6072C32.1664 42.8432 30.0028 41.8631 29.0103 42.1082C28.522 43.3168 27.6924 44.8686 26.3584 45.8321C26.4721 44.7542 26.4233 43.6434 26.1954 42.5655C25.8376 44.0681 25.138 45.4729 24.178 46.6815C22.6325 46.7959 21.087 46.0446 20.2732 44.9175C20.2082 44.8686 20.192 44.7705 20.1433 44.705C20.0943 44.5909 20.0456 44.4765 20.0128 44.3621C19.9654 44.2526 19.9327 44.1373 19.9154 44.0192C19.8991 43.9048 19.8991 43.7904 19.8991 43.6597V43.4149C19.9154 43.3005 19.9479 43.1861 19.9803 43.0717C20.0128 42.9576 20.0456 42.8432 20.0943 42.7288C20.1595 42.6144 20.2082 42.5 20.2894 42.3859C20.566 41.6017 20.566 40.9648 20.0618 40.589C19.9641 40.525 19.8606 40.4704 19.7527 40.426C19.6875 40.4094 19.6063 40.3766 19.5411 40.3605C19.4923 40.344 19.4599 40.3277 19.4109 40.3113C19.2972 40.2787 19.1832 40.2461 19.0693 40.2298C18.9583 40.1975 18.8433 40.181 18.7277 40.1807C18.6138 40.1643 18.4836 40.148 18.3697 40.148C18.2885 40.148 18.2072 40.1643 18.1255 40.1643C17.9956 40.1643 17.8817 40.1809 17.7677 40.2135C17.6538 40.2298 17.5398 40.2461 17.4261 40.2787C17.3122 40.3113 17.1983 40.3442 17.0843 40.3931C16.9706 40.442 16.8727 40.4912 16.759 40.5401C16.6613 40.589 16.5638 40.6545 16.4499 40.7034C12.6591 43.1864 14.9204 49.0009 17.5073 50.6834C16.5311 50.863 15.5386 51.0755 15.2622 51.2877L15.2298 51.3203C15.9291 51.7452 16.6613 52.1045 17.4261 52.4148C18.4674 52.7577 19.5738 53.068 20.0618 53.1987V53.215C21.4098 53.4925 22.7882 53.5913 24.1617 53.509C31.3693 53.0025 37.2753 47.4983 38.349 40.2461C38.3815 40.3931 38.4142 40.5238 38.4467 40.6708C38.4955 40.9648 38.5607 41.2751 38.5932 41.5854V41.602C38.6256 41.749 38.6419 41.896 38.6584 42.0267V42.0919C38.6746 42.2389 38.6908 42.3859 38.6908 42.5166C38.7071 42.6962 38.7233 42.8758 38.7233 43.0557V43.3168C38.7233 43.3986 38.7396 43.4967 38.7396 43.5782C38.7396 43.6763 38.7233 43.7744 38.7233 43.8722V44.101C38.7233 44.2154 38.7071 44.3135 38.7071 44.4276C38.7071 44.4931 38.7071 44.5583 38.6906 44.6401C38.6906 44.7542 38.6744 44.8686 38.6744 44.9993C38.6581 45.0482 38.6581 45.0974 38.6581 45.1463C38.6419 45.277 38.6256 45.3914 38.6091 45.5218C38.6091 45.571 38.6091 45.6199 38.5929 45.6691C38.5767 45.8321 38.5442 45.9794 38.5279 46.1427V46.1753C38.4955 46.3223 38.4627 46.4858 38.4302 46.6328V46.6818L38.3325 47.1228C38.3325 47.1391 38.3163 47.1717 38.3163 47.188C38.2838 47.335 38.2513 47.482 38.2024 47.6292V47.6781C38.1536 47.8415 38.1049 47.9885 38.0724 48.1355C38.0559 48.1518 38.0559 48.1681 38.0559 48.1681L37.9095 48.658C37.8445 48.8215 37.7958 48.9685 37.7306 49.1318C37.6656 49.2949 37.6167 49.4585 37.5517 49.6055C37.4865 49.7688 37.4213 49.9158 37.3565 50.0791H37.34C37.2751 50.2261 37.2099 50.3894 37.1284 50.5364C37.1152 50.5757 37.0989 50.614 37.0797 50.6508C37.0634 50.6673 37.0634 50.6834 37.0472 50.6999C35.9897 52.8395 34.4278 54.7178 32.4755 56.1878C32.3451 56.2694 32.2151 56.3677 32.085 56.4655C32.0525 56.4981 32.0037 56.5147 31.971 56.5471C31.8571 56.6288 31.7434 56.7106 31.6132 56.7921L31.6619 56.8902H31.6782L32.3616 56.7921H32.3778C32.8011 56.7269 33.2239 56.6451 33.6469 56.5636C33.7609 56.5473 33.891 56.5147 34.0047 56.4821C34.0862 56.4655 34.1512 56.4492 34.2326 56.4329C34.3466 56.4166 34.4605 56.384 34.5742 56.3675C34.6719 56.3348 34.7696 56.3185 34.867 56.2859C36.4942 55.8938 38.0724 55.3548 39.5854 54.7178C36.9985 58.2621 33.533 61.1206 29.4818 62.999C31.3528 62.8683 33.2239 62.558 35.03 62.0355C41.5866 60.0916 47.1021 55.6653 50.4049 49.7035C49.7345 53.4853 48.2399 57.0716 46.0281 60.206C47.6049 59.1618 49.0618 57.9457 50.3722 56.5799C54.0168 52.7579 56.4084 47.9067 57.222 42.6962C57.777 45.2812 57.936 47.9361 57.6937 50.5692C69.4405 34.121 58.67 17.0688 54.1633 12.577C54.1468 12.5444 54.1308 12.5281 54.1308 12.4955C54.1143 12.5118 54.1143 12.5118 54.1143 12.5281C54.1143 12.5116 54.1143 12.5116 54.098 12.4955C54.098 12.6914 54.0818 12.8873 54.0656 13.0835C54.0168 13.459 53.9679 13.8185 53.9029 14.178C53.8217 14.5372 53.724 14.8964 53.6263 15.2559C53.5104 15.6095 53.3801 15.9581 53.2357 16.3009C53.0893 16.6278 52.9266 16.9707 52.7477 17.2976C52.5688 17.6079 52.3737 17.9345 52.162 18.2285C51.9528 18.5323 51.7303 18.8265 51.4951 19.1105C51.2507 19.4045 50.9906 19.6659 50.7303 19.9273C50.5771 20.068 50.4197 20.2041 50.2585 20.3354C50.1281 20.4498 50.0144 20.5479 49.8842 20.6623C49.5913 20.8908 49.2985 21.1033 48.9731 21.2992C48.664 21.4951 48.3385 21.6913 48.0134 21.8546C47.6713 22.0179 47.3297 22.1649 46.9881 22.3119C46.6414 22.4433 46.2885 22.5577 45.9307 22.6548C45.5709 22.752 45.2072 22.8338 44.8405 22.8999C44.4664 22.9654 44.0924 22.998 43.7343 23.0306C43.4739 23.0469 43.2136 23.0632 42.9532 23.0632C42.5791 23.0632 42.2048 23.0306 41.847 22.998C41.4727 22.9651 41.0984 22.9162 40.7406 22.8344C40.3665 22.7692 40.0084 22.6714 39.6504 22.557H39.6341C39.9922 22.5241 40.3503 22.4915 40.7081 22.426C41.0751 22.3617 41.4389 22.28 41.7983 22.1812C42.156 22.0841 42.5088 21.9697 42.8555 21.8383C43.2136 21.7073 43.5551 21.5443 43.8807 21.3807C44.2223 21.2177 44.5314 21.0378 44.8567 20.8419C45.1658 20.6294 45.4752 20.4169 45.768 20.1884C46.0595 19.9609 46.3365 19.7155 46.5976 19.4534C46.8742 19.2083 47.1183 18.9309 47.3625 18.6529C47.6002 18.3669 47.8281 18.0728 48.0456 17.7709C48.0781 17.722 48.1108 17.6568 48.1433 17.6079C48.306 17.3465 48.4687 17.0851 48.6151 16.8237C48.7941 16.4999 48.957 16.1673 49.1033 15.8273C49.2503 15.4856 49.3805 15.1368 49.4936 14.7823C49.6076 14.4389 49.689 14.0796 49.7702 13.7204C49.8355 13.3449 49.9007 12.9854 49.9329 12.6259C49.9654 12.2504 49.9981 11.8749 49.9981 11.5154C49.9981 11.254 49.9819 10.9926 49.9656 10.7312C49.9332 10.3557 49.8844 9.99625 49.8352 9.63678C49.7713 9.26838 49.6899 8.90323 49.5916 8.54255C49.4774 8.19963 49.3637 7.84016 49.2335 7.49725C49.1031 7.15433 48.9407 6.81116 48.778 6.48455C48.5988 6.15794 48.4199 5.83108 48.2248 5.52102C48.017 5.21486 47.8 4.91521 47.5739 4.62247C47.3289 4.34073 47.0794 4.063 46.8255 3.78939C46.6884 3.64929 46.5473 3.51318 46.4024 3.38125C45.6735 2.81291 44.9189 2.27869 44.1408 1.78031C44.0358 1.71946 43.9271 1.66501 43.8155 1.61725C43.2788 1.27408 42.7745 1.09447 42.27 0.931165L42.2695 0.930918Z" fill="white"/>
</g>
<path d="M95.0312 44H92.1143L81.6641 27.8149C81.3997 27.409 81.1826 26.9842 81.0127 26.5405H80.9277C81.0033 26.9748 81.041 27.9046 81.041 29.3301V44H78.6621V23.6943H81.749L91.916 39.6245C92.3408 40.2853 92.6146 40.7384 92.7373 40.9839H92.7939C92.6995 40.3986 92.6523 39.4027 92.6523 37.9961V23.6943H95.0312V44ZM112.568 37.3306H102.33C102.368 38.9448 102.802 40.1909 103.633 41.0688C104.463 41.9468 105.606 42.3857 107.059 42.3857C108.693 42.3857 110.194 41.8477 111.562 40.7715V42.9521C110.288 43.8773 108.603 44.3398 106.507 44.3398C104.459 44.3398 102.849 43.6838 101.679 42.3716C100.508 41.05 99.9227 39.195 99.9227 36.8066C99.9227 34.5505 100.56 32.7144 101.834 31.2983C103.118 29.8729 104.709 29.1602 106.606 29.1602C108.504 29.1602 109.972 29.7738 111.01 31.001C112.049 32.2282 112.568 33.9321 112.568 36.1128V37.3306ZM110.189 35.3623C110.179 34.0218 109.854 32.9787 109.212 32.2329C108.579 31.4871 107.697 31.1143 106.564 31.1143C105.469 31.1143 104.539 31.506 103.774 32.2896C103.01 33.0731 102.538 34.0973 102.358 35.3623H110.189ZM116.086 43.4761V40.9839C117.351 41.9185 118.743 42.3857 120.263 42.3857C122.302 42.3857 123.322 41.7061 123.322 40.3467C123.322 39.9596 123.232 39.634 123.053 39.3696C122.883 39.0959 122.647 38.8551 122.344 38.6475C122.052 38.4398 121.703 38.2557 121.297 38.0952C120.9 37.9253 120.471 37.7507 120.008 37.5713C119.366 37.3164 118.8 37.0615 118.309 36.8066C117.827 36.5423 117.421 36.2497 117.091 35.9287C116.77 35.5983 116.525 35.2254 116.355 34.8101C116.194 34.3947 116.114 33.9085 116.114 33.3516C116.114 32.6719 116.27 32.0724 116.581 31.5532C116.893 31.0246 117.308 30.5856 117.827 30.2363C118.347 29.8776 118.937 29.6086 119.597 29.4292C120.268 29.2498 120.957 29.1602 121.665 29.1602C122.92 29.1602 124.044 29.3773 125.035 29.8115V32.1621C123.968 31.4635 122.741 31.1143 121.353 31.1143C120.919 31.1143 120.527 31.1662 120.178 31.27C119.829 31.3644 119.527 31.5013 119.272 31.6807C119.026 31.86 118.833 32.0771 118.691 32.332C118.559 32.5775 118.493 32.8512 118.493 33.1533C118.493 33.5309 118.559 33.8472 118.691 34.1021C118.833 34.3569 119.036 34.5835 119.3 34.7817C119.564 34.98 119.885 35.1593 120.263 35.3198C120.641 35.4803 121.07 35.6549 121.552 35.8438C122.193 36.0892 122.769 36.3441 123.279 36.6084C123.789 36.8633 124.223 37.1559 124.582 37.4863C124.941 37.8073 125.214 38.1802 125.403 38.605C125.601 39.0298 125.7 39.5348 125.7 40.1201C125.7 40.8376 125.54 41.4606 125.219 41.9893C124.907 42.5179 124.487 42.9569 123.959 43.3062C123.43 43.6554 122.821 43.915 122.132 44.085C121.443 44.2549 120.721 44.3398 119.966 44.3398C118.474 44.3398 117.181 44.0519 116.086 43.4761ZM136.879 43.8584C136.332 44.1605 135.609 44.3115 134.713 44.3115C132.173 44.3115 130.903 42.8955 130.903 40.0635V31.4824H128.411V29.5H130.903V25.96L133.226 25.2095V29.5H136.879V31.4824H133.226V39.6528C133.226 40.6252 133.391 41.319 133.721 41.7344C134.052 42.1497 134.599 42.3574 135.364 42.3574C135.949 42.3574 136.454 42.1969 136.879 41.876V43.8584ZM146.358 36.7217C146.358 39.1289 145.849 41.0028 144.829 42.3433C143.81 43.6743 142.445 44.3398 140.737 44.3398C139.944 44.3398 139.292 44.2266 138.783 44V41.6494C139.292 42.0176 139.953 42.2017 140.765 42.2017C142.908 42.2017 143.98 40.3844 143.98 36.75V23.6943H146.358V36.7217ZM151.448 43.1787V40.375C151.769 40.6582 152.151 40.9131 152.595 41.1396C153.048 41.3662 153.52 41.5597 154.011 41.7202C154.511 41.8713 155.012 41.9893 155.512 42.0742C156.012 42.1592 156.475 42.2017 156.9 42.2017C158.363 42.2017 159.453 41.9326 160.171 41.3945C160.898 40.847 161.261 40.0635 161.261 39.0439C161.261 38.4964 161.138 38.0197 160.893 37.6138C160.657 37.2078 160.327 36.8397 159.902 36.5093C159.477 36.1694 158.972 35.8485 158.387 35.5464C157.811 35.2349 157.188 34.9092 156.517 34.5693C155.809 34.2106 155.149 33.8472 154.535 33.479C153.921 33.1108 153.388 32.7049 152.935 32.2612C152.482 31.8175 152.123 31.3172 151.859 30.7603C151.604 30.1938 151.476 29.533 151.476 28.7778C151.476 27.8527 151.679 27.0503 152.085 26.3706C152.491 25.6815 153.025 25.1151 153.685 24.6714C154.346 24.2277 155.097 23.8973 155.937 23.6802C156.787 23.4631 157.65 23.3545 158.528 23.3545C160.53 23.3545 161.988 23.5952 162.904 24.0767V26.7529C161.705 25.9222 160.166 25.5068 158.287 25.5068C157.768 25.5068 157.249 25.5635 156.73 25.6768C156.211 25.7806 155.748 25.9552 155.342 26.2007C154.936 26.4461 154.606 26.7624 154.351 27.1494C154.096 27.5365 153.969 28.0085 153.969 28.5654C153.969 29.0846 154.063 29.533 154.252 29.9106C154.45 30.2882 154.738 30.6328 155.116 30.9443C155.493 31.2559 155.951 31.5579 156.489 31.8506C157.037 32.1432 157.664 32.4642 158.372 32.8135C159.099 33.1722 159.788 33.5498 160.44 33.9463C161.091 34.3428 161.662 34.7817 162.153 35.2632C162.644 35.7446 163.031 36.278 163.314 36.8633C163.607 37.4486 163.753 38.1188 163.753 38.874C163.753 39.8747 163.555 40.7243 163.159 41.4229C162.772 42.112 162.243 42.6737 161.573 43.1079C160.912 43.5422 160.147 43.8537 159.279 44.0425C158.41 44.2407 157.495 44.3398 156.532 44.3398C156.211 44.3398 155.814 44.3115 155.342 44.2549C154.87 44.2077 154.389 44.1322 153.898 44.0283C153.407 43.9339 152.94 43.8159 152.496 43.6743C152.062 43.5233 151.712 43.3581 151.448 43.1787Z" fill="white"/>
<defs>
<clipPath id="clip0">
<rect width="63" height="63" fill="white"/>
</clipPath>
</defs>
</svg>
