<svg width="116" height="28" viewBox="0 0 116 28" fill="none" xmlns="http://www.w3.org/2000/svg">
<path d="M14.3329 3.03912H8.37096V21.1811H5.94944V3.03912H0V0.885586H14.3329V3.03912ZM23.7413 6.69006L16.956 23.4997C15.7466 26.4986 14.0463 28 11.8541 28C11.2395 28 10.7271 27.9396 10.3132 27.8148V25.7338C10.822 25.9028 11.2888 25.9873 11.7107 25.9873C12.9031 25.9873 13.7963 25.291 14.3912 23.8942L15.571 21.1489L9.80972 6.69006H12.4319L16.423 17.8401C16.4722 17.981 16.5708 18.3514 16.7267 18.9431H16.8127C16.862 18.7176 16.956 18.3594 17.0994 17.8683L21.2911 6.69006H23.7413ZM27.6052 19.088H27.5478V27.847H25.1836V6.69006H27.5478V9.23805H27.6052C28.7689 7.31396 30.4656 6.35193 32.7071 6.35193C34.6081 6.35193 36.0917 7 37.1569 8.29615C38.2229 9.5923 38.7551 11.3312 38.7551 13.513C38.7551 15.9362 38.1566 17.8804 36.9562 19.3375C35.7557 20.7947 34.1127 21.5233 32.0307 21.5233C30.1172 21.5192 28.6426 20.7102 27.6052 19.088ZM27.5478 13.2432V15.2679C27.5478 16.4675 27.9456 17.4819 28.7366 18.3192C29.5277 19.1564 30.5355 19.571 31.7566 19.571C33.1864 19.571 34.3089 19.0316 35.1205 17.9568C35.9322 16.8821 36.338 15.3847 36.338 13.4727C36.338 11.8585 35.9564 10.5946 35.1985 9.68084C34.4406 8.76714 33.4121 8.30824 32.1167 8.30824C30.7443 8.30824 29.6379 8.77923 28.802 9.7171C27.9662 10.6509 27.5478 11.8263 27.5478 13.2432ZM53.0889 14.5152H42.6727C42.7094 16.1294 43.152 17.3732 43.9959 18.2507C44.8398 19.1282 46.0035 19.567 47.4835 19.567C49.1426 19.567 50.671 19.0276 52.064 17.9528V20.1305C50.7695 21.0563 49.053 21.5192 46.9217 21.5192C44.8362 21.5192 43.2012 20.8631 42.0089 19.5468C40.8165 18.2306 40.2225 16.379 40.2225 13.9919C40.2225 11.7378 40.8738 9.89821 42.1728 8.48129C43.4754 7.06043 45.0906 6.35193 47.0203 6.35193C48.95 6.35193 50.4416 6.96374 51.4987 8.19149C52.5558 9.41925 53.0844 11.1219 53.0844 13.2996V14.5152H53.0889ZM50.6674 12.5469C50.6593 11.2064 50.3269 10.1639 49.6792 9.41925C49.0324 8.67457 48.1303 8.30018 46.9791 8.30018C45.8647 8.30018 44.9177 8.6906 44.1392 9.47556C43.3607 10.2605 42.8814 11.2829 42.6969 12.5469H50.6674ZM55.1539 20.36V17.5584C55.4531 17.8401 55.8096 18.0978 56.2271 18.3232C56.6455 18.5486 57.0835 18.7418 57.5467 18.8947C58.0099 19.0477 58.473 19.1725 58.9362 19.257C59.4029 19.3415 59.8338 19.3859 60.2271 19.3859C61.5871 19.3859 62.6074 19.1161 63.2793 18.5727C63.9512 18.0293 64.2872 17.2484 64.2872 16.23C64.2872 15.6825 64.177 15.2076 63.9512 14.8011C63.7264 14.3944 63.4191 14.0242 63.0213 13.6901C62.6236 13.356 62.1568 13.0339 61.6157 12.728C61.0746 12.4221 60.4932 12.1001 59.8706 11.7579C59.2103 11.3996 58.5958 11.0374 58.026 10.6671C57.4571 10.3007 56.9572 9.89418 56.5389 9.45139C56.1169 9.0086 55.7845 8.50546 55.5436 7.94593C55.3017 7.38648 55.1825 6.72632 55.1825 5.97359C55.1825 5.04772 55.3716 4.24673 55.7478 3.5624C56.125 2.87807 56.6213 2.31459 57.2394 1.8718C57.854 1.42901 58.5546 1.09893 59.342 0.881558C60.1286 0.664191 60.9313 0.555506 61.7474 0.555506C63.6117 0.555506 64.968 0.797045 65.82 1.27601V3.94879C64.7055 3.11961 63.2713 2.70501 61.5217 2.70501C61.0379 2.70501 60.555 2.76133 60.0712 2.86607C59.5875 2.97475 59.1575 3.15184 58.7803 3.3974C58.4031 3.64288 58.0959 3.95685 57.8585 4.34736C57.6211 4.73375 57.5019 5.20474 57.5019 5.76428C57.5019 6.28353 57.5924 6.73035 57.7724 7.10868C57.9525 7.48711 58.2186 7.82919 58.5716 8.14315C58.9237 8.45318 59.3501 8.75506 59.858 9.04888C60.3624 9.3427 60.9438 9.6607 61.6032 10.0109C62.2795 10.3692 62.9228 10.7475 63.5293 11.1421C64.1358 11.5365 64.6688 11.9753 65.1239 12.4583C65.5781 12.9414 65.9427 13.4727 66.2097 14.0563C66.4758 14.64 66.6111 15.3123 66.6111 16.065C66.6111 17.0632 66.4265 17.9126 66.0664 18.6049C65.7009 19.2973 65.2099 19.8608 64.5909 20.2955C63.9718 20.7303 63.2587 21.0442 62.448 21.2375C61.6408 21.4307 60.7879 21.5273 59.8912 21.5273C59.592 21.5273 59.2229 21.5031 58.7848 21.4508C58.3458 21.3985 57.8952 21.322 57.4401 21.2254C56.9814 21.1248 56.5514 21.004 56.1411 20.8591C55.7272 20.7021 55.4038 20.5371 55.1539 20.36ZM79.1863 20.5169C78.0512 21.1851 76.7074 21.5233 75.1549 21.5233C73.0523 21.5233 71.352 20.851 70.061 19.5066C68.7701 18.1621 68.1233 16.4192 68.1233 14.2777C68.1233 11.8908 68.8194 9.97466 70.2124 8.5256C71.6064 7.07645 73.4617 6.35193 75.7892 6.35193C77.0846 6.35193 78.2277 6.58943 79.2194 7.06043V9.4393C78.1256 8.68254 76.9529 8.30824 75.7032 8.30824C74.1954 8.30824 72.9582 8.83957 71.9952 9.90224C71.0321 10.9649 70.5484 12.3577 70.5484 14.0845C70.5484 15.7832 71.0035 17.1236 71.9092 18.1018C72.8149 19.0799 74.036 19.575 75.5598 19.575C76.8472 19.575 78.0557 19.1564 79.1908 18.3151V20.5169H79.1863ZM88.3286 9.0368C87.9147 8.72686 87.3207 8.56992 86.5422 8.56992C85.5335 8.56992 84.6896 9.0368 84.0132 9.97064C83.3377 10.9046 82.9973 12.1765 82.9973 13.7907V21.1771H80.6331V6.68603H82.9973V9.67279H83.0546C83.3906 8.65443 83.903 7.85739 84.5955 7.28979C85.288 6.71826 86.0585 6.43241 86.9149 6.43241C87.5295 6.43241 88.0007 6.49687 88.3286 6.62972V9.0368ZM91.0413 3.01092C90.6193 3.01092 90.2583 2.8701 89.959 2.58827C89.6598 2.30653 89.5129 1.94825 89.5129 1.51352C89.5129 1.07878 89.6598 0.72059 89.959 0.430707C90.2583 0.144941 90.6193 0 91.0413 0C91.4713 0 91.8404 0.144941 92.1432 0.430707C92.4469 0.72059 92.5983 1.07878 92.5983 1.51352C92.5983 1.92811 92.4469 2.28236 92.1432 2.57619C91.8404 2.86204 91.4713 3.01092 91.0413 3.01092ZM92.1924 21.1811H89.8283V6.69006H92.1924V21.1811ZM96.0034 19.088H95.9461V27.847H93.5819V6.69006H95.9461V9.23805H96.0034C97.1672 7.31396 98.863 6.35193 101.104 6.35193C103.006 6.35193 104.489 7 105.555 8.29615C106.62 9.5923 107.152 11.3312 107.152 13.513C107.152 15.9362 106.555 17.8804 105.354 19.3375C104.153 20.7947 102.51 21.5233 100.429 21.5233C98.5154 21.5192 97.04 20.7102 96.0034 19.088ZM95.9461 13.2432V15.2679C95.9461 16.4675 96.343 17.4819 97.134 18.3192C97.9251 19.1564 98.9329 19.571 100.154 19.571C101.584 19.571 102.707 19.0316 103.518 17.9568C104.33 16.8821 104.735 15.3847 104.735 13.4727C104.735 11.8585 104.354 10.5946 103.596 9.68084C102.838 8.76714 101.81 8.30824 100.515 8.30824C99.1417 8.30824 98.0353 8.77923 97.1994 9.7171C96.3636 10.6509 95.9461 11.8263 95.9461 13.2432ZM116 21.0402C115.443 21.3422 114.709 21.491 113.795 21.491C111.213 21.491 109.919 20.0741 109.919 17.2444V8.67054H107.383V6.69006H109.919V3.15183L112.283 2.40313V6.69006H116V8.67054H112.283V16.8338C112.283 17.8039 112.451 18.5003 112.787 18.9149C113.123 19.3295 113.681 19.5388 114.459 19.5388C115.053 19.5388 115.569 19.3778 116 19.0558V21.0402Z" fill="white"/>
</svg>
