<svg width="154" height="62" viewBox="0 0 154 62" fill="none" xmlns="http://www.w3.org/2000/svg">
<path d="M97.3643 45H94.9995V31.3779C94.9995 30.3018 95.0656 28.9849 95.1978 27.4272H95.1411C94.9146 28.3429 94.7116 28.999 94.5322 29.3955L87.5938 45H86.4326L79.5083 29.5088C79.3101 29.0557 79.1071 28.3618 78.8994 27.4272H78.8428C78.9183 28.2391 78.9561 29.5654 78.9561 31.4062V45H76.6621V24.6943H79.8057L86.0361 38.8545C86.5176 39.9401 86.8291 40.752 86.9707 41.29H87.0557C87.4616 40.1761 87.7873 39.3454 88.0327 38.7979L94.3906 24.6943H97.3643V45ZM109.336 45.3398C107.193 45.3398 105.48 44.6649 104.196 43.3149C102.921 41.9556 102.284 40.1572 102.284 37.9199C102.284 35.4844 102.95 33.5822 104.281 32.2134C105.612 30.8446 107.41 30.1602 109.676 30.1602C111.837 30.1602 113.523 30.8257 114.731 32.1567C115.949 33.4878 116.558 35.3333 116.558 37.6934C116.558 40.0062 115.901 41.8612 114.589 43.2583C113.287 44.646 111.535 45.3398 109.336 45.3398ZM109.506 32.1143C108.014 32.1143 106.834 32.624 105.966 33.6436C105.097 34.6536 104.663 36.0508 104.663 37.835C104.663 39.5531 105.102 40.9077 105.98 41.8989C106.858 42.8901 108.033 43.3857 109.506 43.3857C111.007 43.3857 112.158 42.8996 112.961 41.9272C113.773 40.9549 114.179 39.5719 114.179 37.7783C114.179 35.9658 113.773 34.5687 112.961 33.5869C112.158 32.6051 111.007 32.1143 109.506 32.1143ZM123.516 42.9043H123.46V45H121.137V23.5332H123.46V33.0488H123.516C124.659 31.123 126.33 30.1602 128.529 30.1602C130.389 30.1602 131.843 30.8115 132.89 32.1143C133.948 33.4076 134.476 35.1445 134.476 37.3252C134.476 39.7513 133.886 41.696 132.706 43.1592C131.526 44.613 129.912 45.3398 127.864 45.3398C125.947 45.3398 124.498 44.528 123.516 42.9043ZM123.46 37.0562V39.0811C123.46 40.2799 123.847 41.2995 124.621 42.1396C125.404 42.9704 126.396 43.3857 127.594 43.3857C129.001 43.3857 130.101 42.8477 130.894 41.7715C131.696 40.6953 132.097 39.1991 132.097 37.2827C132.097 35.6685 131.725 34.4035 130.979 33.4878C130.233 32.5721 129.223 32.1143 127.948 32.1143C126.599 32.1143 125.513 32.5863 124.692 33.5303C123.87 34.4648 123.46 35.6401 123.46 37.0562ZM153.386 45H150.484L145.811 37.2261C145.669 36.9901 145.513 36.6549 145.343 36.2207H145.287C145.192 36.4378 145.032 36.7729 144.805 37.2261L139.991 45H137.074L143.871 34.7905L137.612 24.6943H140.529L144.678 31.8311C144.952 32.3031 145.192 32.7751 145.4 33.2471H145.457C145.759 32.624 146.023 32.1331 146.25 31.7744L150.568 24.6943H153.301L146.915 34.7622L153.386 45Z" fill="white"/>
<g clip-path="url(#clip0)">
<path d="M61.9998 57.2518V4.74868C61.9998 2.59467 60.5654 0.776807 58.6002 0.195557L56.3685 1.53098L31.6012 27.9384L30.8247 30.3653L30.3711 32.6952L38.0945 61.5591L39.2892 61.9999H57.2515C59.8739 61.9999 61.9998 59.8742 61.9998 57.2518Z" fill="#E8E9EA"/>
<path d="M0 4.74833V57.2514C0 58.8753 0.815445 60.3078 2.05859 61.164L3.58123 60.435L29.7971 32.3669L30.8249 30.3652L30.8634 28.4301L23.7286 1.28505L22.6477 0H4.74833C2.12592 0 0 2.12592 0 4.74833Z" fill="#BDBEBE"/>
<path d="M30.8247 30.3655L58.6002 0.195201C58.1623 0.065479 57.708 -0.000348255 57.2512 -0.000244017H22.6479L30.8249 30.3652L30.8247 30.3655Z" fill="white"/>
<path d="M4.74808 62H39.2894L30.8247 30.3652L2.05811 61.1642C2.84894 61.7098 3.78731 62.0014 4.74808 62Z" fill="white"/>
<path d="M22.9882 23.4994H26.4333C27.806 28.6788 29.3684 33.2237 31.1114 37.3247C33.0857 32.711 34.5328 28.1627 35.7577 23.4992H39.0132C37.5553 29.2937 35.1702 35.1338 32.4422 41.1619H29.5626C26.9421 35.4497 24.7116 29.5764 22.9882 23.4992V23.4994ZM11.6247 14.5251H19.2851V47.3747H11.5908V44.8424H16.3067V16.9899H11.6247V14.5251ZM50.4157 16.9899H45.7337V44.8424H50.4491V47.3747H42.755V14.5251H50.4154V16.9899H50.4157Z" fill="#353E47"/>
</g>
<defs>
<clipPath id="clip0">
<rect width="62" height="62" fill="white"/>
</clipPath>
</defs>
</svg>
