<svg width="135" height="45" viewBox="0 0 135 45" fill="none" xmlns="http://www.w3.org/2000/svg">
<path d="M25.5527 27.0323C28.0677 27.0323 30.1063 25.0104 30.1063 22.5162C30.1063 20.022 28.0677 18 25.5527 18C23.0386 18 21 20.022 21 22.5162C21 25.0104 23.0386 27.0323 25.5527 27.0323Z" fill="white"/>
<path fill-rule="evenodd" clip-rule="evenodd" d="M25.3304 14.0416C19.2346 14.0416 13.521 14.921 9.34302 16.366H9.343C6.87228 17.2204 4.95473 18.274 3.67387 19.3608C2.37134 20.4661 1.84995 21.4939 1.84995 22.2989C1.84995 23.1358 2.41541 24.238 3.80776 25.4206C5.17309 26.5802 7.20802 27.7031 9.80941 28.5851C13.9118 29.9759 19.4346 30.6462 25.3304 30.6462C31.0702 30.6462 36.4781 29.9343 40.5451 28.5976C43.2423 27.7112 45.3574 26.5933 46.7781 25.4333C48.2275 24.2499 48.8118 23.1471 48.8118 22.2989C48.8118 21.497 48.2694 20.4605 46.9159 19.3403C45.5888 18.2421 43.6152 17.1808 41.1066 16.3241C36.9407 14.9018 31.3661 14.0416 25.3304 14.0416ZM8.73835 14.6176C13.1552 13.0901 19.0816 12.1917 25.3304 12.1917C31.521 12.1917 37.305 13.0714 41.7043 14.5734H41.7044C44.3544 15.4784 46.5464 16.6332 48.0953 17.9152C49.6178 19.1751 50.6618 20.6829 50.6618 22.2989C50.6618 23.9706 49.565 25.5462 47.9481 26.8662C46.3026 28.2098 43.9662 29.4206 41.1227 30.355C36.8131 31.7714 31.1971 32.4962 25.3304 32.4962C19.3274 32.4962 13.5821 31.8175 9.21546 30.337C6.45754 29.4021 4.19874 28.1798 2.61017 26.8305C1.04861 25.5042 0 23.9336 0 22.2989C0 20.7055 0.993248 19.2093 2.47697 17.9503C3.98235 16.673 6.12265 15.5222 8.73835 14.6176Z" fill="white"/>
<path fill-rule="evenodd" clip-rule="evenodd" d="M33.4783 2.30413C31.8555 2.89592 29.9429 4.06167 27.9425 5.78878L27.9423 5.78889C24.6196 8.65649 21.085 13.0152 18.0701 18.2C15.0253 23.437 12.9399 28.7829 12.1149 33.0925C11.6273 35.6406 11.5899 37.8123 11.8989 39.4534C12.2128 41.1205 12.8489 42.0841 13.5572 42.4892L13.5574 42.4893C14.2953 42.9116 15.5465 42.974 17.2747 42.3686C18.9704 41.7746 20.9678 40.5871 23.0368 38.7933C26.3004 35.9638 29.644 31.5545 32.5886 26.4896C35.4552 21.5588 37.5343 16.5586 38.3978 12.3987V12.3986C38.9707 9.64034 39.0507 7.26695 38.7478 5.46904C38.4391 3.63691 37.7693 2.58186 37.0231 2.15517L37.0229 2.1551C36.315 1.75016 35.1324 1.70091 33.4783 2.30413ZM37.9414 0.549226C36.5376 -0.253679 34.7058 -0.112617 32.8445 0.566141C30.9519 1.25634 28.8482 2.56276 26.7335 4.38849C23.2225 7.41851 19.5646 11.9497 16.471 17.2701L16.4709 17.2702C13.3482 22.6411 11.1712 28.1834 10.298 32.7447V32.7448C9.78102 35.4461 9.71676 37.8621 10.0809 39.7958C10.4401 41.7035 11.2521 43.3019 12.6386 44.0951C14.0587 44.9076 15.9477 44.7936 17.8863 44.1145C19.8575 43.4241 22.0536 42.0941 24.2486 40.191C27.7245 37.1775 31.1885 32.5787 34.1879 27.4193C37.119 22.3777 39.2929 17.1884 40.2091 12.7749C40.8137 9.86336 40.9237 7.24886 40.572 5.16165C40.2261 3.10871 39.3966 1.38143 37.9415 0.549296" fill="white"/>
<path fill-rule="evenodd" clip-rule="evenodd" d="M17.1445 2.30364C18.7672 2.89543 20.6798 4.06119 22.6803 5.78829L22.6804 5.7884C26.0032 8.656 29.5378 13.0147 32.5526 18.1996C35.5975 23.4365 37.6828 28.7824 38.5078 33.0919C38.9955 35.6401 39.033 37.8117 38.7239 39.453C38.41 41.12 37.7739 42.0836 37.0656 42.4888L37.0654 42.4889C36.3275 42.9111 35.0763 42.9735 33.348 42.3681C31.6523 41.7741 29.6551 40.5867 27.5859 38.7927C24.3225 35.9632 20.9787 31.5541 18.0342 26.4891C15.1675 21.5582 13.0885 16.5581 12.225 12.3983V12.3982C11.6521 9.63985 11.572 7.26646 11.875 5.46855C12.1837 3.63642 12.8535 2.58137 13.5997 2.15468L13.5998 2.15461C14.3078 1.74967 15.4904 1.70042 17.1445 2.30364ZM12.6814 0.548738C14.0852 -0.254167 15.917 -0.113106 17.7783 0.565653C19.6709 1.25586 21.7745 2.56227 23.8893 4.388C27.4002 7.41803 31.0582 11.9492 34.1518 17.2696C37.2746 22.6406 39.4516 28.1829 40.3248 32.7443C40.8418 35.4455 40.906 37.8616 40.5419 39.7953C40.1826 41.7031 39.3707 43.3014 37.9842 44.0945C36.5641 44.9071 34.675 44.7931 32.7364 44.1141C30.7653 43.4235 28.5692 42.0937 26.3742 40.1905C22.8983 37.1769 19.4342 32.5781 16.4348 27.4189C13.5038 22.3772 11.3298 17.1878 10.4136 12.7743C9.80898 9.86283 9.69903 7.24837 10.0507 5.16116C10.3966 3.10822 11.2262 1.38094 12.6813 0.548808" fill="white"/>
<path fill-rule="evenodd" clip-rule="evenodd" d="M75.8737 33.8376L70.2943 25.4752C73.1145 25.2292 75.6563 23.2 75.6563 19.5107C75.6563 15.7292 72.9601 13.3311 69.1788 13.3311H60.8716V33.8376H63.4439V25.6904H67.5665L72.8361 33.8376H75.8737ZM68.868 23.4461H63.4439V15.6062H68.868C71.3173 15.6062 72.9906 17.2049 72.9906 19.5107C72.9906 21.8166 71.3173 23.4461 68.868 23.4461ZM85.4519 34.2066C87.9002 34.2066 89.9148 33.4072 91.4031 31.9315L90.2866 30.425C89.1092 31.624 87.373 32.3003 85.6682 32.3003C82.4447 32.3003 80.4607 29.9637 80.2747 27.1661H92.3947V26.582C92.3947 22.124 89.7289 18.6191 85.204 18.6191C80.9259 18.6191 77.8263 22.0932 77.8263 26.3975C77.8263 31.0399 81.0194 34.2066 85.4519 34.2066ZM90.1007 25.4752H80.2747C80.3986 23.2 81.9794 20.5254 85.1725 20.5254C88.5819 20.5254 90.0702 23.2615 90.1007 25.4752ZM107.831 33.8376V23.6305C107.831 20.0333 105.196 18.6191 102.034 18.6191C99.5859 18.6191 97.6643 19.4185 96.052 21.0787L97.137 22.6774C98.4697 21.2632 99.9263 20.6175 101.725 20.6175C103.894 20.6175 105.506 21.7551 105.506 23.7535V26.4282C104.297 25.0447 102.592 24.3991 100.547 24.3991C98.005 24.3991 95.3083 25.9671 95.3083 29.2875C95.3083 32.5156 98.005 34.2066 100.547 34.2066C102.561 34.2066 104.266 33.4994 105.506 32.1467V33.8376H107.831ZM101.384 32.5463C99.2131 32.5463 97.6948 31.1936 97.6948 29.3182C97.6948 27.412 99.2131 26.0593 101.384 26.0593C103.026 26.0593 104.607 26.6742 105.506 27.9039V30.7017C104.607 31.9315 103.026 32.5463 101.384 32.5463ZM119.083 34.2066C121.81 34.2066 123.422 33.0998 124.569 31.624L123.019 30.2098C122.027 31.5318 120.756 32.1467 119.207 32.1467C116.014 32.1467 114.03 29.6871 114.03 26.3975C114.03 23.1079 116.014 20.679 119.207 20.679C120.756 20.679 122.027 21.2632 123.019 22.6158L124.569 21.2017C123.422 19.7259 121.81 18.6191 119.083 18.6191C114.619 18.6191 111.612 22.0011 111.612 26.3975C111.612 30.8246 114.619 34.2066 119.083 34.2066ZM131.605 34.2066C132.969 34.2066 133.805 33.8068 134.395 33.2534L133.713 31.5318C133.402 31.87 132.783 32.1467 132.132 32.1467C131.109 32.1467 130.612 31.3474 130.612 30.2405V21.0173H133.651V18.9881H130.612V14.9298H128.288V18.9881H125.808V21.0173H128.288V30.7325C128.288 32.946 129.405 34.2066 131.605 34.2066Z" fill="white"/>
</svg>
