<svg width="128" height="41" viewBox="0 0 128 41" fill="none" xmlns="http://www.w3.org/2000/svg">
<path d="M69.6023 12.64C69.6023 13.6525 68.7756 14.5568 67.6976 14.5568C66.8709 14.5568 66.1523 14.7736 65.5416 15.2441C64.8589 15.679 64.3198 16.2932 63.8887 16.9803C63.0263 18.1379 62.5957 19.5125 62.4157 20.0182V26.8919C62.4157 27.941 61.5177 28.8087 60.4396 28.8087C59.3974 28.8087 58.5352 27.941 58.5352 26.8919V12.64C58.5352 11.5908 59.3974 10.7585 60.4396 10.7585C61.5177 10.7585 62.4157 11.5908 62.4157 12.64V12.8933C62.6312 12.64 62.9187 12.35 63.1704 12.1696C64.3562 11.3739 65.9011 10.722 67.6976 10.7585C68.7756 10.7585 69.6023 11.5908 69.6023 12.64Z" fill="white"/>
<path d="M68.5479 19.766C68.584 14.8467 72.3929 10.7231 77.3152 10.7231C81.9865 10.7231 85.6873 14.2325 85.9752 19.1152V19.2955C85.9752 19.3686 85.9752 19.549 85.9392 19.621C85.8311 20.4897 85.0767 21.0685 84.0704 21.0685H72.6441C72.8237 21.9008 73.2189 22.8414 73.8659 23.4556C74.6205 24.3245 76.0577 24.9751 77.3152 25.0836C78.6087 25.192 80.1538 24.8667 81.0523 24.1795C81.8066 23.3837 83.2799 23.4922 83.7471 24.0698C84.2142 24.5779 84.5734 25.6624 83.7471 26.4216C81.9862 28.0495 79.8663 28.8087 77.3149 28.8087C72.3928 28.7733 68.584 24.6863 68.5479 19.766ZM72.4645 17.9941H82.6332C82.2739 16.5465 80.4414 14.4129 77.3152 14.1594C74.2613 14.3044 72.7521 16.5112 72.4645 17.9941Z" fill="white"/>
<path d="M104.281 26.8564C104.281 27.9055 103.419 28.8096 102.341 28.8096C101.371 28.8096 100.616 28.1225 100.437 27.2548C99.0712 28.1943 97.3465 28.8096 95.5497 28.8096C90.6991 28.8096 86.8184 24.6861 86.8184 19.8023C86.8184 14.8464 90.6991 10.723 95.5497 10.723C97.3106 10.723 99.035 11.3018 100.364 12.2425V5.44185C100.364 4.39269 101.227 3.48853 102.341 3.48853C103.419 3.48853 104.281 4.39269 104.281 5.44185V19.7657V19.8023V26.8564H104.281ZM95.5499 14.6661C94.2566 14.6661 93.0706 15.2084 92.1727 16.1491C91.2744 17.0533 90.7353 18.3546 90.7353 19.8023C90.7353 21.1767 91.2742 22.4793 92.1727 23.3836C93.0706 24.3242 94.2566 24.8665 95.5499 24.8665C96.8794 24.8665 98.0294 24.3242 98.9274 23.3836C99.8256 22.4793 100.365 21.1767 100.365 19.8023C100.365 18.3546 99.826 17.0533 98.9274 16.1491C98.0294 15.2084 96.8794 14.6661 95.5499 14.6661Z" fill="white"/>
<path d="M111.118 6.20099C111.118 7.28668 110.291 8.19086 109.178 8.19086C108.099 8.19086 107.237 7.28668 107.237 6.20099V5.44185C107.237 4.35616 108.099 3.48853 109.178 3.48853C110.291 3.48853 111.118 4.35616 111.118 5.44185V6.20099ZM111.118 12.7482V26.8564C111.118 27.9409 110.291 28.8096 109.178 28.8096C108.099 28.8096 107.237 27.9409 107.237 26.8564V12.7482C107.237 11.5918 108.099 10.7595 109.178 10.7595C110.291 10.7595 111.118 11.5918 111.118 12.7482Z" fill="white"/>
<path d="M113.586 23.6348C114.234 22.7671 115.492 22.6587 116.282 23.3459C117.216 24.1416 118.834 24.9728 120.233 24.9374C121.205 24.9374 122.102 24.612 122.678 24.2501C123.181 23.8163 123.324 23.4544 123.324 23.1644C123.324 22.984 123.288 22.9121 123.217 22.8025C123.18 22.6941 123.038 22.5502 122.749 22.3687C122.245 22.0068 121.168 21.6096 119.874 21.3561H119.839C118.724 21.1391 117.647 20.8504 116.712 20.4154C115.742 19.945 114.88 19.2944 114.234 18.3182C113.838 17.6663 113.623 16.8707 113.623 16.0384C113.623 14.3751 114.557 12.964 115.742 12.0599C117 11.1923 118.509 10.7219 120.162 10.7219C122.641 10.7219 124.403 11.9148 125.552 12.7106C126.415 13.2894 126.666 14.4836 126.127 15.3877C125.552 16.2553 124.367 16.5087 123.468 15.8934C122.319 15.1343 121.312 14.5555 120.162 14.5555C119.264 14.5555 118.474 14.8442 118.006 15.2062C117.54 15.5327 117.431 15.858 117.431 16.0384C117.431 16.1834 117.431 16.22 117.504 16.3284C117.54 16.4002 117.647 16.5453 117.899 16.6891C118.366 17.0144 119.3 17.341 120.522 17.5579L120.558 17.5944H120.594C121.78 17.8114 122.894 18.1368 123.935 18.6425C124.907 19.0774 125.876 19.7647 126.487 20.7773C126.917 21.4999 127.17 22.3321 127.17 23.1644C127.17 24.9374 126.201 26.4203 124.907 27.3598C123.613 28.264 121.995 28.8074 120.233 28.8074C117.431 28.7709 115.276 27.4694 113.839 26.3118C113.048 25.6611 112.94 24.4304 113.586 23.6348Z" fill="white"/>
<path d="M45.4469 31.4703C42.9227 32.7942 29.8463 38.2073 27.0624 39.6679C24.2785 41.1296 22.7321 41.1154 20.5329 40.0568C18.3339 38.9983 4.41823 33.3399 1.91163 32.134C0.658679 31.5304 0 31.0224 0 30.5414V25.7282C0 25.7282 18.116 21.7579 21.0409 20.7017C23.9654 19.6455 24.9801 19.6077 27.469 20.5249C29.9582 21.4433 44.8402 24.1462 47.3 25.0528C47.3 25.0528 47.299 29.3519 47.299 29.7975C47.2992 30.2737 46.7318 30.7961 45.4469 31.4703Z" fill="#E8E9EA"/>
<path d="M45.4474 26.6548C42.9233 27.9787 29.8469 33.3917 27.063 34.8535C24.2792 36.3141 22.7327 36.2999 20.5335 35.2414C18.334 34.184 4.41882 28.5244 1.91221 27.3184C-0.594447 26.1126 -0.647001 25.2826 1.81549 24.3124C4.2776 23.3411 18.1167 17.875 21.0417 16.8187C23.9664 15.7624 24.9811 15.7247 27.4698 16.6418C29.959 17.5602 42.9571 22.7683 45.4168 23.6759C47.8771 24.5836 47.9716 25.331 45.4474 26.6548Z" fill="white"/>
<path d="M45.4469 23.6207C42.9227 24.9456 29.8463 30.3576 27.0624 31.8193C24.2785 33.2812 22.7321 33.2658 20.5329 32.2084C18.3335 31.1499 4.41823 25.4915 1.91163 24.2844C0.658679 23.682 0 23.174 0 22.693V17.8798C0 17.8798 18.116 13.9095 21.0409 12.8533C23.9654 11.7971 24.9801 11.7582 27.469 12.6764C29.9582 13.5948 44.8402 16.2966 47.3 17.2044C47.3 17.2044 47.299 21.5023 47.299 21.9491C47.2992 22.4254 46.7318 22.9475 45.4469 23.6207Z" fill="#E8E9EA"/>
<path d="M45.4474 18.8061C42.9233 20.1311 29.8469 25.5431 27.063 27.0048C24.2792 28.4653 22.7327 28.4513 20.5335 27.3927C18.334 26.3352 4.41882 20.6757 1.91221 19.4698C-0.594447 18.2638 -0.647001 17.434 1.81549 16.4626C4.2776 15.4925 18.1167 10.0262 21.0417 8.96998C23.9664 7.91376 24.9811 7.87487 27.4698 8.79316C29.959 9.71147 42.9571 14.9195 45.4168 15.826C47.8771 16.7337 47.9716 17.4811 45.4474 18.8061Z" fill="white"/>
<path d="M45.4469 15.4805C42.9227 16.8055 29.8463 22.2187 27.0624 23.6792C24.2785 25.141 22.7321 25.1257 20.5329 24.0682C18.3335 23.0097 4.41823 17.3502 1.91163 16.1454C0.658679 15.5419 0 15.0338 0 14.5528V9.73969C0 9.73969 18.116 5.7694 21.0409 4.71317C23.9654 3.65695 24.9801 3.61923 27.469 4.53635C29.9582 5.45466 44.8402 8.15771 47.3 9.06422C47.3 9.06422 47.299 13.3634 47.299 13.809C47.2992 14.2852 46.7318 14.8062 45.4469 15.4805Z" fill="#E8E9EA"/>
<path d="M45.4474 10.6665C42.9233 11.9916 29.8469 17.4036 27.063 18.8653C24.2792 20.3258 22.7327 20.3116 20.5335 19.2531C18.3344 18.1957 4.41882 12.5362 1.91221 11.3302C-0.594447 10.1243 -0.647001 9.29439 1.81549 8.32305C4.2776 7.35288 18.1167 1.88666 21.0417 0.830426C23.9664 -0.225801 24.9811 -0.263507 27.4698 0.654796C29.959 1.57192 42.9571 6.77997 45.4168 7.68766C47.8771 8.59417 47.9716 9.3427 45.4474 10.6665Z" fill="white"/>
<path d="M23.3497 6.20205L18.6172 5.77298L22.1486 4.49159L21.0892 2.52295L24.3952 3.82557L27.5121 2.79761L26.6696 4.83228L29.8478 6.03114L25.7493 6.45903L24.8317 8.68112L23.3497 6.20205Z" fill="#E8E9EA"/>
<path d="M16.9385 13.6196L27.8994 11.9268L24.5879 16.813L16.9385 13.6196Z" fill="#E8E9EA"/>
<path d="M13.9833 11.838C17.2188 11.838 19.8416 10.8148 19.8416 9.55233C19.8416 8.28981 17.2188 7.2666 13.9833 7.2666C10.7479 7.2666 8.125 8.28981 8.125 9.55233C8.125 10.8148 10.7479 11.838 13.9833 11.838Z" fill="#E8E9EA"/>
<path d="M41.1794 9.22006L34.698 11.797L34.6924 6.63843L41.1794 9.22006Z" fill="#E8E9EA"/>
<path d="M34.6921 6.63843L34.6977 11.797L33.9942 12.0752L27.5156 9.4971L34.6921 6.63843Z" fill="#E8E9EA"/>
</svg>
