<svg width="141" height="22" viewBox="0 0 141 22" fill="none" xmlns="http://www.w3.org/2000/svg">
<path d="M18.7758 8.80785H12.611C12.118 8.74889 11.7426 8.31348 11.7426 7.80097V1.31519C11.7426 0.761863 11.2948 0.317383 10.7475 0.317383H8.59008C8.03827 0.317383 7.59502 0.766398 7.59502 1.31519V7.869C7.56788 8.36337 7.16081 8.7625 6.67233 8.80785H5.05763C4.58271 8.74889 4.21635 8.34977 4.18469 7.869V1.31519C4.18469 0.761863 3.73691 0.317383 3.18963 0.317383H1.03217C0.480362 0.317383 0.0371094 0.766398 0.0371094 1.31519V9.80567V20.2419C0.0371094 20.7952 0.484885 21.2397 1.03217 21.2397H3.18963H8.59008H10.7475H18.7804C19.3322 21.2397 19.7754 20.7907 19.7754 20.2419V9.80567C19.7709 9.25233 19.3276 8.80785 18.7758 8.80785ZM15.9354 15.9649C15.9354 16.5182 15.4876 16.9627 14.9404 16.9627H12.7829C12.2311 16.9627 11.7878 16.5137 11.7878 15.9649V13.9239C11.7878 13.3706 12.2356 12.9261 12.7829 12.9261H14.9404C15.4922 12.9261 15.9354 13.3751 15.9354 13.9239V15.9649Z" fill="white"/>
<path d="M34.1399 21.2579L33.1087 16.4321C32.9594 15.711 32.8011 15.0715 32.6202 14.5182C32.4438 13.9603 32.195 13.4931 31.8829 13.1121C31.5663 12.7312 31.1547 12.4454 30.6436 12.2459C30.1325 12.0508 29.4631 11.9511 28.6354 11.9511H26.4689V21.2579H24.1079V0.35376H29.2732C30.128 0.35376 30.9557 0.44447 31.7608 0.621355C32.5614 0.79824 33.2715 1.09305 33.8866 1.50124C34.5017 1.90944 34.9947 2.4537 35.3701 3.12949C35.7456 3.80528 35.931 4.63528 35.931 5.62402C35.931 6.38145 35.8405 7.05271 35.6641 7.62872C35.4877 8.20472 35.2209 8.70363 34.8681 9.1209C34.5153 9.53816 34.0721 9.89193 33.5474 10.1777C33.0227 10.4634 32.4031 10.6947 31.6975 10.8716V10.9306C32.385 11.1075 32.9368 11.3342 33.3484 11.6018C33.76 11.874 34.0901 12.196 34.3389 12.5724C34.5831 12.9489 34.7731 13.3797 34.9088 13.865C35.0445 14.3503 35.1711 14.9082 35.2978 15.5296L36.5009 21.2579H34.1399ZM33.5655 5.87347C33.5655 5.00719 33.4117 4.3314 33.1087 3.85517C32.8056 3.37894 32.3985 3.02517 31.901 2.7984C31.399 2.57162 30.8291 2.43556 30.1913 2.3902C29.5536 2.34485 28.8978 2.32217 28.2284 2.32217H26.4734V9.98718H27.7715C28.4816 9.98718 29.1782 9.93729 29.8747 9.83297C30.5713 9.72866 31.1864 9.52909 31.7337 9.23429C32.2809 8.93948 32.7242 8.52221 33.0634 7.98249C33.3936 7.44276 33.5655 6.73976 33.5655 5.87347Z" fill="white"/>
<path d="M47.3743 21.2578V19.3483H47.3155C47.1165 19.7248 46.8542 20.0513 46.5195 20.3325C46.1848 20.6137 45.8184 20.8496 45.4204 21.0355C45.0224 21.2215 44.6017 21.3621 44.1675 21.4573C43.7288 21.5526 43.3081 21.5979 42.9056 21.5979C42.286 21.5979 41.7341 21.5027 41.2547 21.3077C40.7708 21.1172 40.3682 20.845 40.0471 20.4958C39.7214 20.1466 39.4727 19.7202 39.3008 19.2213C39.1289 18.7224 39.043 18.1691 39.043 17.5568C39.043 17.0035 39.1515 16.5136 39.3686 16.0782C39.5857 15.6428 39.8707 15.2618 40.2325 14.9307C40.5898 14.5996 41.0059 14.3184 41.4809 14.0781C41.9558 13.8377 42.4443 13.6472 42.9508 13.5021C43.4574 13.3524 43.9685 13.2435 44.4796 13.1755C44.9907 13.1075 45.4701 13.0712 45.9089 13.0712C46.1531 13.0712 46.3928 13.0666 46.619 13.0621C46.8451 13.0576 47.0803 13.0304 47.3291 12.9805V12.6721C47.3291 12.1414 47.32 11.6107 47.3065 11.0801C47.2929 10.5494 47.2024 10.0732 47.0396 9.65141C46.8768 9.22961 46.6099 8.88491 46.2436 8.62638C45.8772 8.36786 45.3299 8.23633 44.6153 8.23633C44.1901 8.23633 43.8102 8.27715 43.471 8.35425C43.1317 8.43136 42.8378 8.55835 42.5935 8.73524C42.3493 8.91212 42.1503 9.14797 41.9965 9.44277C41.8427 9.73758 41.7387 10.1004 41.6799 10.5313H39.3912C39.4003 9.80108 39.5541 9.18425 39.8571 8.67627C40.1556 8.1683 40.5491 7.75557 41.0286 7.43354C41.5125 7.11152 42.0598 6.88021 42.6749 6.73054C43.2901 6.58087 43.9142 6.5083 44.5565 6.5083C46.1893 6.5083 47.4014 6.88021 48.193 7.6195C48.9845 8.35879 49.3825 9.53348 49.3825 11.1391V21.2578H47.3743ZM46.1034 14.7176C45.642 14.7176 45.1354 14.7675 44.5927 14.8718C44.0499 14.9761 43.5388 15.1439 43.0639 15.3843C42.589 15.6247 42.1955 15.9331 41.8744 16.3231C41.5532 16.7132 41.3949 17.194 41.3949 17.7654C41.3949 18.3777 41.5804 18.8812 41.9467 19.2758C42.3176 19.6703 42.8061 19.8654 43.4167 19.8654C43.7785 19.8654 44.1313 19.8109 44.466 19.693C44.8007 19.5796 45.1128 19.4254 45.4023 19.2259C45.6918 19.0308 45.9541 18.7905 46.1938 18.5138C46.429 18.2371 46.6235 17.9378 46.7682 17.6112C46.8858 17.3436 46.9808 17.0987 47.0577 16.881C47.1346 16.6633 47.1889 16.4365 47.2296 16.2143C47.2703 15.992 47.2929 15.7653 47.3019 15.5249C47.311 15.289 47.3155 15.0169 47.3155 14.713H46.1034V14.7176Z" fill="white"/>
<path d="M64.9281 14.2007C64.9281 15.1486 64.8331 16.0648 64.6386 16.9537C64.4441 17.8427 64.123 18.6319 63.6707 19.3213C63.2184 20.0107 62.6259 20.564 61.8932 20.9767C61.1605 21.3894 60.2468 21.5981 59.1568 21.5981C58.1436 21.5981 57.2933 21.4393 56.6058 21.1264C55.9183 20.8089 55.362 20.3735 54.9459 19.8111C54.5298 19.2487 54.2267 18.5865 54.0458 17.82C53.8649 17.058 53.7744 16.2235 53.7744 15.3255V0.35376H55.8233V9.22975H55.8957C56.0223 8.79434 56.2168 8.41336 56.4701 8.07773C56.7279 7.7421 57.0264 7.4609 57.3702 7.22505C57.7139 6.99374 58.0939 6.81686 58.5055 6.6944C58.9171 6.57194 59.3467 6.50844 59.79 6.50844C60.4775 6.50844 61.0836 6.6173 61.6037 6.83954C62.1239 7.06178 62.5761 7.36566 62.9516 7.75117C63.3315 8.13669 63.6481 8.58117 63.9014 9.08915C64.1592 9.59713 64.3582 10.1369 64.5075 10.7083C64.6567 11.2798 64.7608 11.8649 64.8241 12.4636C64.8964 13.0577 64.9281 13.6383 64.9281 14.2007ZM62.5671 14.1462C62.5671 13.8106 62.549 13.4342 62.5174 13.0169C62.4812 12.5996 62.4224 12.1688 62.341 11.7333C62.2595 11.2934 62.1419 10.8671 61.9927 10.4498C61.8434 10.0325 61.6535 9.66062 61.4183 9.33407C61.1831 9.00751 60.8981 8.74445 60.5634 8.54489C60.2287 8.34079 59.8397 8.24101 59.3965 8.24101C58.9261 8.24101 58.5055 8.34986 58.1436 8.56756C57.7818 8.78527 57.4652 9.07101 57.1983 9.42478C56.9315 9.77855 56.7098 10.1822 56.5334 10.6358C56.357 11.0893 56.2168 11.5519 56.1128 12.0236C56.0088 12.4953 55.9364 12.9579 55.8912 13.4115C55.8459 13.865 55.8233 14.2687 55.8233 14.6225C55.8233 15.1758 55.864 15.7563 55.9409 16.3641C56.0178 16.9764 56.1761 17.5433 56.4068 18.0649C56.6375 18.5865 56.9676 19.0174 57.3973 19.3575C57.827 19.6977 58.3924 19.8655 59.1025 19.8655C59.5729 19.8655 59.989 19.7748 60.3508 19.5979C60.7082 19.421 61.0157 19.1807 61.2735 18.8813C61.5313 18.582 61.7394 18.2327 61.9067 17.8381C62.0741 17.4436 62.2053 17.0354 62.3048 16.6136C62.4043 16.1918 62.4721 15.7654 62.5128 15.3436C62.549 14.9218 62.5671 14.5227 62.5671 14.1462Z" fill="white"/>
<path d="M79.4603 14.2007C79.4603 15.1486 79.3653 16.0648 79.1708 16.9537C78.9764 17.8427 78.6552 18.6319 78.2029 19.3213C77.7506 20.0107 77.1581 20.564 76.4254 20.9767C75.6927 21.3894 74.779 21.5981 73.689 21.5981C72.6758 21.5981 71.8255 21.4393 71.138 21.1264C70.4505 20.8089 69.8942 20.3735 69.4781 19.8111C69.062 19.2487 68.7589 18.5865 68.578 17.82C68.3971 17.058 68.3066 16.2235 68.3066 15.3255V0.35376H70.3556V9.22975H70.4279C70.5546 8.79434 70.7491 8.41336 71.0023 8.07773C71.2601 7.7421 71.5587 7.4609 71.9024 7.22505C72.2462 6.99374 72.6261 6.81686 73.0377 6.6944C73.4493 6.57194 73.879 6.50844 74.3222 6.50844C75.0097 6.50844 75.6158 6.6173 76.1359 6.83954C76.6561 7.06178 77.1084 7.36566 77.4838 7.75117C77.8637 8.13669 78.1803 8.58117 78.4336 9.08915C78.6914 9.59713 78.8904 10.1369 79.0397 10.7083C79.1889 11.2798 79.293 11.8649 79.3563 12.4636C79.4287 13.0577 79.4603 13.6383 79.4603 14.2007ZM77.0993 14.1462C77.0993 13.8106 77.0812 13.4342 77.0496 13.0169C77.0134 12.5996 76.9546 12.1688 76.8732 11.7333C76.7918 11.2934 76.6742 10.8671 76.5249 10.4498C76.3756 10.0325 76.1857 9.66062 75.9505 9.33407C75.7153 9.00751 75.4303 8.74445 75.0956 8.54489C74.7609 8.34079 74.372 8.24101 73.9287 8.24101C73.4583 8.24101 73.0377 8.34986 72.6758 8.56756C72.314 8.78527 71.9974 9.07101 71.7305 9.42478C71.4637 9.77855 71.2421 10.1822 71.0657 10.6358C70.8893 11.0893 70.7491 11.5519 70.645 12.0236C70.541 12.4953 70.4686 12.9579 70.4234 13.4115C70.3782 13.865 70.3556 14.2687 70.3556 14.6225C70.3556 15.1758 70.3963 15.7563 70.4731 16.3641C70.55 16.9764 70.7083 17.5433 70.939 18.0649C71.1697 18.5865 71.4999 19.0174 71.9296 19.3575C72.3592 19.6977 72.9246 19.8655 73.6347 19.8655C74.1051 19.8655 74.5212 19.7748 74.8831 19.5979C75.2404 19.421 75.5479 19.1807 75.8057 18.8813C76.0636 18.582 76.2716 18.2327 76.439 17.8381C76.6063 17.4436 76.7375 17.0354 76.837 16.6136C76.9365 16.1918 77.0043 15.7654 77.045 15.3436C77.0812 14.9218 77.0993 14.5227 77.0993 14.1462Z" fill="white"/>
<path d="M83.0879 3.07506V0.35376H85.8017V3.07506H83.0879ZM83.4135 21.2579V6.835H85.4625V21.2579H83.4135Z" fill="white"/>
<path d="M93.5627 8.56289V17.4389C93.5627 18.2099 93.7482 18.8041 94.1236 19.2304C94.499 19.6567 95.096 19.8654 95.9147 19.8654C96.1996 19.8654 96.4439 19.8427 96.6384 19.7973C96.8374 19.752 97.0635 19.6794 97.3213 19.5842V21.4347C97.0183 21.4846 96.7153 21.5254 96.4122 21.5526C96.1137 21.5843 95.8107 21.5979 95.5031 21.5979C94.8247 21.5979 94.2367 21.5344 93.7391 21.4075C93.2416 21.2805 92.8255 21.0718 92.4908 20.777C92.1561 20.4867 91.9073 20.1058 91.7445 19.6295C91.5817 19.1533 91.5003 18.5682 91.5003 17.8698V8.56289H89.1528V6.83033H91.5003V3.47405L93.5492 2.17236V6.83033H97.4299V8.56289H93.5627Z" fill="white"/>
<path d="M117.566 21.3148V2.92332H117.508L111.37 21.3103H109.041L102.916 2.92332H102.844V21.3103H100.736V0.410645H104.278L110.194 18.1944H110.253L116.182 0.410645H119.679V21.3148H117.566Z" fill="#E8E9EA"/>
<path d="M131.303 21.3218C130.33 21.3218 129.467 21.1767 128.72 20.8864C127.974 20.5961 127.318 20.197 126.757 19.689C126.196 19.1811 125.726 18.5869 125.342 17.9066C124.957 17.2263 124.65 16.5006 124.414 15.725C124.179 14.9494 124.007 14.1466 123.903 13.3121C123.799 12.4776 123.75 11.6521 123.75 10.8357C123.75 9.96944 123.795 9.10316 123.89 8.24141C123.985 7.37966 124.138 6.54967 124.36 5.74688C124.582 4.9441 124.88 4.20481 125.251 3.51088C125.627 2.82148 126.097 2.22279 126.667 1.71481C127.237 1.20684 127.915 0.807713 128.693 0.51744C129.476 0.227168 130.389 0.0820312 131.43 0.0820312C132.443 0.0820312 133.329 0.231703 134.094 0.531047C134.853 0.83039 135.509 1.24312 136.057 1.76017C136.604 2.27722 137.056 2.88498 137.413 3.58798C137.771 4.28645 138.056 5.03481 138.264 5.82852C138.472 6.62223 138.617 7.4477 138.698 8.30491C138.779 9.16212 138.825 10.0057 138.825 10.8357C138.825 11.2394 138.811 11.702 138.779 12.2191C138.748 12.7361 138.698 13.2758 138.626 13.8382C138.553 14.4006 138.449 14.9676 138.318 15.539C138.187 16.1105 138.015 16.6502 137.807 17.1537C137.599 17.6571 137.35 18.1152 137.061 18.5279C136.771 18.9407 136.432 19.2672 136.052 19.5031L136.111 19.562L140.403 19.2944V21.3218H131.303ZM136.26 10.804C136.26 10.2597 136.242 9.66556 136.21 9.02152C136.174 8.37748 136.102 7.7289 135.989 7.08486C135.876 6.44081 135.708 5.81038 135.496 5.20716C135.283 4.60393 134.989 4.06421 134.632 3.59251C134.27 3.12536 133.831 2.74891 133.311 2.46771C132.791 2.18651 132.162 2.04591 131.434 2.04591C130.665 2.04591 130.009 2.18197 129.462 2.4541C128.915 2.72623 128.453 3.08907 128.073 3.54716C127.694 4.00525 127.391 4.53137 127.155 5.13005C126.925 5.72874 126.748 6.3501 126.622 7.00322C126.499 7.65633 126.418 8.30944 126.377 8.96256C126.337 9.62021 126.319 10.2325 126.319 10.804C126.319 11.3482 126.341 11.9333 126.391 12.5638C126.441 13.1942 126.527 13.8246 126.658 14.4596C126.784 15.09 126.965 15.7023 127.196 16.2919C127.427 16.8816 127.725 17.4077 128.092 17.8612C128.458 18.3148 128.901 18.6776 129.421 18.9497C129.941 19.2219 130.561 19.3579 131.267 19.3579C132.063 19.3579 132.741 19.2309 133.298 18.9724C133.854 18.7139 134.315 18.3692 134.686 17.9383C135.057 17.5029 135.346 17.004 135.559 16.4371C135.772 15.8701 135.93 15.2669 136.034 14.6319C136.138 13.997 136.201 13.3484 136.224 12.6953C136.247 12.0331 136.26 11.4027 136.26 10.804Z" fill="#E8E9EA"/>
</svg>
