<svg width="220" height="55" viewBox="0 0 220 55" fill="none" xmlns="http://www.w3.org/2000/svg">
<path d="M87.0157 19.2057C84.9754 19.2057 83.3697 19.8887 82.1987 21.255C81.0279 22.621 80.4423 24.4927 80.4423 26.8703C80.4423 29.23 80.9834 31.1017 82.0657 32.4855C83.1657 33.8517 84.8069 34.5347 86.9891 34.5347C87.823 34.5347 88.6126 34.4637 89.3577 34.3218C90.1029 34.18 90.8303 34.0024 91.54 33.7896V35.8654C90.8303 36.1314 90.094 36.3267 89.331 36.4508C88.586 36.575 87.69 36.6371 86.6433 36.6371C84.7093 36.6371 83.0947 36.238 81.7996 35.4396C80.5044 34.6411 79.5287 33.5057 78.8723 32.0331C78.2334 30.5604 77.9141 28.8307 77.9141 26.8437C77.9141 24.9274 78.26 23.242 78.952 21.7871C79.6617 20.3146 80.6996 19.1703 82.0657 18.3541C83.4319 17.5203 85.0907 17.1033 87.0423 17.1033C89.0473 17.1033 90.7947 17.4758 92.285 18.221L91.327 20.2437C90.7416 19.9774 90.0851 19.738 89.3577 19.525C88.648 19.3121 87.8673 19.2057 87.0157 19.2057Z" fill="white"/>
<path d="M98.507 36.3711H96.165V16.1453H98.507V36.3711Z" fill="white"/>
<path d="M105.023 16.7573C105.377 16.7573 105.688 16.8815 105.954 17.1299C106.238 17.3606 106.38 17.7331 106.38 18.2477C106.38 18.7444 106.238 19.117 105.954 19.3654C105.688 19.6138 105.377 19.738 105.023 19.738C104.632 19.738 104.304 19.6138 104.038 19.3654C103.772 19.117 103.639 18.7444 103.639 18.2477C103.639 17.7331 103.772 17.3606 104.038 17.1299C104.304 16.8815 104.632 16.7573 105.023 16.7573ZM106.167 22.1065V36.371H103.825V22.1065H106.167Z" fill="white"/>
<path d="M117.207 36.6371C115.947 36.6371 114.82 36.3799 113.827 35.8653C112.851 35.3507 112.079 34.5524 111.512 33.4703C110.962 32.388 110.687 31.004 110.687 29.3186C110.687 27.5621 110.979 26.1339 111.565 25.0339C112.15 23.9339 112.94 23.1266 113.933 22.6121C114.945 22.0976 116.089 21.8403 117.366 21.8403C118.094 21.8403 118.795 21.9203 119.469 22.0799C120.143 22.2217 120.693 22.3993 121.119 22.6121L120.4 24.5549C119.974 24.3953 119.478 24.2443 118.91 24.1024C118.342 23.9606 117.81 23.8896 117.313 23.8896C114.51 23.8896 113.108 25.6903 113.108 29.292C113.108 31.013 113.445 32.3347 114.12 33.2573C114.812 34.1621 115.832 34.6146 117.18 34.6146C117.961 34.6146 118.644 34.5347 119.229 34.375C119.833 34.2153 120.383 34.0203 120.879 33.7896V35.8653C120.4 36.1137 119.868 36.3 119.283 36.4243C118.715 36.5661 118.023 36.6371 117.207 36.6371Z" fill="white"/>
<path d="M127.386 16.1453V26.7105C127.386 26.9944 127.368 27.3671 127.332 27.8284C127.315 28.2897 127.297 28.6888 127.279 29.0258H127.386C127.492 28.884 127.652 28.68 127.865 28.4138C128.077 28.1477 128.29 27.8815 128.503 27.6154C128.734 27.3315 128.929 27.1008 129.089 26.9235L133.64 22.1065H136.381L130.606 28.2008L136.78 36.3711H133.959L129.009 29.7178L127.386 31.1284V36.3711H125.07V16.1453H127.386Z" fill="white"/>
<path d="M154.934 36.371H152.539V27.509H142.798V36.371H140.403V17.3694H142.798V25.4064H152.539V17.3694H154.934V36.371Z" fill="white"/>
<path d="M173.01 29.2121C173.01 31.5717 172.407 33.3993 171.201 34.6943C170.012 35.9896 168.398 36.6371 166.357 36.6371C165.098 36.6371 163.971 36.3533 162.977 35.7854C162.002 35.2 161.23 34.3573 160.662 33.2573C160.094 32.1396 159.811 30.7911 159.811 29.2121C159.811 26.8524 160.405 25.0339 161.594 23.7564C162.782 22.479 164.397 21.8403 166.437 21.8403C167.732 21.8403 168.868 22.133 169.844 22.7186C170.837 23.2863 171.609 24.1203 172.159 25.2203C172.726 26.3024 173.01 27.633 173.01 29.2121ZM162.232 29.2121C162.232 30.8976 162.561 32.2371 163.217 33.2307C163.891 34.2064 164.956 34.6943 166.411 34.6943C167.848 34.6943 168.903 34.2064 169.577 33.2307C170.252 32.2371 170.589 30.8976 170.589 29.2121C170.589 27.5266 170.252 26.2049 169.577 25.2467C168.903 24.2887 167.839 23.8097 166.384 23.8097C164.929 23.8097 163.873 24.2887 163.217 25.2467C162.561 26.2049 162.232 27.5266 162.232 29.2121Z" fill="white"/>
<path d="M189.442 22.1064V36.371H187.526L187.18 34.4814H187.074C186.613 35.2267 185.974 35.7767 185.157 36.1314C184.341 36.4687 183.473 36.6371 182.55 36.6371C180.83 36.6371 179.534 36.2291 178.664 35.413C177.794 34.5791 177.359 33.2574 177.359 31.4477V22.1064H179.73V31.288C179.73 33.559 180.785 34.6944 182.895 34.6944C184.475 34.6944 185.566 34.2508 186.17 33.3637C186.79 32.4767 187.101 31.1993 187.101 29.5314V22.1064H189.442Z" fill="white"/>
<path d="M204.056 32.4323C204.056 33.8161 203.543 34.863 202.513 35.5726C201.485 36.2823 200.1 36.6371 198.362 36.6371C197.369 36.6371 196.508 36.5573 195.781 36.3976C195.071 36.238 194.442 36.0161 193.89 35.7323V33.6033C194.459 33.8871 195.141 34.1533 195.941 34.4016C196.757 34.6323 197.582 34.7476 198.416 34.7476C199.603 34.7476 200.464 34.5613 200.997 34.1887C201.528 33.7984 201.795 33.2839 201.795 32.6453C201.795 32.2903 201.697 31.971 201.502 31.6871C201.306 31.4033 200.952 31.1193 200.438 30.8354C199.94 30.5516 199.222 30.2323 198.281 29.8774C197.36 29.5226 196.57 29.1677 195.913 28.813C195.256 28.458 194.751 28.0323 194.397 27.5354C194.041 27.0387 193.864 26.4 193.864 25.6193C193.864 24.413 194.352 23.4814 195.329 22.825C196.322 22.1686 197.616 21.8403 199.213 21.8403C200.083 21.8403 200.891 21.929 201.635 22.1064C202.398 22.2661 203.108 22.4967 203.764 22.7984L202.965 24.6613C202.363 24.413 201.733 24.2 201.076 24.0226C200.42 23.8453 199.746 23.7564 199.053 23.7564C198.096 23.7564 197.36 23.9161 196.845 24.2356C196.348 24.5371 196.1 24.954 196.1 25.4863C196.1 25.8766 196.216 26.2137 196.446 26.4976C196.676 26.7637 197.058 27.0299 197.591 27.296C198.141 27.5443 198.868 27.846 199.772 28.2007C200.677 28.538 201.449 28.8839 202.088 29.2387C202.726 29.5936 203.214 30.0283 203.551 30.5427C203.888 31.0396 204.056 31.6693 204.056 32.4323Z" fill="white"/>
<path d="M213.811 21.8403C215.036 21.8403 216.083 22.1064 216.953 22.6387C217.84 23.171 218.513 23.925 218.974 24.9007C219.454 25.8589 219.693 26.9854 219.693 28.2807V29.6911H209.927C209.961 31.3057 210.37 32.5387 211.15 33.3903C211.95 34.2243 213.058 34.6411 214.478 34.6411C215.382 34.6411 216.179 34.5613 216.872 34.4016C217.582 34.2243 218.309 33.9757 219.055 33.6564V35.7057C218.328 36.025 217.608 36.2557 216.9 36.3976C216.19 36.5573 215.346 36.6371 214.371 36.6371C213.022 36.6371 211.824 36.3621 210.777 35.8121C209.75 35.2621 208.942 34.446 208.356 33.3637C207.788 32.2637 207.505 30.9243 207.505 29.3453C207.505 27.7839 207.761 26.4443 208.277 25.3266C208.808 24.2089 209.545 23.3484 210.485 22.7453C211.443 22.142 212.553 21.8403 213.811 21.8403ZM213.785 23.7564C212.668 23.7564 211.779 24.1203 211.125 24.8476C210.485 25.5573 210.104 26.5507 209.98 27.8283H217.245C217.228 26.6217 216.943 25.646 216.393 24.9007C215.843 24.138 214.975 23.7564 213.785 23.7564Z" fill="white"/>
<path d="M13.3066 0H19.8712V55H13.3066V0Z" fill="white"/>
<path d="M39.9189 0H46.4835V55H39.9189V0Z" fill="white"/>
<path d="M26.6133 0H33.1777V55H26.6133V0Z" fill="white"/>
<path d="M53.2256 23.0645H59.79V32.4677H53.2256V23.0645Z" fill="white"/>
<path d="M0 0H6.56451V55H0V0Z" fill="white"/>
<path d="M0 48.7903H6.56451V55H0V48.7903Z" fill="#E8E9EA"/>
</svg>
