<svg width="92" height="64" viewBox="0 0 92 64" fill="none" xmlns="http://www.w3.org/2000/svg">
<path d="M13.9362 3.96701C14.3852 3.61409 14.9694 3.33523 15.5545 3.43123C16.135 3.57112 16.7477 3.79603 17.0983 4.30712C17.7091 5.16381 17.6098 6.37981 16.9796 7.19901L16.9317 7.15146C16.7901 7.01066 16.6521 6.86072 16.4809 6.75466C16.2923 6.63123 15.9915 6.73638 15.94 6.95946C15.8728 7.28678 16.0311 7.59946 16.1893 7.87649C15.6327 7.98986 15.0273 8.06575 14.4901 7.83444C13.6851 7.50529 13.0631 6.72084 12.9941 5.85135C13.0383 5.13363 13.433 4.46803 13.9362 3.96701Z" fill="#E8E9EA"/>
<path d="M22.3769 13.76C22.836 13.6814 23.2665 13.472 23.7367 13.4528C24.779 13.4172 25.8435 13.4812 26.8352 13.8277C27.125 13.9319 27.4111 14.0901 27.5823 14.3561C27.1535 14.432 26.7543 14.6057 26.3504 14.7575C24.756 15.3792 23.1893 16.0741 21.6851 16.8878C21.0227 17.2489 20.3593 17.621 19.788 18.1166C19.3786 18.4777 18.8956 18.7593 18.5488 19.1863C18.4301 18.0782 18.6546 16.9051 19.3335 16C19.6289 15.5209 20.1091 15.2119 20.4955 14.8151C21.03 14.326 21.6924 13.9913 22.3769 13.76Z" fill="#E8E9EA"/>
<path d="M51.8893 20.117C52.3015 19.732 52.8912 19.5675 53.4478 19.6388C54.1295 19.743 54.7247 20.2276 54.9971 20.8529C55.3577 21.6932 55.1305 22.7656 54.3825 23.3243C53.7035 23.8472 52.6667 23.8289 52.0227 23.2566C52.3484 22.9549 52.7164 22.5389 52.6078 22.0644C52.2831 21.6484 51.6372 21.7078 51.2195 21.9473C51.1202 21.2772 51.3548 20.5521 51.8893 20.117Z" fill="#E8E9EA"/>
<path d="M45.4717 21.6987C46.7514 21.5743 47.8618 22.3725 48.8076 23.1268C49.2786 23.5885 49.6089 24.1956 49.735 24.8411C49.8904 25.7426 49.8417 26.677 49.5243 27.54C49.2612 28.3967 48.8214 29.3256 47.964 29.7215C47.9538 29.2251 47.8407 28.7396 47.756 28.2523C47.3936 26.3323 46.8305 24.4443 46.0071 22.6687C45.859 22.3295 45.6925 21.9976 45.4717 21.6987Z" fill="#E8E9EA"/>
<path d="M13.1687 36.4049C13.8477 36.1544 14.5892 36.3912 15.1734 36.7633C16.4559 37.5057 17.6703 38.4145 18.5719 39.5994C19.1763 40.3975 19.7117 41.2524 20.1405 42.1566C20.4441 42.8177 20.6833 43.5253 20.6989 44.2577C20.7182 44.9617 20.2812 45.5815 19.7826 46.0405C19.214 46.5013 18.6565 46.9868 18.0097 47.3379C17.1781 47.7722 16.2001 47.987 15.2672 47.8133C14.1227 47.6231 13.0509 47.0773 12.1834 46.3185C12.4953 46.1201 12.8439 45.8439 12.8439 45.4398C12.9074 44.6837 12.1604 44.0263 11.4207 44.0821C11.1392 44.2055 10.9607 44.4762 10.7583 44.6947C10.2928 43.9697 9.92661 43.1185 10.0113 42.2426C10.2468 40.6874 10.7611 39.1459 11.6967 37.8632C11.7951 37.7461 11.8053 37.5916 11.8191 37.4471C12.2929 37.129 12.613 36.6024 13.1687 36.4049Z" fill="#E8E9EA"/>
<path d="M4.18738 47.8535C4.6345 46.8944 5.6557 46.2425 6.71646 46.2371C7.41014 46.2965 8.06426 46.5625 8.68342 46.8633C9.1149 47.0846 9.40746 47.5043 9.55282 47.9559C9.91806 48.9616 9.7129 50.1301 9.04958 50.9676C8.6365 51.464 8.13326 51.9303 7.48374 52.0839C6.51866 52.3674 5.45514 52.0199 4.75502 51.3269C3.92058 50.408 3.61606 48.9836 4.18738 47.8535Z" fill="#E8E9EA"/>
<path d="M15.9397 6.95961C15.9912 6.73652 16.292 6.63138 16.4806 6.7548C16.6518 6.86086 16.7898 7.01081 16.9314 7.15161C17.189 7.4652 17.488 7.73949 17.7659 8.0348C18.8966 9.27 19.9141 10.6012 20.9868 11.8849C21.479 12.481 21.9666 13.0807 22.4478 13.686L22.376 13.7601C21.6915 13.9914 21.0291 14.326 20.4946 14.8151C20.2646 14.5802 20.1082 14.2922 19.9334 14.0179C18.983 12.5102 18.0603 10.9843 17.2019 9.42269C16.8992 8.88509 16.5 8.40875 16.189 7.87663C16.0308 7.5996 15.8725 7.28692 15.9397 6.95961Z" fill="#DADCDE"/>
<path d="M51.2189 21.9476C51.6366 21.708 52.2824 21.6486 52.6072 22.0646C52.7157 22.5391 52.3477 22.9551 52.022 23.2568C51.309 23.8484 50.5592 24.4125 49.734 24.8413C49.608 24.1958 49.2777 23.5887 48.8066 23.127C49.5601 22.636 50.4461 22.4047 51.2189 21.9476Z" fill="#DADCDE"/>
<path d="M10.7572 44.695C10.9596 44.4765 11.1381 44.2058 11.4196 44.0824C12.1593 44.0266 12.9063 44.684 12.8429 45.4401C12.8429 45.8442 12.4942 46.1204 12.1823 46.3188C11.7481 46.5839 11.3 46.8253 10.875 47.1051C10.4325 47.3867 10.0249 47.7222 9.55202 47.9563C9.40666 47.5046 9.1141 47.0849 8.68262 46.8637C9.2199 46.007 10.1003 45.4493 10.7572 44.695Z" fill="#DADCDE"/>
<path d="M29.7227 13.9565C30.8672 13.7745 32.0291 13.823 33.1837 13.8413C36.5739 14.0708 39.9559 15.3663 42.4086 17.7425C42.7536 17.9784 42.9643 18.346 43.2688 18.6239C44.1354 19.5483 44.7969 20.6353 45.4713 21.6987C45.6921 21.9976 45.8586 22.3295 46.0067 22.6687C46.8301 24.4443 47.3931 26.3323 47.7556 28.2523C47.8403 28.7396 47.9534 29.225 47.9635 29.7215C47.9221 30.5773 48.1135 31.4331 47.9948 32.287C47.9369 32.7496 47.9893 33.2196 47.9037 33.6785C47.7713 34.5407 47.3904 35.3352 47.0058 36.1096C46.8218 36.4954 46.417 36.6884 46.0785 36.9169C45.7335 37.14 45.2762 37.3439 44.8751 37.1391C44.2412 36.7807 43.9358 36.0639 43.7913 35.3855C43.6322 34.7565 43.6874 34.1055 43.6782 33.4646C43.5779 31.6744 43.4776 29.8705 43.0783 28.116C42.8106 26.9659 42.3525 25.8065 41.4591 24.9928C40.8933 24.5183 40.2457 24.1352 39.5501 23.8829C38.5096 23.5757 37.4249 23.3974 36.3375 23.4203C35.0247 23.391 33.7311 23.6644 32.468 23.9926C31.1901 24.3227 29.9831 24.8639 28.7907 25.4189C27.8441 25.8175 26.9489 26.3195 26.039 26.7921C25.5293 27.0655 25.0252 27.3526 24.5661 27.7046C23.7353 28.3345 22.842 28.906 22.1612 29.706C21.4786 30.506 20.8723 31.4202 20.6653 32.4653C20.4049 34.0031 20.7012 35.5848 21.2523 37.0294C21.8825 38.6239 22.8236 40.0913 23.9893 41.3521C24.7952 42.356 25.8679 43.0911 26.9084 43.8335C27.4779 44.2047 27.8514 44.8612 27.856 45.5405C27.8027 46.1073 27.3675 46.5517 26.9185 46.8616C26.4346 47.1588 25.8688 47.3517 25.2957 47.3343C23.9534 47.3224 22.6001 47.1633 21.3259 46.7318C20.7886 46.5526 20.2945 46.2756 19.7821 46.0406C20.2807 45.5816 20.7177 44.9617 20.6984 44.2577C20.6828 43.5254 20.4436 42.8177 20.14 42.1567C19.7113 41.2525 19.1758 40.3976 18.5714 39.5994C17.6698 38.4145 16.4554 37.5057 15.1729 36.7633C14.5887 36.3912 13.8472 36.1544 13.1682 36.4049C12.6125 36.6024 12.2924 37.129 11.8186 37.4472C11.6797 37.0458 11.745 36.6134 11.6889 36.1992C11.6189 35.7156 11.6576 35.2264 11.6107 34.7418C11.5361 34.0735 11.572 33.3997 11.5601 32.7286C11.5407 31.4166 11.5656 30.0973 11.7689 28.7981C11.9658 27.5921 12.4644 26.4603 13.0293 25.3841C13.642 24.2449 14.424 23.199 15.3072 22.2518C15.7902 21.6996 16.3054 21.172 16.8795 20.7131C17.3956 20.1599 18.0654 19.7695 18.5484 19.1862C18.8952 18.7592 19.3782 18.4776 19.7876 18.1165C20.3589 17.6209 21.0223 17.2488 21.6847 16.8877C23.1889 16.074 24.7556 15.3791 26.35 14.7574C26.7539 14.6056 27.1531 14.4319 27.5819 14.356C28.3096 14.3021 28.9959 14.0205 29.7227 13.9565Z" fill="#BDBEBE"/>
<path d="M32.4614 34.8105C32.9683 33.8011 34.4587 33.6494 35.3042 34.3104C35.8635 34.7602 36.019 35.5163 36.0255 36.1975C36.0337 38.1147 36.0301 40.032 36.0273 41.9493C36.6915 41.2197 37.4386 40.5257 38.365 40.1435C39.5233 39.6645 40.8297 39.5648 42.057 39.7998C43.3404 40.0448 44.518 40.8375 45.1583 41.9785C45.7949 42.9778 45.8713 44.1966 45.8952 45.3476C45.8998 47.786 45.8943 50.2244 45.898 52.6628C45.9072 53.2553 45.8649 53.8825 45.5447 54.4C44.9228 55.4432 43.1693 55.5291 42.459 54.5435C42.1241 54.0489 42.0597 53.4327 42.0561 52.8521C42.0542 50.7163 42.0561 48.5806 42.0551 46.4448C42.045 45.4363 41.9677 44.3685 41.436 43.4825C40.9659 42.7438 40.0026 42.5618 39.1866 42.6185C37.7385 42.6926 36.4763 43.8702 36.2076 45.269C36.0751 45.9575 36.0466 46.6615 36.031 47.3609C36.0255 49.2197 36.0347 51.0784 36.0264 52.9381C36.019 53.5799 35.8865 54.2811 35.4008 54.7438C34.9334 55.2037 34.2195 55.2942 33.5967 55.1826C33.1946 55.1122 32.8147 54.8955 32.5828 54.5582C32.2553 54.09 32.1771 53.5013 32.1707 52.9445C32.1716 47.5776 32.1716 42.2116 32.1716 36.8448C32.1688 36.1618 32.1311 35.435 32.4614 34.8105Z" fill="white"/>
<path d="M85.9677 34.1578C86.5436 34.0206 87.1811 34.1294 87.6605 34.4814C88.4581 35.0208 88.5538 36.2076 88.103 36.9966C87.4654 38.0261 85.8517 38.1321 85.0109 37.2965C84.5509 36.8567 84.4395 36.1655 84.5527 35.5639C84.6852 34.8682 85.2915 34.326 85.9677 34.1578Z" fill="white"/>
<path d="M52.7275 40.1445C54.4258 39.5255 56.2769 39.5173 58.0571 39.6663C59.4012 39.8062 60.853 40.1363 61.7996 41.1694C62.7104 42.1834 62.9147 43.6078 62.9855 44.9162C63.0177 46.6149 62.9782 48.3146 62.9736 50.0133C62.9772 50.9203 63.2146 51.8026 63.4805 52.6629C63.6056 53.1612 63.8209 53.7162 63.5596 54.2081C63.2137 54.8563 62.4639 55.2933 61.7205 55.2156C61.3507 55.1745 61.0241 54.9678 60.7573 54.721C60.2347 54.2318 59.8456 53.6257 59.4628 53.0277C58.2126 54.0033 56.8013 54.8727 55.2051 55.1178C53.7993 55.3363 52.273 55.2631 51.0228 54.5271C49.962 53.9319 49.18 52.8622 48.9693 51.6673C48.8056 50.7146 48.9399 49.6887 49.4468 48.854C49.9013 48.1015 50.6097 47.5164 51.4138 47.1626C52.2583 46.7749 53.1921 46.6652 54.091 46.4622C55.8086 46.1185 57.5207 45.7418 59.2043 45.259C59.1648 44.4517 59.0599 43.5831 58.5539 42.9203C58.0681 42.3681 57.2732 42.2812 56.5805 42.2483C55.6172 42.2346 54.5519 42.2839 53.769 42.9139C53.0468 43.4487 52.6926 44.2981 52.1534 44.9884C51.9188 45.2801 51.5012 45.2828 51.158 45.2874C50.4533 45.2956 49.7384 44.7927 49.6188 44.0833C49.5278 43.4405 49.7145 42.785 50.0338 42.2282C50.6023 41.2014 51.6539 40.5523 52.7275 40.1445ZM54.5537 48.6803C53.9585 48.8421 53.3678 49.163 53.0127 49.6769C52.5619 50.4311 52.7588 51.4789 53.424 52.0485C54.0404 52.6291 54.9502 52.7306 55.7589 52.6236C56.9448 52.4746 58.1629 51.8739 58.748 50.7959C59.2374 49.7893 59.1988 48.6382 59.2154 47.5475C57.6964 48.0586 56.1048 48.2908 54.5537 48.6803Z" fill="white"/>
<path d="M66.998 40.0622C67.758 39.3993 69.1067 39.5356 69.6706 40.3895C70.0469 40.9298 70.0488 41.6156 70.0396 42.2464C70.8639 41.248 71.8796 40.3374 73.1418 39.9442C74.7757 39.4423 76.6222 39.6535 78.096 40.5184C79.1071 41.0935 79.9121 41.9886 80.4512 43.008C81.2359 44.4444 81.4807 46.1111 81.4439 47.7276C81.4015 49.4812 80.9443 51.2677 79.913 52.7113C78.9277 54.0928 77.3333 55.0254 75.635 55.189C74.3406 55.3097 72.9541 55.136 71.8648 54.3826C71.1629 53.9346 70.6035 53.3148 70.0442 52.7095C70.034 54.6149 70.0469 56.5202 70.0377 58.4256C70.023 59.1186 69.9393 59.8857 69.4443 60.4188C69.0542 60.8393 68.4378 60.9381 67.8904 60.8796C67.4562 60.8439 66.9861 60.672 66.7653 60.2743C66.4709 59.7394 66.412 59.1141 66.3964 58.5152C66.3945 52.9372 66.3964 47.36 66.3945 41.782C66.3973 41.1703 66.5187 40.491 66.998 40.0622ZM73.278 42.5874C72.2356 42.7895 71.3478 43.5264 70.851 44.4444C70.264 45.5607 70.1739 46.8608 70.2456 48.0969C70.322 49.3294 70.7507 50.6057 71.714 51.435C72.5631 52.214 73.8373 52.4937 74.9395 52.1481C75.7279 51.8994 76.3894 51.3271 76.8006 50.6194C77.5357 49.397 77.6571 47.9159 77.5366 46.5262C77.4216 45.3047 76.9727 44.0366 75.9966 43.2338C75.255 42.6103 74.2228 42.3863 73.278 42.5874Z" fill="white"/>
<path d="M85.8807 39.7431C86.5174 39.5831 87.2515 39.7074 87.7336 40.1728C88.2065 40.5998 88.3739 41.258 88.3657 41.8743C88.3657 45.5607 88.3675 49.248 88.3647 52.9344C88.3611 53.5552 88.2286 54.2272 87.7704 54.6816C87.2644 55.2128 86.4337 55.3518 85.7519 55.115C85.2211 54.9294 84.8227 54.4631 84.6581 53.9364C84.4603 53.3486 84.5219 52.7223 84.5136 52.1143C84.5173 48.6409 84.5035 45.1684 84.5201 41.696C84.5219 40.8539 85.0058 39.946 85.8807 39.7431Z" fill="white"/>
</svg>
