<svg width="73" height="61" viewBox="0 0 73 61" fill="none" xmlns="http://www.w3.org/2000/svg">
<path fill-rule="evenodd" clip-rule="evenodd" d="M11.0202 49.2056V44.578C11.0202 43.9695 11.4038 43.4815 12.0391 43.4815H12.2149C12.8498 43.4815 13.2318 43.9703 13.2318 44.578V54.3197C13.2318 56.6956 12.0474 58.5859 9.98335 59.7905C9.03791 60.3456 7.95864 60.6367 6.8597 60.6344H6.42108C4.02321 60.6344 2.11815 59.46 0.900942 57.416C0.340006 56.4795 0.0456954 55.4092 0.04935 54.3197V53.8857C0.04935 51.5097 1.23429 49.6202 3.29656 48.4134C4.24186 47.8574 5.32174 47.5655 6.42108 47.5694H6.8597C8.48249 47.5694 9.85925 48.1926 11.0202 49.2056ZM2.2606 54.1027C2.2606 55.8184 3.09992 57.1087 4.61742 57.9319C5.231 58.2646 5.89707 58.443 6.59719 58.443C8.29696 58.443 9.55791 57.6484 10.4274 56.2208C10.8318 55.5567 11.0202 54.8309 11.0202 54.0579C11.0202 52.5707 10.3095 51.4094 9.09979 50.5469C8.36632 50.0249 7.5407 49.7623 6.64027 49.7623C4.78748 49.7623 3.4541 50.6898 2.6539 52.3376C2.38385 52.895 2.2606 53.4865 2.2606 54.1027ZM20.9037 47.5694H21.2102C23.7725 47.5694 25.7212 48.801 26.9561 51.0179C27.4499 51.9044 27.7141 52.8719 27.7141 53.8857V54.3197C27.7141 56.6956 26.532 58.5882 24.465 59.7905C23.5079 60.3464 22.4509 60.6344 21.3418 60.6344H20.9037C18.5058 60.6344 16.6003 59.46 15.3836 57.416C14.8225 56.4795 14.5278 55.4092 14.5312 54.3197V53.8857C14.5312 51.509 15.721 49.6264 17.7782 48.4141C18.7344 47.8512 19.7924 47.5694 20.9037 47.5694ZM16.7427 54.1027C16.7427 55.7682 17.5675 56.9937 18.9873 57.8554C19.654 58.26 20.3883 58.443 21.1671 58.443C22.8281 58.443 24.0559 57.6083 24.9103 56.2192C25.3179 55.5567 25.5023 54.8293 25.5023 54.0579C25.5023 52.509 24.7494 51.326 23.4624 50.4681C22.757 49.9979 21.9719 49.7623 21.1226 49.7623C19.2698 49.7623 17.9365 50.6898 17.1366 52.3376C16.8659 52.895 16.7427 53.4865 16.7427 54.1027ZM36.9075 49.9376C36.5736 49.7825 35.9487 49.7306 35.5878 49.7176C33.7402 49.6481 32.4034 50.6797 31.6192 52.295C31.3483 52.8518 31.2248 53.4417 31.2248 54.0579C31.2248 55.9351 32.2193 57.2493 33.9101 58.0508C34.5276 58.3434 35.325 58.3983 35.9999 58.3983C36.5936 58.3983 37.4327 58.0384 37.9595 57.7898L38.0508 57.7473H38.4598L38.5049 57.7566C39.0077 57.8601 39.3873 58.1759 39.3873 58.7118V58.9287C39.3873 60.263 36.9267 60.5688 35.9877 60.6336C32.6742 60.8607 30.1962 59.0577 29.2515 55.9258C29.0875 55.3822 29.0136 54.8416 29.0136 54.2749V53.8417C29.0136 51.465 30.2036 49.5824 32.2605 48.3717C33.2168 47.8088 34.2745 47.5262 35.3855 47.5262H35.8239C37.0025 47.5262 38.0882 47.8582 39.0614 48.5168L39.1413 48.5716L39.1918 48.6543C39.2969 48.8264 39.3873 49.0265 39.3873 49.2319V49.4488C39.3873 50.0079 38.965 50.309 38.4552 50.4063L38.4129 50.4133H38.2822C37.9523 50.4133 37.202 50.0751 36.9075 49.9376ZM44.0806 51.4218C44.9397 50.5693 45.8016 49.7184 46.6734 48.8797C46.9164 48.6458 47.8361 47.6566 48.1983 47.6566H48.5944L48.6395 47.6659C49.1441 47.7694 49.5219 48.0859 49.5219 48.6234V48.8396C49.5219 49.2064 49.0888 49.6326 48.8498 49.8828C48.3418 50.4171 47.8071 50.933 47.2871 51.4557L44.6152 54.1436C45.7656 55.2864 46.9149 56.4292 48.056 57.5806C48.3724 57.8986 48.6864 58.2191 48.9979 58.5411C49.1078 58.6562 49.27 58.7983 49.3621 58.9573C49.4611 59.1055 49.5219 59.2739 49.5219 59.4523V59.6785L49.5091 59.731C49.3849 60.2314 49.0648 60.6344 48.5057 60.6344H48.3295C47.9637 60.6344 47.5504 60.2244 47.2999 59.9897C46.7834 59.5071 46.2847 58.9997 45.7785 58.5071L44.0806 56.8554V59.4955C44.0806 60.1032 43.6965 60.592 43.0621 60.592H42.888C42.2527 60.592 41.8691 60.1032 41.8691 59.4955V44.6204C41.8691 44.012 42.253 43.5255 42.888 43.5255H43.0621C43.6965 43.5255 44.0806 44.012 44.0806 44.6204V51.4218ZM71.6428 47.6566H71.8629C72.5262 47.6566 72.9686 48.0991 72.9686 48.7531C72.9686 49.6604 72.0938 49.8921 71.3365 49.8921C70.3435 49.8921 69.3949 50.4882 68.7098 51.1561C67.8569 51.9908 67.4829 53.0587 67.4829 54.2332V59.5379C67.4829 60.1464 67.0995 60.6344 66.4643 60.6344H66.2892C65.654 60.6344 65.2706 60.1464 65.2706 59.5379V53.9282C65.2706 51.7739 66.3289 50.0156 68.0932 48.7825C69.1468 48.0458 70.3536 47.6566 71.6428 47.6566ZM55.9254 58.1705C56.7302 58.4484 57.6477 58.4091 58.4733 58.2662C58.8958 58.0886 59.9757 57.6215 60.3729 57.6902L60.4349 57.7003L60.4921 57.728C60.7346 57.8446 60.966 58.0098 61.0899 58.2546C61.3793 58.8276 61.2403 59.4037 60.6718 59.7295L60.4826 59.8375C58.3849 61.0375 56.1537 60.8715 54.0626 59.7503C53.0629 59.2152 52.298 58.4199 51.7337 57.4508L51.602 57.2245C50.2551 54.9127 50.4369 52.4819 51.9559 50.2843C52.4801 49.5245 53.1653 48.9376 53.9664 48.479L54.2695 48.3053C56.245 47.1755 58.3624 47.2528 60.3913 48.2443C61.4824 48.7778 62.3662 49.5732 62.9752 50.6187L63.0848 50.8071C63.5272 51.5661 62.9541 52.2286 62.3625 52.6811C61.6758 53.2054 60.9826 53.8378 60.3244 54.4C58.8569 55.6555 57.3918 56.9141 55.9254 58.1705ZM54.026 56.8485C55.6671 55.4539 57.3087 54.0586 58.9454 52.6579C59.5048 52.18 60.1181 51.6842 60.673 51.1816C60.2277 50.6256 59.4839 50.2248 58.8521 49.9855C57.5763 49.5044 56.3187 49.6658 55.1489 50.3353C53.6177 51.2109 52.9655 52.6062 53.0226 54.3429C53.0454 55.0262 53.231 55.6857 53.5971 56.2671C53.7261 56.4725 53.8702 56.6648 54.026 56.8485ZM42.0914 12.9338H48.6173V19.5443H51.9168C53.4407 19.5443 55.0078 19.2756 56.4508 18.7907C57.16 18.5528 57.9557 18.2209 58.6551 17.8039C57.7339 16.6124 57.2636 15.1075 57.1254 13.6241C56.9371 11.6056 57.3481 8.97955 58.726 7.40047L59.412 6.6144L60.2294 7.26533C62.2874 8.90388 64.0183 11.1933 64.3234 13.804C66.8017 13.0813 69.7113 13.2519 71.8955 14.5013L72.7913 15.014L72.3201 15.926C70.4726 19.4988 66.6104 20.6061 62.8346 20.4099C57.1845 34.3553 44.8838 40.9573 29.9692 40.9573C22.2636 40.9573 15.1944 38.1026 11.1686 31.3284L11.1027 31.2179L10.5163 30.035C9.15552 27.0529 8.7034 23.7866 9.00996 20.5219L9.1021 19.5443H14.6827V12.9338H21.2082V6.4669H34.2602V0H42.0914V12.9338Z" fill="white"/>
<path fill-rule="evenodd" clip-rule="evenodd" d="M63.2349 15.3793C63.6724 12.0095 61.1275 9.36255 59.5493 8.10547C57.7305 10.1896 57.448 15.6503 60.3014 17.9498C58.7088 19.3513 55.3535 20.6223 51.9176 20.6223H10.0945C9.76054 24.1758 10.39 27.449 11.8282 30.2505L12.304 31.1129C12.6052 31.6195 12.9343 32.1091 13.29 32.5793C15.0095 32.6889 16.5948 32.726 18.0452 32.6943C20.8955 32.6326 23.2217 32.2983 24.9843 31.6937C25.109 31.655 25.2437 31.6658 25.3603 31.7245C25.4767 31.7824 25.5657 31.8836 25.6085 32.0056C25.6512 32.1284 25.6443 32.2619 25.5892 32.3794C25.5342 32.4967 25.4352 32.5878 25.3134 32.6341C25.0788 32.7152 24.8345 32.7901 24.5822 32.862H24.5813C23.1934 33.2542 21.7051 33.5191 19.7849 33.6364C19.8992 33.638 19.6657 33.6534 19.6657 33.6534C19.6004 33.6573 19.5182 33.6665 19.4525 33.6696C18.6968 33.7121 17.8811 33.7206 17.0473 33.7206C16.135 33.7206 15.237 33.7036 14.2327 33.6534L14.207 33.6696C17.6916 37.5513 23.1404 39.8794 29.9705 39.8794C44.4251 39.8794 56.6856 33.5291 62.1151 19.2741C65.9667 19.6656 69.6687 18.6926 71.3521 15.4349C68.6703 13.9014 65.221 14.3901 63.2349 15.3793Z" fill="#DADCDE"/>
<path fill-rule="evenodd" clip-rule="evenodd" d="M63.2348 15.3793C63.6724 12.0095 61.1274 9.36255 59.5492 8.10547C57.7304 10.1896 57.4478 15.6503 60.3012 17.9498C58.7087 19.3513 55.3534 20.6223 51.9175 20.6223H12.571C12.4003 26.0653 14.4385 30.1964 18.0448 32.6943H18.0457C20.8959 32.6326 23.2216 32.2983 24.9842 31.6937C25.1088 31.655 25.2436 31.6658 25.36 31.7245C25.4766 31.7824 25.5656 31.8836 25.6083 32.0056C25.6511 32.1284 25.6442 32.2619 25.5892 32.3793C25.5341 32.4967 25.4351 32.5878 25.3133 32.6341C25.0787 32.7152 24.8343 32.7901 24.5821 32.862H24.5812C23.1934 33.2542 21.5772 33.5522 19.657 33.6696C19.6564 33.6696 19.6105 33.6264 19.6099 33.6264C24.5293 36.1267 31.6622 36.1181 39.8401 33.0048C49.0099 29.5139 57.543 22.8632 63.4966 15.2558C63.4069 15.2959 63.3196 15.3376 63.2348 15.3793Z" fill="white"/>
<path fill-rule="evenodd" clip-rule="evenodd" d="M12.9478 24.9404C13.6875 28.2831 15.4653 30.9077 18.0461 32.6945C20.8963 32.6327 23.222 32.2984 24.9846 31.6937C25.1092 31.6552 25.244 31.666 25.3604 31.7247C25.477 31.7826 25.566 31.8837 25.6087 32.0057C25.6514 32.1277 25.6446 32.2621 25.5895 32.3795C25.5345 32.4968 25.4355 32.588 25.3136 32.6343C25.079 32.7154 24.8347 32.7902 24.5824 32.8621H24.5816C23.1937 33.2544 21.5521 33.5354 19.6317 33.6535C24.5507 36.1538 31.6631 36.1176 39.8405 33.0049C44.7876 31.1216 49.5488 28.3179 53.8203 24.9404H12.9478Z" fill="#D6E1E7"/>
<path fill-rule="evenodd" clip-rule="evenodd" d="M15.7715 14.0109H21.4275V19.616H15.7715V14.0109ZM16.2427 14.478H16.6891V19.1488H16.2427V14.478ZM17.0817 14.478H17.5461V19.1488H17.082V14.478H17.0817ZM17.9385 14.478H18.4028V19.1488H17.9385V14.478ZM18.7958 14.478H19.2599V19.1488H18.7958V14.478ZM19.6529 14.478H20.1169V19.1488H19.6529V14.478ZM20.5096 14.478H20.9563V19.1488H20.5096V14.478ZM22.2973 7.54395H27.9536V13.1491H22.2971V7.54395H22.2973ZM22.7688 8.01188H23.2149V12.682H22.7688V8.01188ZM23.6079 8.01188H24.0719V12.682H23.6082V8.01188H23.6079ZM24.4646 8.01188H24.9286V12.682H24.4646V8.01188ZM25.3217 8.01188H25.7857V12.682H25.3217V8.01188ZM26.1787 8.01188H26.6431V12.682H26.1787V8.01188ZM27.0355 8.01188H27.4824V12.682H27.0355V8.01188Z" fill="#DADCDE"/>
<path fill-rule="evenodd" clip-rule="evenodd" d="M22.2967 14.011H27.9529V19.6162H22.2964V14.011H22.2967ZM22.7681 14.4789H23.2142V19.149H22.7681V14.4789ZM23.6072 14.4789H24.0713V19.149H23.6075V14.4789H23.6072ZM24.464 14.4789H24.928V19.149H24.464V14.4789ZM25.321 14.4789H25.7851V19.149H25.321V14.4789ZM26.178 14.4789H26.6424V19.149H26.178V14.4789ZM27.0348 14.4789H27.4818V19.149H27.0348V14.4789Z" fill="#DADCDE"/>
<path fill-rule="evenodd" clip-rule="evenodd" d="M28.8228 14.011H34.4787V19.6162H28.8228V14.011ZM29.294 14.4789H29.7401V19.149H29.294V14.4789ZM30.133 14.4789H30.5971V19.149H30.133V14.4789ZM30.9901 14.4789H31.4541V19.149H30.9901V14.4789ZM31.8471 14.4789H32.3112V19.149H31.8471V14.4789ZM32.7039 14.4789H33.1685V19.149H32.7039V14.4789ZM33.5609 14.4789H34.0072V19.149H33.5609V14.4789Z" fill="#DADCDE"/>
<path fill-rule="evenodd" clip-rule="evenodd" d="M28.8228 7.54395H34.4787V13.1491H28.8228V7.54395ZM29.294 8.01188H29.7401V12.682H29.294V8.01188ZM30.133 8.01188H30.5971V12.682H30.133V8.01188ZM30.9901 8.01188H31.4541V12.682H30.9901V8.01188ZM31.8471 8.01188H32.3112V12.682H31.8471V8.01188ZM32.7039 8.01188H33.1685V12.682H32.7039V8.01188ZM33.5609 8.01188H34.0072V12.682H33.5609V8.01188ZM35.3486 14.0109H41.0046V19.616H35.3486V14.0109ZM35.8201 14.478H36.2661V19.1488H35.8201V14.478ZM36.6591 14.478H37.1231V19.1488H36.6591V14.478ZM37.5159 14.478H37.98V19.1488H37.5159V14.478ZM38.3729 14.478H38.8372V19.1488H38.3729V14.478ZM39.23 14.478H39.6942V19.1488H39.23V14.478ZM40.087 14.478H40.5334V19.1488H40.087V14.478Z" fill="#DADCDE"/>
<path fill-rule="evenodd" clip-rule="evenodd" d="M35.3481 7.54395H41.0041V13.1491H35.3481V7.54395ZM35.8196 8.01188H36.2657V12.682H35.8196V8.01188ZM36.6587 8.01188H37.1228V12.682H36.6587V8.01188ZM37.5154 8.01188H37.9794V12.682H37.5154V8.01188ZM38.3725 8.01188H38.8368V12.682H38.3725V8.01188ZM39.2295 8.01188H39.6939V12.682H39.2295V8.01188ZM40.0866 8.01188H40.5329V12.682H40.0866V8.01188Z" fill="#DADCDE"/>
<path fill-rule="evenodd" clip-rule="evenodd" d="M35.3481 1.07715H41.0041V6.68231H35.3481V1.07715ZM35.8196 1.5443H36.2657V6.21515H35.8196V1.54353V1.5443ZM36.6587 1.5443H37.1228V6.21515H36.6587V1.54353V1.5443ZM37.5154 1.5443H37.9794V6.21515H37.5154V1.54353V1.5443ZM38.3725 1.5443H38.8368V6.21515H38.3725V1.54353V1.5443ZM39.2295 1.5443H39.6939V6.21515H39.2295V1.54353V1.5443ZM40.0866 1.5443H40.5329V6.21515H40.0866V1.54353V1.5443Z" fill="#DADCDE"/>
<path fill-rule="evenodd" clip-rule="evenodd" d="M41.8745 14.011H47.5304V19.6162H41.8745V14.011ZM42.3454 14.4789H42.792V19.149H42.3457V14.4789H42.3454ZM43.1844 14.4789H43.6489V19.149H43.1848V14.4789H43.1844ZM44.0418 14.4789H44.5061V19.149H44.0418V14.4789ZM44.8985 14.4789H45.3629V19.149H44.8985V14.4789ZM45.7559 14.4789H46.22V19.149H45.7559V14.4789ZM46.6126 14.4789H47.0589V19.149H46.6126V14.4789Z" fill="#DADCDE"/>
<path fill-rule="evenodd" clip-rule="evenodd" d="M27.5988 28.703C27.8055 28.7007 28.0107 28.7385 28.2024 28.8149C28.3942 28.8914 28.5687 29.0049 28.7159 29.1485C28.863 29.2929 28.9798 29.4643 29.0595 29.6527C29.1391 29.8419 29.1803 30.045 29.1802 30.2496C29.1802 30.4542 29.1391 30.6574 29.0593 30.8466C28.9794 31.0357 28.8626 31.2064 28.7154 31.3507C28.5683 31.4944 28.3937 31.6079 28.2019 31.6843C28.0101 31.7608 27.8049 31.7986 27.5983 31.7955C27.1881 31.7901 26.7966 31.6249 26.5086 31.3353C26.2205 31.0457 26.0591 30.6558 26.0591 30.2488C26.0592 29.8427 26.2208 29.4527 26.509 29.1632C26.7972 28.8736 27.1886 28.7084 27.5988 28.703Z" fill="#DADCDE"/>
<path fill-rule="evenodd" clip-rule="evenodd" d="M27.5988 29.1425C27.7415 29.1425 27.8776 29.1688 28.0032 29.2174C27.9165 29.2668 27.8489 29.3441 27.8107 29.4359C27.7724 29.5271 27.7657 29.629 27.7916 29.7248C27.8176 29.8213 27.8747 29.9055 27.954 29.9665C28.0334 30.0267 28.1308 30.0598 28.231 30.0598C28.4037 30.0598 28.5535 29.9657 28.631 29.8251C28.723 30.0444 28.7413 30.2876 28.6832 30.5178C28.6251 30.7486 28.4938 30.954 28.3085 31.1054C28.1233 31.2559 27.894 31.344 27.6546 31.3556C27.4151 31.3672 27.1783 31.3023 26.9789 31.1702C26.7795 31.039 26.6282 30.8467 26.5473 30.6228C26.4665 30.3996 26.4604 30.1556 26.5298 29.9286C26.5993 29.7016 26.7407 29.5023 26.9333 29.3603C27.1257 29.219 27.3591 29.1425 27.5988 29.1425ZM0 25.4994H72.5837C71.0037 25.1025 67.5831 24.5659 68.1477 22.5127C65.2737 25.8083 58.3432 24.8246 56.594 23.1999C54.6465 25.999 43.3078 24.9349 42.517 22.7544C40.0751 25.5944 32.509 25.5944 30.0672 22.7544C29.2758 24.9349 17.9373 25.999 15.9895 23.1999C14.2406 24.8246 7.31064 25.8083 4.43674 22.5135C5.00071 24.5658 1.5808 25.1025 0 25.4994Z" fill="#BDBEBE"/>
<path fill-rule="evenodd" clip-rule="evenodd" d="M31.7464 39.8453C27.8821 38.0284 25.7614 35.5583 24.5813 32.8618C23.1457 33.2672 21.4205 33.5274 19.4156 33.6386C18.6604 33.6804 17.8659 33.7019 17.0325 33.7019C16.0713 33.7019 15.0585 33.6734 13.9951 33.6178C17.5388 37.1273 21.8983 39.8299 29.9704 39.8785C30.5663 39.8785 31.1576 39.8677 31.7464 39.8453Z" fill="#E8E9EA"/>
<path fill-rule="evenodd" clip-rule="evenodd" d="M26.0169 35.35C25.4823 34.6311 24.9637 33.7269 24.5825 32.8613C23.1469 33.2675 21.4211 33.5277 19.416 33.6389C20.7933 34.3801 22.7628 35.0659 26.0172 35.35" fill="#DADCDE"/>
</svg>
