<svg width="75" height="37" viewBox="0 0 75 37" fill="none" xmlns="http://www.w3.org/2000/svg">
<path d="M5.68425 8.23096H16.3372C19.464 8.25686 21.7297 9.14634 23.1345 10.8979C24.5393 12.6495 25.0028 15.0419 24.5257 18.0752C24.3405 19.4612 23.9295 20.8206 23.2935 22.1541C22.6838 23.4875 21.8363 24.69 20.7495 25.7623C19.4242 27.1217 18.0068 27.9845 16.4963 28.3508C14.9858 28.7171 13.422 28.8999 11.8057 28.8999H7.03575L5.52525 36.3517H0L5.68425 8.23096ZM10.335 12.702L7.95 24.468C8.109 24.4939 8.268 24.5073 8.427 24.5073C8.61225 24.5073 8.79825 24.5073 8.9835 24.5073C11.5275 24.5332 13.6477 24.2853 15.3435 23.7621C17.0392 23.213 18.1793 21.3045 18.762 18.036C19.239 15.2906 18.762 13.7084 17.331 13.2903C15.9262 12.8722 14.1645 12.6761 12.0443 12.702C11.7262 12.7279 11.4218 12.7413 11.13 12.7413C10.8653 12.7413 10.587 12.7413 10.2952 12.7413L10.335 12.702Z" fill="white"/>
<path d="M30.8197 0.73999H36.3052L34.755 8.23101H39.6839C42.3869 8.28355 44.4007 8.83263 45.7259 9.87825C47.0774 10.9239 47.4749 12.9115 46.9184 15.8397L44.2552 28.8999H38.6902L41.2342 16.428C41.499 15.1204 41.4194 14.1924 40.9957 13.6434C40.5719 13.0943 39.6577 12.8197 38.253 12.8197L33.8407 12.7805L30.5812 28.8999H25.0957L30.8197 0.73999Z" fill="white"/>
<path d="M52.8088 8.23096H63.4618C66.5885 8.25686 68.8543 9.14634 70.259 10.8979C71.6638 12.6495 72.1273 15.0419 71.6503 18.0752C71.465 19.4612 71.054 20.8206 70.418 22.1541C69.8083 23.4875 68.9608 24.69 67.874 25.7623C66.5488 27.1217 65.1313 27.9845 63.6208 28.3508C62.1103 28.7171 60.5465 28.8999 58.9303 28.8999H54.1603L52.6498 36.3517H47.1245L52.8088 8.23096ZM57.4595 12.702L55.0745 24.468C55.2335 24.4939 55.3925 24.5073 55.5515 24.5073C55.7368 24.5073 55.9228 24.5073 56.108 24.5073C58.652 24.5332 60.7723 24.2853 62.468 23.7621C64.1638 23.213 65.3038 21.3045 65.8865 18.036C66.3635 15.2906 65.8865 13.7084 64.4555 13.2903C63.0508 12.8722 61.289 12.6761 59.1688 12.702C58.8508 12.7279 58.5463 12.7413 58.2545 12.7413C57.9898 12.7413 57.7115 12.7413 57.4198 12.7413L57.4595 12.702Z" fill="white"/>
</svg>
