<svg width="126" height="43" viewBox="0 0 126 43" fill="none" xmlns="http://www.w3.org/2000/svg">
<path d="M0 11.1475H6.66226V17.8137H12.7566V11.1475H19.4189V31.3357H12.7566V24.5752H6.66226V31.3357H0V11.1475Z" fill="white"/>
<path d="M28.1803 17.8419H22.3149V11.1475H40.71V17.8419H34.8425V31.3357H28.1803V17.8419Z" fill="white"/>
<path d="M43.6294 11.1475H50.5762L54.8497 18.2402L59.1179 11.1475H66.0678V31.3357H59.4327V21.3292L54.8497 28.5075H54.7346L50.1484 21.3292V31.3357H43.6294V11.1475Z" fill="white"/>
<path d="M69.3838 11.1475H76.0471V24.6629H85.4162V31.3357H69.3838V11.1475Z" fill="white"/>
<path d="M88.5859 0H125.569L122.199 38.2302L107.055 42.4828L91.9517 38.2356L88.5859 0Z" fill="white"/>
<path d="M119.315 35.7947L122.195 3.12573H107.078V39.2312L119.315 35.7947Z" fill="#E8E9EA"/>
<path d="M100.95 17.308L100.527 12.5055H107.077V7.81567H107.061H95.4673L95.578 9.07445L96.7158 21.9968H107.077V17.308H100.95Z" fill="#353E47"/>
<path d="M96.9229 24.3413L97.5711 31.7046L107.055 34.3715L107.077 34.3651V29.4868L107.056 29.4923L101.9 28.0819L101.57 24.3413H99.0651H96.9229Z" fill="#353E47"/>
<path d="M117.71 18.5668L117.822 17.3069H116.575H107.061V21.9968H112.762L112.225 28.0786L107.061 29.49V34.3693L116.552 31.7045L116.621 30.9122L117.71 18.5668Z" fill="#353E47"/>
<path d="M107.061 12.5055H118.229H118.243L118.337 11.4514L118.548 9.07445L118.659 7.81567H107.061V10.7283V12.4937V12.5055Z" fill="#353E47"/>
</svg>
