<svg width="94" height="64" viewBox="0 0 94 64" fill="none" xmlns="http://www.w3.org/2000/svg">
<path d="M22.5999 58.3052H18.9729C18.8454 52.1678 18.4918 46.3966 17.9139 40.9906H17.8819L12.3596 58.3052H9.59807L4.10922 40.9906H4.07689C3.66961 46.1824 3.41339 51.9535 3.30654 58.3052H-0.000488281C0.213218 50.5806 0.748044 43.3394 1.60399 36.58H6.09944L11.3322 52.543H11.3643L16.6291 36.58H20.9305C21.8724 44.4964 22.4286 51.7398 22.5994 58.3052" fill="white"/>
<path d="M38.3331 42.2765C36.8561 50.3107 34.9079 56.1492 32.4897 59.7913C30.6055 62.5978 28.5415 64.001 26.2939 64.001C25.6947 64.001 24.9559 63.82 24.0791 63.4605V61.5238C24.5074 61.5867 25.01 61.6202 25.588 61.6202C26.6366 61.6202 27.4816 61.3297 28.1245 60.7498C28.8944 60.0433 29.2797 59.2491 29.2797 58.369C29.2797 57.7679 28.9792 56.5344 28.3809 54.6685L24.4003 42.2765H27.9635L30.8204 51.5446C31.4622 53.6488 31.7299 55.1178 31.6228 55.9551C33.1853 51.7711 34.2769 47.2114 34.8979 42.2765H38.3329" fill="white"/>
<path d="M54.2212 52.2832C54.2212 54.1256 53.546 55.6382 52.1999 56.8216C50.8528 57.9999 49.043 58.5906 46.7767 58.5906C44.657 58.5906 42.6027 57.9107 40.6128 56.5621L41.5437 54.6959C43.2561 55.5541 44.8058 55.9826 46.1971 55.9826C47.5023 55.9826 48.5239 55.6914 49.2629 55.1161C50.0002 54.5366 50.4422 53.7284 50.4422 52.7034C50.4422 51.4134 49.5448 50.3108 47.8984 49.3858C46.3784 48.5495 43.3406 46.8037 43.3406 46.8037C41.6948 45.6 40.8696 44.3085 40.8696 42.1806C40.8696 40.4207 41.485 38.9982 42.7141 37.916C43.9459 36.8315 45.5353 36.2893 47.4816 36.2893C49.4934 36.2893 51.3227 36.8275 52.9703 37.9001L52.1334 39.7646C50.7236 39.1654 49.3334 38.8646 47.9627 38.8646C46.8506 38.8646 45.9935 39.1323 45.396 39.6708C44.7952 40.2047 44.4237 40.8917 44.4237 41.7291C44.4237 43.0157 45.3406 44.1318 47.0335 45.0747C48.5725 45.9113 51.6847 47.691 51.6847 47.691C53.3776 48.8924 54.2212 50.1734 54.2212 52.2832Z" fill="#E8E9EA"/>
<path fill-rule="evenodd" clip-rule="evenodd" d="M60.7053 53.959C59.8275 52.5429 59.3878 50.2704 59.3878 47.1368C59.3878 41.6663 61.0471 38.9293 64.3641 38.9293C66.0983 38.9293 67.3711 39.584 68.1851 40.8919C69.0617 42.3087 69.5014 44.5615 69.5014 47.6513C69.5014 53.1655 67.8421 55.9238 64.5252 55.9238C62.7915 55.9238 61.5182 55.2699 60.7053 53.9593V53.959ZM73.6105 58.8291L69.6273 56.8599C69.982 56.5683 70.3188 56.2538 70.6237 55.8896C72.3148 53.8964 73.1613 50.9463 73.1613 47.0405C73.1613 39.8532 70.3467 36.2575 64.7182 36.2575C61.9573 36.2575 59.8057 37.1689 58.265 38.9943C56.5733 40.99 55.7285 43.929 55.7285 47.8126C55.7285 51.6314 56.4771 54.4329 57.9752 56.2125C59.3403 57.821 61.4046 58.6264 64.1683 58.6264C65.1993 58.6264 66.1453 58.4991 67.0052 58.2446L72.1923 61.2708L73.6066 58.8289" fill="#E8E9EA"/>
<path d="M86.613 58.3052H76.3086V36.58H79.776V55.6327H86.613V58.3051" fill="#E8E9EA"/>
<path d="M89.0857 58.3027H89.6602V56.0924H90.4121V55.6409H88.3047V56.0924H89.0857V58.3027ZM93.4577 58.3027H93.9992V55.6409H93.1847L92.5218 57.4553L91.8001 55.6409H91.0152V58.3027H91.5276V56.2769H91.5567L92.3125 58.3027H92.703L93.4577 56.2769V58.3027Z" fill="#E8E9EA"/>
<path fill-rule="evenodd" clip-rule="evenodd" d="M90.9653 29.3028C88.8696 29.2502 87.2467 29.4599 85.8856 30.0378C85.4928 30.1951 84.8651 30.1951 84.8114 30.694C85.0223 30.9036 85.0475 31.2445 85.2321 31.5346C85.5454 32.0595 86.0942 32.7671 86.5927 33.1356C87.1426 33.5558 87.6926 33.9743 88.2693 34.3417C89.2898 34.9744 90.4422 35.3403 91.4358 35.9706C92.0137 36.3375 92.5877 36.8097 93.1656 37.2044C93.4526 37.4143 93.6344 37.7561 94.0025 37.886V37.8065C93.8179 37.571 93.7664 37.2296 93.584 36.9656C93.3228 36.7052 93.0604 36.4674 92.798 36.2061C92.0383 35.1825 91.0945 34.2909 90.0758 33.5558C89.2372 32.9768 87.4033 32.1892 87.0643 31.2209C87.0643 31.2209 87.0369 31.1931 87.0112 31.1672C87.5874 31.1139 88.2693 30.9036 88.8187 30.7444C89.7077 30.5088 90.5194 30.5621 91.4358 30.3265C91.8554 30.2208 92.2744 30.0886 92.6951 29.9596V29.7217C92.2212 29.2502 91.8822 28.6193 91.3849 28.1734C90.0506 27.0189 88.5826 25.891 87.0643 24.9446C86.2514 24.4194 85.2042 24.0798 84.3398 23.6325C84.0271 23.4747 83.504 23.397 83.32 23.133C82.8483 22.5557 82.5854 21.7955 82.2458 21.1119C81.4872 19.6698 80.7527 18.0691 80.0993 16.5442C79.6282 15.5212 79.3401 14.4982 78.7639 13.5526C76.0657 9.08933 73.1342 6.38714 68.6307 3.73544C67.6617 3.18356 66.5099 2.94744 65.2802 2.6586C64.6245 2.63112 63.9706 2.58008 63.316 2.55429C62.8964 2.36976 62.4768 1.87061 62.111 1.63449C60.6178 0.690013 56.7705 -1.3571 55.6701 1.34621C54.963 3.05344 56.7174 4.73264 57.3199 5.59915C57.7647 6.20207 58.3415 6.88574 58.6542 7.56718C58.8377 8.01362 58.8903 8.48697 59.0743 8.95865C59.4928 10.1134 59.885 11.4 60.436 12.4769C60.723 13.0282 61.0368 13.6064 61.4033 14.1028C61.6147 14.3933 61.9801 14.5229 62.0589 14.9968C61.6936 15.5212 61.6651 16.3086 61.4559 16.9654C60.5138 19.9317 60.8796 23.6064 62.2156 25.7848C62.6335 26.4409 63.6299 27.8851 64.9652 27.3326C66.1434 26.8609 65.8816 25.3646 66.2218 24.0529C66.3001 23.7357 66.2475 23.5276 66.4041 23.3179V23.3709C66.7706 24.1048 67.1381 24.8118 67.4783 25.5493C68.2911 26.8342 69.7037 28.1732 70.883 29.0648C71.5096 29.5392 72.0075 30.3516 72.7929 30.6412V30.5619H72.7415C72.5837 30.3263 72.3488 30.2205 72.139 30.0376C71.6679 29.5648 71.1454 28.9871 70.7773 28.4624C69.678 26.993 68.7079 25.3646 67.8458 23.6848C67.4257 22.8692 67.0598 21.9775 66.7191 21.1643C66.5624 20.8508 66.5624 20.3769 66.3001 20.2198C65.9062 20.7967 65.3317 21.2962 65.0441 22.0027C64.5462 23.1328 64.4942 24.5237 64.3096 25.9681C64.2055 25.9955 64.2581 25.9681 64.2055 26.0203C63.3686 25.8104 63.0805 24.9443 62.7655 24.2118C61.9801 22.3456 61.848 19.3533 62.53 17.2005C62.7124 16.6503 63.5001 14.9179 63.1845 14.3929C63.0262 13.8921 62.5031 13.606 62.2156 13.2106C61.876 12.712 61.5073 12.0833 61.274 11.5309C60.6452 10.0615 60.3291 8.43331 59.6505 6.96387C59.3361 6.2802 58.7851 5.57128 58.3415 4.94257C57.843 4.23365 57.2936 3.73506 56.9003 2.89602C56.7705 2.60662 56.587 2.13382 56.7957 1.81974C56.8472 1.60942 56.9535 1.53034 57.1633 1.47762C57.5017 1.18878 58.4718 1.55558 58.8114 1.71318C59.7809 2.10578 60.5926 2.47537 61.4033 3.02557C61.7703 3.2886 62.163 3.78721 62.6335 3.91957H63.1845C64.022 4.10184 64.9652 3.97061 65.7512 4.20785C67.1381 4.65372 68.3946 5.30992 69.5213 6.01883C72.9501 8.19774 75.7781 11.2959 77.6886 14.9964C78.0036 15.5993 78.1356 16.1512 78.4232 16.7799C78.9731 18.0687 79.6545 19.3811 80.2033 20.6399C80.7527 21.8737 81.2774 23.1326 82.064 24.1579C82.4556 24.7082 84.0271 24.997 84.7342 25.2859C85.2567 25.5214 86.0696 25.7318 86.5412 26.0201C87.4313 26.5704 88.3197 27.2014 89.1588 27.8061C89.5767 28.1211 90.8864 28.7766 90.9653 29.3024" fill="white"/>
<path fill-rule="evenodd" clip-rule="evenodd" d="M64.2576 6.48906C63.8135 6.48906 63.5002 6.5429 63.1841 6.62086V6.67357H63.235C63.4465 7.09253 63.8135 7.38361 64.073 7.75041C64.2839 8.1705 64.4674 8.58888 64.6767 9.00952C64.7024 8.98373 64.7276 8.95624 64.7276 8.95624C65.0968 8.69488 65.2797 8.27536 65.2797 7.6444C65.1214 7.45932 65.0968 7.27704 64.9648 7.09252C64.8081 6.83061 64.4674 6.69936 64.2576 6.48904" fill="white"/>
</svg>
