<svg width="61" height="61" viewBox="0 0 61 61" fill="none" xmlns="http://www.w3.org/2000/svg">
<path d="M60.2118 0H0V60.2118H60.2118V0Z" fill="white"/>
<path d="M18.9665 47.5671L15.0527 50.2766C16.9796 54.6119 21.074 55.495 22.8803 55.3948C29.6241 55.3948 31.31 51.1799 31.31 49.0724V27.6973H25.8909V48.4704C25.7906 49.0724 25.0479 50.2766 22.8803 50.2766C20.7127 50.2766 19.368 48.4704 18.9665 47.5671Z" fill="#353E47"/>
<path d="M52.3843 31.6114L48.1694 34.3209C47.6878 32.1532 45.5604 31.812 44.5568 31.9124C43.6537 31.9124 41.8472 32.4544 41.8472 34.6219C41.8472 36.7895 44.055 37.9336 45.159 38.2347C53.2876 41.2452 54.1907 44.2559 54.1907 47.8685C54.1907 51.4812 51.7822 55.395 44.5568 55.395C38.7765 55.395 35.7258 51.5816 34.9229 49.6749L39.1377 47.2664C40.0409 49.3738 42.7505 50.5781 44.5568 50.5781C46.3631 50.5781 48.1694 50.2769 48.7716 47.8685C49.2533 45.9417 44.7575 43.6537 42.4494 42.7505C37.0303 40.3421 36.4281 37.0303 36.4281 34.923C36.4281 32.8156 38.5356 27.3965 44.5568 27.3965C49.3738 27.3965 51.7822 30.2063 52.3843 31.6114Z" fill="#353E47"/>
</svg>
