<svg width="151" height="68" viewBox="0 0 151 68" fill="none" xmlns="http://www.w3.org/2000/svg">
<path d="M44.6078 44.4719C46.5798 44.2679 48.0758 42.5679 48.0078 40.5279C47.9398 38.4879 46.2398 36.8559 44.1998 36.8559H44.0638C41.9558 36.9239 40.3238 38.6919 40.3918 40.7999C40.4598 41.8199 40.8678 42.7039 41.4798 43.3159C39.1678 47.8719 35.6318 51.2039 30.3278 53.9919C26.7238 55.8959 22.9838 56.5759 19.2438 56.0999C16.1838 55.6919 13.8038 54.3319 12.3078 52.0879C10.1318 48.7559 9.92777 45.1519 11.7638 41.5479C13.0558 38.9639 15.0958 37.0599 16.3878 36.1079C16.1158 35.2239 15.7078 33.7279 15.5038 32.6399C5.64377 39.7799 6.66378 49.4359 9.65578 53.9919C11.8998 57.3919 16.4558 59.4999 21.4878 59.4999C22.8478 59.4999 24.2078 59.3639 25.5678 59.0239C34.2718 57.3239 40.8678 52.1559 44.6078 44.4719Z" fill="white"/>
<path d="M56.5755 36.04C51.4075 29.988 43.7915 26.656 35.0875 26.656H33.9995C33.3875 25.432 32.0955 24.616 30.6675 24.616H30.5315C28.4235 24.684 26.7915 26.452 26.8595 28.56C26.9275 30.6 28.6275 32.232 30.6675 32.232H30.8035C32.2995 32.164 33.5915 31.212 34.1355 29.92H35.3595C40.5275 29.92 45.4235 31.416 49.8435 34.34C53.2435 36.584 55.6915 39.508 57.0515 43.044C58.2075 45.9 58.1395 48.688 56.9155 51.068C55.0115 54.672 51.8155 56.644 47.5995 56.644C44.8795 56.644 42.2955 55.828 40.9355 55.216C40.1875 55.896 38.8275 56.984 37.8755 57.664C40.7995 59.024 43.7915 59.772 46.6475 59.772C53.1755 59.772 58.0035 56.168 59.8395 52.564C61.8115 48.62 61.6755 41.82 56.5755 36.04Z" fill="white"/>
<path d="M22.0318 45.6279C22.0998 47.6679 23.7998 49.2999 25.8398 49.2999H25.9758C28.0838 49.2319 29.7158 47.4639 29.6478 45.3559C29.5798 43.3159 27.8798 41.6839 25.8398 41.6839H25.7038C25.5678 41.6839 25.3638 41.6839 25.2278 41.7519C22.4398 37.1279 21.2838 32.0959 21.6918 26.6559C21.9638 22.5759 23.3238 19.0399 25.7038 16.1159C27.6758 13.5999 31.4838 12.3759 34.0678 12.3079C41.2758 12.1719 44.3358 21.1479 44.5398 24.7519C45.4238 24.9559 46.9198 25.4319 47.9398 25.7719C47.1238 14.7559 40.3238 9.04395 33.7958 9.04395C27.6758 9.04395 22.0318 13.4639 19.7878 19.9919C16.6598 28.6959 18.6998 37.0599 22.5078 43.6559C22.1678 44.1319 21.9638 44.8799 22.0318 45.6279Z" fill="white"/>
<path d="M85.2188 47H82.3867L78.9883 41.3076C78.6768 40.779 78.3747 40.3306 78.082 39.9624C77.7894 39.5848 77.4873 39.278 77.1758 39.042C76.8737 38.806 76.5433 38.6361 76.1846 38.5322C75.8353 38.4189 75.4388 38.3623 74.9951 38.3623H73.041V47H70.6621V26.6943H76.7227C77.61 26.6943 78.4266 26.8076 79.1724 27.0342C79.9276 27.2513 80.5789 27.5864 81.1265 28.0396C81.6834 28.4927 82.1177 29.0591 82.4292 29.7388C82.7407 30.409 82.8965 31.1973 82.8965 32.1035C82.8965 32.8115 82.7879 33.4629 82.5708 34.0576C82.3631 34.6429 82.061 35.1668 81.6646 35.6294C81.2775 36.092 80.8055 36.4884 80.2485 36.8188C79.701 37.1398 79.0827 37.39 78.3936 37.5693V37.626C78.7334 37.777 79.026 37.9517 79.2715 38.1499C79.5264 38.3387 79.7671 38.5653 79.9937 38.8296C80.2202 39.0939 80.4421 39.396 80.6592 39.7358C80.8857 40.0662 81.1359 40.4533 81.4097 40.897L85.2188 47ZM73.041 28.8467V36.21H76.2695C76.8643 36.21 77.4118 36.1203 77.9121 35.9409C78.4219 35.7616 78.8608 35.5067 79.229 35.1763C79.5972 34.8364 79.8851 34.4258 80.0928 33.9443C80.3005 33.4535 80.4043 32.9059 80.4043 32.3018C80.4043 31.2161 80.0503 30.3713 79.3423 29.7671C78.6437 29.1535 77.6289 28.8467 76.2979 28.8467H73.041ZM100.235 40.3306H89.997C90.0347 41.9448 90.469 43.1909 91.2997 44.0688C92.1304 44.9468 93.2727 45.3857 94.7264 45.3857C96.3596 45.3857 97.8606 44.8477 99.2294 43.7715V45.9521C97.955 46.8773 96.2699 47.3398 94.1742 47.3398C92.1257 47.3398 90.5162 46.6838 89.3456 45.3716C88.175 44.05 87.5897 42.195 87.5897 39.8066C87.5897 37.5505 88.2269 35.7144 89.5013 34.2983C90.7852 32.8729 92.3759 32.1602 94.2733 32.1602C96.1708 32.1602 97.6387 32.7738 98.6771 34.001C99.7155 35.2282 100.235 36.9321 100.235 39.1128V40.3306ZM97.8558 38.3623C97.8464 37.0218 97.5207 35.9787 96.8788 35.2329C96.2463 34.4871 95.3637 34.1143 94.2308 34.1143C93.1358 34.1143 92.2059 34.506 91.4413 35.2896C90.6766 36.0731 90.2046 37.0973 90.0253 38.3623H97.8558ZM117.007 47H114.684V44.5361H114.628C113.552 46.4053 111.89 47.3398 109.643 47.3398C107.821 47.3398 106.363 46.6932 105.268 45.3999C104.182 44.0972 103.639 42.3271 103.639 40.0898C103.639 37.6921 104.244 35.771 105.452 34.3267C106.66 32.8823 108.27 32.1602 110.281 32.1602C112.272 32.1602 113.721 32.9437 114.628 34.5107H114.684V25.5332H117.007V47ZM114.684 40.4438V38.3057C114.684 37.1351 114.297 36.1439 113.523 35.332C112.749 34.5202 111.767 34.1143 110.578 34.1143C109.162 34.1143 108.048 34.6335 107.236 35.6719C106.424 36.7103 106.018 38.1452 106.018 39.9766C106.018 41.6475 106.405 42.9691 107.179 43.9414C107.963 44.9043 109.011 45.3857 110.323 45.3857C111.616 45.3857 112.664 44.9185 113.467 43.9839C114.278 43.0493 114.684 41.8693 114.684 40.4438ZM134.302 47H131.98V44.7061H131.923C130.961 46.4619 129.469 47.3398 127.449 47.3398C123.994 47.3398 122.266 45.2819 122.266 41.166V32.5H124.574V40.7979C124.574 43.8564 125.745 45.3857 128.086 45.3857C129.219 45.3857 130.149 44.9704 130.876 44.1396C131.612 43.2995 131.98 42.2044 131.98 40.8545V32.5H134.302V47ZM150.465 32.5L145.594 39.835L150.38 47H147.676L144.83 42.2988C144.65 42.0062 144.438 41.638 144.192 41.1943H144.136C144.089 41.2793 143.867 41.6475 143.47 42.2988L140.567 47H137.891L142.833 39.8916L138.104 32.5H140.808L143.612 37.4561C143.82 37.8242 144.022 38.2018 144.221 38.5889H144.277L147.902 32.5H150.465Z" fill="white"/>
</svg>
