<svg width="153" height="29" viewBox="0 0 153 29" fill="none" xmlns="http://www.w3.org/2000/svg">
<path d="M14.9364 8.95012C14.9364 10.6772 14.4247 12.0515 13.3906 13.0323C12.3671 14.0142 10.9385 14.4854 9.15803 14.4854H1.94035V22.6509L0 22.6892V3.45425L9.66975 3.41479C11.3329 3.41479 12.6443 3.88602 13.5505 4.86685C14.4674 5.88821 14.9364 7.223 14.9364 8.95012ZM12.9641 9.02794C12.9641 6.31998 11.6528 4.98519 9.04077 4.98519L1.9084 4.94576V12.9545H8.63564C11.5355 12.9545 12.9641 11.6591 12.9641 9.02794Z" fill="white"/>
<path d="M29.0838 16.3692C29.0838 18.4108 28.5294 20.0207 27.4633 21.1593C26.2372 22.4546 24.4888 23.0826 22.1967 23.0826C21.0773 23.0826 20.1283 22.9259 19.2967 22.6508C18.4651 22.3363 17.7508 21.8651 17.1645 21.1977C16.045 19.9812 15.4907 18.3319 15.4907 16.3692C15.4907 14.3681 16.0451 12.7582 17.1219 11.5802C18.3053 10.2848 20.011 9.61743 22.2286 9.61743C24.574 9.61743 26.3119 10.2454 27.506 11.5407C28.5294 12.6793 29.0838 14.2892 29.0838 16.3692ZM27.378 16.3692C27.378 12.7977 25.6402 10.9917 22.154 10.9917C20.5655 10.9917 19.3395 11.4629 18.4652 12.4437C18.0281 12.915 17.7189 13.4651 17.4737 14.1325C17.2391 14.7999 17.1645 15.5451 17.1645 16.3692C17.1645 18.0185 17.591 19.3138 18.4652 20.2957C19.3395 21.2766 20.5655 21.7478 22.1967 21.7478C23.9771 21.7478 25.3204 21.2371 26.1946 20.2563C26.6318 19.8245 26.9089 19.2744 27.1008 18.607C27.3034 17.979 27.378 17.2328 27.378 16.3692Z" fill="white"/>
<path d="M42.7514 19.1966C42.7514 21.7872 40.811 23.0826 36.8877 23.0826C35.7043 23.0826 34.6702 23.0037 33.8386 22.8075C33.007 22.6114 32.378 22.3363 31.8556 21.9045C31.4611 21.5911 31.152 21.1977 30.9067 20.6881C30.6722 20.1774 30.5124 19.51 30.4697 18.7648L32.2928 18.7253C32.2928 19.7456 32.6126 20.4919 33.2523 20.9631C33.924 21.5516 35.1499 21.8267 36.8877 21.8267C39.6276 21.8267 41.0136 21.0015 41.0136 19.3927C41.0136 18.4503 40.5339 17.7829 39.6277 17.43C39.4251 17.3511 38.3164 17.1549 36.3014 16.8799C34.2758 16.5664 33.007 16.3308 32.4953 16.0952C31.4291 15.5845 30.8749 14.6815 30.8749 13.3467C30.8749 12.0514 31.3439 11.1089 32.3354 10.4416C32.8152 10.1676 33.4015 9.97139 34.1158 9.85305C34.8301 9.69633 35.6618 9.61743 36.6106 9.61743C40.374 9.61743 42.2823 11.0311 42.2823 13.818H40.5339C40.5339 11.8552 39.2332 10.8733 36.5786 10.8733C35.2246 10.8733 34.233 11.0706 33.5614 11.4629C32.8897 11.8552 32.57 12.4832 32.57 13.3073C32.57 14.093 33.0071 14.6421 33.924 14.9566C34.4357 15.1528 35.6617 15.3489 37.5275 15.5845C39.2333 15.7807 40.3739 16.0163 41.0136 16.3308C42.165 16.9193 42.7514 17.8618 42.7514 19.1966Z" fill="white"/>
<path d="M50.6838 22.7286C50.4066 22.7681 50.1614 22.8075 49.9269 22.847C49.735 22.8853 49.575 22.8853 49.4897 22.8853C48.3063 22.8853 47.4321 22.6892 46.9203 22.2968C46.3979 21.8651 46.1207 21.1582 46.1207 20.1379V11.384H43.9458V10.0886H46.0887V5.92651H47.7519V10.127L50.6411 10.0886V11.384L47.7519 11.3446V19.8234C47.7519 20.4514 47.9119 20.8832 48.1891 21.1188C48.4663 21.3544 48.978 21.4727 49.7349 21.4727C49.8522 21.4727 49.9694 21.4727 50.0867 21.4333C50.204 21.3938 50.4066 21.3544 50.6838 21.3149V22.6113" fill="white"/>
<path d="M64.234 22.2969C64.234 26.1051 62.0485 28.0284 57.7307 28.0284C55.4705 28.0284 53.85 27.6755 52.9011 26.9292C52.0696 26.3013 51.5579 25.281 51.398 23.8673L53.0931 23.8279C53.2957 24.8481 53.6582 25.555 54.1699 25.9867C54.8842 26.5369 56.0356 26.8119 57.6987 26.8119C59.4365 26.8119 60.7052 26.4185 61.4622 25.6339C62.2084 24.8481 62.6028 23.749 62.6028 22.2969V20.0591C61.5794 21.669 59.799 22.4931 57.2936 22.4931C55.1933 22.4931 53.6155 21.944 52.4641 20.8054C51.9524 20.2553 51.5578 19.5879 51.2806 18.8032C51.0034 18.0185 50.8755 17.1155 50.8755 16.0942C50.8755 14.0536 51.4299 12.5227 52.5067 11.4619C53.6581 10.2849 55.2786 9.69531 57.4535 9.69531C58.9248 9.69531 60.1508 10.0098 61.0677 10.5983C61.3769 10.8339 61.8992 11.3841 62.6455 12.2871V10.1271H64.3087L64.234 22.2969ZM62.571 15.9769C62.571 14.4854 62.1338 13.2679 61.3022 12.3649C60.4706 11.4619 59.2446 10.9907 57.6135 10.9907C55.993 10.9907 54.7242 11.4235 53.85 12.3254C52.9758 13.2285 52.5387 14.446 52.5387 16.0164C52.5387 19.4312 54.2872 21.1188 57.7734 21.1188C58.5304 21.1188 59.202 21.0016 59.7991 20.7659C60.3854 20.5303 60.9078 20.1774 61.3449 19.7457C62.1338 18.8821 62.571 17.6252 62.571 15.9769Z" fill="white"/>
<path d="M73.9039 11.3446C73.3815 11.2667 72.9444 11.1878 72.5179 11.1878C69.778 11.1878 68.392 12.9544 68.392 16.4875V22.6113H66.729V10.0492L68.392 10.0098V12.287H68.4773C68.7545 11.384 69.181 10.7166 69.7781 10.2848C70.4497 9.85305 71.4411 9.61743 72.7525 9.61743C73.0296 9.61743 73.2322 9.61743 73.4241 9.61743C73.6267 9.61743 73.7866 9.61743 73.8613 9.65688L73.9039 11.3446Z" fill="white"/>
<path d="M87.5713 16.7231H75.7267C75.7267 18.1751 76.1211 19.3532 76.9101 20.2562C77.8269 21.3159 79.1703 21.865 80.9187 21.865C83.3708 21.865 84.9167 20.7658 85.5138 18.6069H87.2941C87.0169 19.8628 86.3773 20.8841 85.3858 21.7477C84.8314 22.1795 84.1598 22.5324 83.3708 22.768C82.6139 23.0036 81.7822 23.1603 80.876 23.1603C78.6158 23.1603 76.8675 22.4929 75.6414 21.1592C74.49 19.9417 73.9355 18.3318 73.9355 16.2913C73.9355 14.2497 74.5326 12.6398 75.7267 11.5012C76.9101 10.3242 78.5733 9.73462 80.7162 9.73462C81.8676 9.73462 82.8591 9.89241 83.7226 10.2453C84.5968 10.5598 85.3112 11.0694 85.9082 11.7368C87.017 12.9149 87.5713 14.5642 87.5713 16.7231ZM85.8228 15.5844C85.8228 14.3669 85.3538 13.3072 84.405 12.3264C83.4881 11.3839 82.262 10.8732 80.7908 10.8732C80.0445 10.8732 79.3728 10.9916 78.7331 11.2272C78.1361 11.4628 77.5818 11.7763 77.1127 12.2475C76.3984 13.0321 75.9186 14.1313 75.684 15.5844H85.8228Z" fill="white"/>
<path d="M109.246 17.5868C109.246 22.1008 106.196 24.3385 100.056 24.3385C96.3668 24.3385 93.7122 23.5539 92.0064 22.0229C90.6204 20.766 89.9487 18.8032 89.9487 16.2126H92.4009C92.4009 20.4131 94.9382 22.4942 100.056 22.4942C102.508 22.4942 104.256 22.0613 105.365 21.1977C106.271 20.4525 106.751 19.2745 106.751 17.6646C106.751 16.0558 106.111 14.9172 104.843 14.2893C104.128 13.9353 102.39 13.5035 99.6185 12.9939C96.1323 12.366 93.8722 11.737 92.838 11.109C91.3348 10.1676 90.5778 8.63668 90.5778 6.39889C90.5778 4.31781 91.2174 2.78686 92.4861 1.80603C93.8721 0.706855 96.2069 0.156738 99.5332 0.156738C105.557 0.156738 108.574 2.51179 108.574 7.22299H106.079C106.079 3.68986 103.851 1.9233 99.3734 1.9233C97.1558 1.9233 95.4926 2.27619 94.4691 2.98303C93.4776 3.72932 92.9978 4.86793 92.9978 6.31999C92.9978 7.85094 93.6375 8.95011 94.8956 9.57806C95.5779 9.93201 97.5502 10.4416 100.802 11.0696C103.894 11.6197 105.951 12.2476 107.028 12.9939C108.531 13.8575 109.246 15.3884 109.246 17.5868Z" fill="white"/>
<path d="M133.766 24.2596L132.263 25.8695L128.617 22.847C127.871 23.3183 126.911 23.7106 125.802 23.9462C124.694 24.1818 123.425 24.3385 121.922 24.3385C118.116 24.3385 115.152 23.2394 112.966 21.0016C110.791 18.7638 109.683 15.8202 109.683 12.1687C109.683 8.43943 110.749 5.49587 112.934 3.29752C115.109 1.09918 118.084 0 121.879 0C123.83 0 125.568 0.273991 127.114 0.863557C128.617 1.45206 129.928 2.31561 130.994 3.53313C133.02 5.69203 134.012 8.55777 134.012 12.1687C134.012 14.1709 133.692 15.9375 133.095 17.4684C132.466 18.9994 131.517 20.2947 130.248 21.3555L133.766 24.2596ZM131.634 12.2082C131.634 10.6378 131.432 9.22517 130.994 8.00765C130.557 6.75176 129.886 5.69203 128.979 4.74958C127.274 2.86574 124.896 1.92329 121.879 1.92329C118.915 1.92329 116.538 2.82629 114.747 4.63231C112.966 6.43725 112.06 8.98956 112.06 12.2476C112.06 15.3884 112.966 17.9002 114.747 19.7851C116.57 21.669 118.947 22.572 121.879 22.572C123.308 22.572 124.619 22.3364 125.77 21.9046C126.911 21.4728 127.988 20.8054 128.894 19.9418C130.717 17.9791 131.634 15.4268 131.634 12.2082Z" fill="white"/>
<path d="M152.477 23.75L135.59 23.7884V0.667379L137.935 0.62793V21.8257H152.509L152.477 23.75Z" fill="white"/>
</svg>
