<svg width="115" height="53" viewBox="0 0 115 53" fill="none" xmlns="http://www.w3.org/2000/svg">
<path d="M11.1323 4.71626C10.555 4.12749 9.75269 3.76496 8.85932 3.76496C7.96781 3.76496 7.17301 4.12749 6.60222 4.71626H6.5873C6.01186 5.30046 5.65399 6.116 5.65399 7.01709C5.65399 7.92348 6.01186 8.73381 6.5873 9.31232L6.60222 9.32835C7.17301 9.91199 7.96781 10.2695 8.85932 10.2695C9.75269 10.2695 10.555 9.91199 11.1323 9.32835L11.1387 9.31232C11.7179 8.73381 12.0702 7.92348 12.0702 7.01709C12.0702 6.116 11.7179 5.30046 11.1387 4.71626H11.1323ZM8.85932 49.235C9.75269 49.235 10.555 48.8657 11.1323 48.2878L11.1387 48.2712C11.7179 47.6942 12.0702 46.8787 12.0702 45.9825C12.0702 45.0763 11.7179 44.2644 11.1387 43.6772H11.1323C10.555 43.083 9.75269 42.7238 8.85932 42.7238C7.96781 42.7238 7.17301 43.083 6.60222 43.6772H6.5873C6.01186 44.2644 5.65399 45.0763 5.65399 45.9825C5.65399 46.8787 6.01186 47.6942 6.5873 48.2712L6.60222 48.2878C7.17301 48.8657 7.96781 49.235 8.85932 49.235ZM26.3241 39.3813C27.118 39.1694 27.8366 38.6525 28.2754 37.8706L28.3349 37.7563C28.7253 37.016 28.7969 36.1598 28.5877 35.4004C28.3776 34.5891 27.8627 33.8694 27.0929 33.4219L27.0483 33.391C26.2981 32.9732 25.4457 32.8822 24.662 33.0991C23.8644 33.301 23.1476 33.8396 22.7116 34.6149C22.27 35.3853 22.1771 36.2708 22.389 37.0861C22.6075 37.8882 23.1179 38.6125 23.8829 39.0651H23.8876C24.6536 39.5123 25.5191 39.592 26.3241 39.3813ZM12.1474 23.1671C11.3061 22.3159 10.145 21.7823 8.85932 21.7823C7.57644 21.7823 6.41814 22.3159 5.57869 23.1671C4.7411 24.0176 4.22517 25.1906 4.22517 26.4945C4.22517 27.7984 4.7411 28.9765 5.57869 29.837C6.41814 30.6831 7.57644 31.2117 8.85932 31.2117C10.145 31.2117 11.3061 30.6831 12.1474 29.837C12.9868 28.9765 13.5028 27.7984 13.5028 26.4945C13.5028 25.1906 12.9868 24.0176 12.1474 23.1671ZM10.2984 17.6246C12.1641 17.9363 13.8393 18.8428 15.1194 20.1516H15.1296C15.3332 20.3574 15.5312 20.5842 15.7153 20.811L18.916 18.9328C18.4855 17.6137 18.466 16.2347 18.8118 14.9408C19.2674 13.2092 20.3745 11.6585 22.0339 10.6872L22.0878 10.6521C23.7286 9.71008 25.5944 9.51423 27.2779 9.97684C28.9828 10.4405 30.5213 11.5685 31.4788 13.2493V13.2541C32.4317 14.9258 32.6251 16.8443 32.1705 18.5708C31.7168 20.3025 30.6059 21.8633 28.9484 22.8295L28.5115 23.0911H28.4669C26.9339 23.8317 25.2485 23.9476 23.6998 23.534C22.429 23.1921 21.2632 22.4717 20.3494 21.4504L17.1543 23.323C17.5215 24.3093 17.7242 25.3715 17.7242 26.4945C17.7242 27.6117 17.5215 28.6897 17.1543 29.6808L20.3494 31.5486C21.2632 30.5112 22.429 29.8069 23.6998 29.4643C25.4056 28.9914 27.2956 29.1924 28.9484 30.1695L29.0544 30.2195V30.2245C30.6506 31.2067 31.7215 32.7216 32.1705 34.433C32.6251 36.1498 32.4317 38.0689 31.4788 39.7439L31.4213 39.8607L31.4147 39.8506C30.4572 41.4656 28.9484 42.5594 27.2826 43.0221C25.5748 43.479 23.684 43.2838 22.0339 42.3208V42.3075C20.3745 41.3346 19.2674 39.7806 18.8118 38.0522C18.466 36.7643 18.4855 35.3853 18.916 34.0662L15.7153 32.1929C15.5312 32.4196 15.3332 32.6364 15.1296 32.8423L15.1194 32.8523C13.8393 34.1562 12.1641 35.0627 10.2984 35.3644V39.1161C11.6277 39.398 12.8176 40.0725 13.75 41.0188L13.7556 41.0287C15.005 42.2908 15.7794 44.0493 15.7794 45.9825C15.7794 47.9095 15.005 49.6579 13.7556 50.9266L13.75 50.9464C12.4913 52.2145 10.765 53 8.85932 53C6.96382 53 5.23285 52.2145 3.97693 50.9464H3.97228V50.9266C2.72008 49.6579 1.94481 47.9095 1.94481 45.9825C1.94481 44.0493 2.72008 42.2908 3.97228 41.0287V41.0188H3.97693C4.90842 40.0725 6.10114 39.398 7.42585 39.1161V35.3644C5.5601 35.0627 3.88768 34.1562 2.60945 32.8523L2.59646 32.8423C1.0003 31.2167 0 28.9765 0 26.4945C0 24.0176 1.0003 21.7772 2.59646 20.1516H2.60945C3.88768 18.8428 5.5601 17.9363 7.42585 17.6246V13.8887C6.10114 13.597 4.90842 12.9224 3.97693 11.9811H3.97228V11.9711C2.72008 10.6972 1.94481 8.95062 1.94481 7.01699C1.94481 5.0937 2.72008 3.33179 3.97228 2.06323L3.97693 2.05802C5.23285 0.784893 6.96382 0 8.85932 0C10.765 0 12.4914 0.784893 13.751 2.05802V2.06323H13.7556C15.0059 3.33179 15.7794 5.0937 15.7794 7.01699C15.7794 8.95062 15.0059 10.6972 13.7556 11.9711L13.751 11.9811C12.8177 12.9224 11.6277 13.597 10.2984 13.8887V17.6246ZM28.2754 15.1326L28.2484 15.0917C27.8069 14.3374 27.1031 13.8338 26.3241 13.6168C25.5191 13.4002 24.6536 13.4909 23.8829 13.9396H23.8876C23.1179 14.3823 22.6038 15.1068 22.3881 15.9179C22.1771 16.7233 22.27 17.6137 22.7116 18.3892L22.7265 18.4092C23.169 19.1745 23.8746 19.688 24.662 19.8948C25.4522 20.1215 26.3334 20.0257 27.0929 19.5771L27.1338 19.557C27.8822 19.1044 28.3804 18.3892 28.5877 17.6037C28.7997 16.7933 28.7151 15.9078 28.2754 15.1326Z" fill="white"/>
<path d="M42.4766 16.23H46.0472V27.2901L51.1973 21.5108H55.4792L49.2619 28.2063L55.5052 36.6935H51.4158L46.0472 29.1125V36.6935H42.4766V16.23Z" fill="white"/>
<path d="M59.6273 29.1675C59.6273 31.0508 60.9622 33.7887 64.1796 33.7887C66.1699 33.7887 67.4798 32.7365 68.1584 31.3576C68.5145 30.6882 68.6781 29.9728 68.7329 29.2281C68.758 28.5078 68.6241 27.7584 68.322 27.0933C67.6964 25.659 66.3066 24.4154 64.1527 24.4154C61.2653 24.4154 59.6273 26.7913 59.6273 29.1424V29.1675ZM72.2757 36.6934H68.7032V34.5091C67.7522 36.2757 65.7609 37.1619 63.6618 37.1619C58.8631 37.1619 56.0566 33.371 56.0566 29.0875C56.0566 24.3044 59.4636 21.042 63.6618 21.042C66.3875 21.042 68.0496 22.5075 68.7032 23.7257V21.5107H72.2757V36.6934Z" fill="white"/>
<path d="M76.3196 24.3042H74.4688V21.5104H76.3196V20.6549C76.3196 16.1438 79.7006 15.8718 82.2636 15.8418V18.6307C81.3628 18.6307 79.8922 18.6307 79.8922 20.765V21.5104H82.2636V24.3042H79.8922V36.6931H76.3196V24.3042Z" fill="white"/>
<path d="M84.6924 16.23H88.2622V27.2901L93.4132 21.5108H97.695L91.4777 28.2063L97.7192 36.6935H93.6308L88.2622 29.1125V36.6935H84.6924V16.23Z" fill="white"/>
<path d="M101.843 29.1675C101.843 31.0508 103.178 33.7887 106.394 33.7887C108.382 33.7887 109.692 32.7365 110.372 31.3576C110.729 30.6882 110.894 29.9728 110.948 29.2281C110.972 28.5078 110.838 27.7584 110.536 27.0933C109.911 25.659 108.521 24.4154 106.368 24.4154C103.48 24.4154 101.843 26.7913 101.843 29.1424V29.1675ZM114.491 36.6934H110.918V34.5091C109.965 36.2757 107.976 37.1619 105.877 37.1619C101.079 37.1619 98.2754 33.371 98.2754 29.0875C98.2754 24.3044 101.68 21.042 105.877 21.042C108.601 21.042 110.264 22.5075 110.918 23.7257V21.5107H114.491V36.6934Z" fill="white"/>
</svg>
