<svg width="172" height="68" viewBox="0 0 172 68" fill="none" xmlns="http://www.w3.org/2000/svg">
<path d="M14.6637 1.30688C15.168 2.24609 15.8536 3.72766 16.4299 4.62963C16.8273 5.24412 17.2596 5.7853 17.7651 6.29156C19.2433 7.77195 20.6493 9.32566 21.9112 10.9864C24.9047 14.9225 26.9242 19.2927 28.3663 24.0248C29.2319 26.9134 29.7003 29.8754 29.7363 32.8723C29.8805 41.829 26.8161 49.5219 20.6133 55.9149C19.6035 56.9262 18.5217 57.8643 17.3677 58.6953C16.7554 58.6953 16.466 58.2262 16.2138 57.7921C15.7456 56.9984 15.4573 56.0953 15.3122 55.1921C15.096 54.1085 14.9519 53.0251 15.024 51.9055C15.024 51.725 15.024 51.5808 15.024 51.4003C14.9879 51.2921 14.4475 1.56059 14.6637 1.30688Z" fill="#E8E9EA"/>
<path d="M14.6645 1.20006C14.5925 1.05459 14.5204 1.164 14.4483 1.23615C14.4844 1.95773 14.2322 2.6083 13.8359 3.22163C13.4025 3.83614 12.8262 4.30516 12.2487 4.81142C9.03913 7.5918 6.51521 10.9506 4.49562 14.7074C1.8276 19.7631 0.421565 25.1807 0.0253138 30.8869C-0.155962 32.9457 0.673693 40.2046 1.32327 42.2995C3.08955 47.8614 6.26304 52.5202 10.3743 56.5645C11.3841 57.5397 12.4659 58.4429 13.5838 59.31C13.908 59.31 13.944 59.0213 14.0161 58.8036C14.1601 58.3347 14.2683 57.8657 14.3403 57.3955C14.6645 55.5904 14.8457 53.7841 15.0619 51.9779C15.0619 51.7613 14.7738 1.38045 14.6645 1.20006Z" fill="white"/>
<path d="M16.433 60.8984C16.5051 60.0674 16.9025 59.3809 17.3348 58.6953C16.9025 58.5149 16.5772 58.153 16.325 57.7561C16.1088 57.3953 15.9287 56.9612 15.7846 56.5643C15.2792 55.0479 15.1711 53.4581 15.027 51.9055C15.027 51.7612 15.027 51.5797 15.027 51.4354C15.027 51.291 15.027 51.1107 15.027 50.9663C14.8469 51.1107 14.8109 52.3384 14.8109 52.5189C14.7028 54.1808 14.4855 55.8055 14.1613 57.3953C14.0532 58.0448 13.9811 58.6953 13.585 59.2725C13.585 59.3447 13.585 59.4169 13.6209 59.5251C14.2693 61.4397 14.4495 63.3901 14.5587 65.3769V66.0985C14.5587 66.9655 14.5216 66.785 15.2432 67.0737C15.5313 67.1819 15.8567 67.218 16.1448 67.4344C16.3611 67.4344 16.397 67.2541 16.397 67.1097C16.3611 66.713 16.289 66.3149 16.289 65.918C16.289 64.7984 16.253 63.7149 16.289 62.5953C16.253 62.018 16.3611 61.4396 16.433 60.8984Z" fill="#E8E9EA"/>
<path d="M43.8183 45.7978V49.238C43.8183 49.3742 43.8183 49.5092 43.8405 49.6454C43.8858 50.0528 44.1345 50.3018 44.518 50.4146C44.8572 50.5054 45.2187 50.573 45.5579 50.6183C45.7613 50.6416 45.8287 50.7313 45.8519 50.9349C45.874 51.7054 45.8066 51.795 45.0606 51.7496C43.321 51.6599 41.5803 51.6367 39.8407 51.7496C39.7734 51.7496 39.706 51.7496 39.6607 51.7496C39.118 51.7728 39.0727 51.7275 39.0727 51.1839C39.0727 51.0932 39.0959 50.9803 39.0959 50.8895C39.0959 50.7091 39.2086 50.6416 39.3667 50.6416C39.728 50.5962 40.0674 50.5054 40.4055 50.438C40.8808 50.3239 41.1515 50.0307 41.1969 49.5547C41.2642 49.0343 41.2643 48.4909 41.2643 47.9706C41.3328 45.9561 41.3096 43.9194 41.2876 41.9059C41.2876 41.5207 41.1295 41.2274 40.7901 41.0458C40.3834 40.8201 39.9535 40.6385 39.5026 40.5024C39.3667 40.4569 39.2307 40.4348 39.118 40.3674C38.8019 40.2079 38.7786 39.9146 39.0959 39.7331C39.2086 39.6655 39.3434 39.6202 39.4794 39.5969C40.8576 39.3932 42.1904 39.0546 43.5012 38.5786C43.7731 38.4889 43.8404 38.511 43.8626 38.7822C43.8858 38.9638 43.8626 39.1453 43.8405 39.3037C43.7951 39.5969 43.7951 39.8913 43.7951 40.1636C43.7951 40.2766 43.8183 40.3895 43.9312 40.4569C44.0439 40.5256 44.1566 40.4569 44.2472 40.3895C44.7213 40.0275 45.1965 39.6876 45.716 39.3932C46.4619 38.9859 47.2521 38.6239 48.1109 38.511C49.1509 38.3749 50.0538 38.6472 50.8451 39.3258C51.1845 39.6202 51.4552 39.96 51.7039 40.322C51.9294 40.6385 51.9526 40.6606 52.2454 40.4348C53.1042 39.8006 54.0082 39.235 54.9797 38.8277C55.9964 38.3981 57.0364 38.3307 58.0753 38.6926C59.1374 39.0767 59.8602 39.8239 60.2902 40.8422C60.6515 41.6569 60.8096 42.517 60.8096 43.377V47.4051V49.4417C60.8096 49.8491 60.9908 50.1202 61.3742 50.3018C61.8042 50.4822 62.2784 50.5509 62.7303 50.6416C63.0243 50.7091 63.0244 50.7091 63.0244 51.0035C62.979 51.7496 62.9104 51.795 62.1877 51.7496C60.3807 51.6367 58.5506 51.6599 56.7424 51.7496C56.381 51.7728 56.381 51.7728 56.3578 51.4109C56.3578 51.3655 56.3578 51.3423 56.3578 51.2981C56.3357 50.6858 56.3357 50.6858 56.9237 50.5509C57.1271 50.5054 57.3072 50.4601 57.5106 50.3925C57.9626 50.2564 58.188 49.962 58.2112 49.5092C58.2333 48.9436 58.2565 48.3779 58.2787 47.8124C58.2787 46.3413 58.3239 44.848 58.2333 43.377C58.2112 42.9918 58.1438 42.6077 57.9847 42.2224C57.4199 40.8422 56.1777 40.3441 54.9797 40.4803C54.0768 40.5711 53.2854 40.9329 52.5394 41.4533C52.3813 41.5661 52.2686 41.7022 52.2907 41.928C52.494 43.377 52.3593 44.8248 52.3813 46.2738C52.4046 47.3143 52.3813 48.378 52.3813 49.4196C52.3813 49.9852 52.608 50.2564 53.1494 50.3925C53.4887 50.4822 53.8281 50.5509 54.1895 50.6183C54.3476 50.6416 54.4381 50.7091 54.4381 50.8906V51.0711C54.4149 51.7054 54.3696 51.7496 53.7374 51.7275C51.9294 51.6367 50.1224 51.6599 48.3363 51.7275C47.7262 51.7496 47.6589 51.682 47.7042 51.049C47.7262 50.6858 47.7716 50.6637 48.1109 50.5962C48.3596 50.5509 48.6082 50.5054 48.8569 50.4601C49.5344 50.3239 49.7609 50.0749 49.8052 49.3742C49.8284 48.8761 49.8736 48.3558 49.8736 47.8577C49.8958 46.3413 49.9411 44.8248 49.8284 43.3083C49.783 42.7428 49.6471 42.2003 49.3542 41.679C48.9023 40.8422 48.1783 40.4127 47.23 40.3674C46.2586 40.2987 45.3999 40.6606 44.5865 41.1134C44.0218 41.431 43.7731 41.8385 43.8183 42.4937C43.8404 43.6261 43.7951 44.7119 43.8183 45.7978C43.7951 45.7978 43.8183 45.7978 43.8183 45.7978Z" fill="white"/>
<path d="M86.3862 45.9342V49.1253C86.3862 49.3512 86.4094 49.5781 86.4315 49.8039C86.4768 50.1438 86.658 50.3474 86.9742 50.4382C87.3588 50.5511 87.7655 50.6186 88.1722 50.6419C88.3976 50.6639 88.443 50.7547 88.465 50.9363V51.0946C88.443 51.886 88.3523 51.9768 87.5842 51.9314C85.8667 51.8185 84.1493 51.8406 82.4329 51.9314C82.2064 51.9314 81.9809 51.9546 81.7543 51.9546C81.6195 51.9546 81.5742 51.886 81.551 51.7952C81.4835 51.4786 81.4835 51.1621 81.551 50.8455C81.5742 50.7094 81.6637 50.6639 81.7996 50.6419C82.1157 50.5964 82.4097 50.529 82.7258 50.4603C83.2917 50.3253 83.495 50.0983 83.5171 49.5106C83.5625 48.8763 83.5845 48.2432 83.5845 47.6089C83.5845 45.7538 83.5845 43.8975 83.5845 42.0423C83.5845 41.635 83.4265 41.3859 83.0651 41.2044C82.6583 40.9786 82.2296 40.8203 81.7775 40.6621C81.6416 40.6166 81.5057 40.5713 81.3929 40.5026C81.0989 40.2989 81.0768 40.0056 81.3476 39.7786C81.4835 39.6657 81.6195 39.6204 81.7996 39.5983C83.2463 39.3713 84.6466 39.0548 86.0027 38.5113C86.1607 38.4438 86.2281 38.4891 86.2967 38.6253C86.364 38.7603 86.3862 38.9186 86.364 39.0769C86.342 39.44 86.3188 39.7787 86.2967 40.1406C86.2967 40.2768 86.2281 40.4584 86.342 40.5258C86.4767 40.6166 86.5675 40.413 86.6802 40.3443C87.3588 39.802 88.0815 39.3039 88.8717 38.9419C89.5724 38.6253 90.2952 38.3983 91.1086 38.4438C92.6228 38.5346 93.7081 39.3039 94.4076 40.6387C94.7702 41.3406 94.9283 42.1098 94.9956 42.9024C95.041 43.4447 95.063 44.0104 95.063 44.5772C95.063 46.1379 95.0862 47.6776 95.0862 49.2382V49.5781C95.1083 49.9622 95.2443 50.2112 95.6278 50.3474C96.0345 50.4835 96.4191 50.5732 96.8479 50.6419C97.2104 50.6872 97.2325 50.7547 97.2546 51.0946V51.2075C97.2104 51.9768 97.1651 51.9989 96.3971 51.9546C94.7016 51.8638 93.0074 51.8638 91.3353 51.9546C91.1086 51.9768 90.8832 51.9546 90.6578 51.9768C90.5218 51.9768 90.4311 51.9546 90.4091 51.8185C90.3637 51.524 90.3184 51.2296 90.3859 50.9131C90.4091 50.7768 90.4764 50.7094 90.6345 50.6872C90.9738 50.6419 91.3353 50.5965 91.6745 50.5057C92.036 50.415 92.2393 50.1891 92.2846 49.8272C92.3066 49.6236 92.3287 49.3965 92.3287 49.1929C92.3287 47.6089 92.3288 46.025 92.3067 44.4631C92.3067 43.9207 92.2846 43.3772 92.1707 42.8337C91.8999 41.6571 91.0191 40.8657 89.8211 40.7295C88.7822 40.6166 87.855 40.8878 86.9742 41.4535C86.5453 41.7246 86.364 42.1099 86.364 42.5846V44.9845V46.0029C86.364 45.9342 86.3641 45.9342 86.3862 45.9342Z" fill="white"/>
<path d="M152.569 39.5295C152.32 37.8769 151.71 36.4058 150.647 35.1163C149.699 33.9618 148.547 33.1017 147.169 32.536C145.745 31.9484 144.231 31.7668 142.694 31.7214C142.061 31.6993 133.43 31.8343 132.798 31.7214C132.639 31.6993 132.527 31.7447 132.437 31.8797C132.323 32.0613 132.209 32.2195 132.142 32.4011C131.872 33.0121 131.872 32.9667 132.527 33.0563C133.068 33.1471 133.589 33.1925 134.108 33.3508C134.582 33.509 134.922 33.7813 135.035 34.3017C135.08 34.5506 135.125 42.5159 135.125 46.2274C135.125 47.1107 135.101 47.9929 135.035 48.8751C135.012 49.0787 134.989 49.2824 134.922 49.464C134.831 49.7352 134.673 49.9621 134.402 50.0749C134.108 50.2112 133.792 50.3007 133.453 50.324C132.843 50.3915 132.752 50.4148 132.549 51.0933C132.527 51.1841 132.503 51.2749 132.482 51.3423C132.437 51.6368 132.458 51.6822 132.752 51.6822C134.108 51.7043 138.379 51.7497 139.508 51.7497C140.142 51.7264 141.159 51.7951 142.152 51.7043C142.762 51.6368 143.372 51.5914 143.982 51.4786C146.061 51.0933 147.914 50.2333 149.496 48.853C150.422 48.0382 151.122 47.0874 151.664 46.0015C152.298 44.7341 152.569 43.3538 152.636 41.9503C152.75 41.1589 152.704 40.3442 152.569 39.5295ZM149.293 42.7428C149.202 44.1907 148.908 45.5942 148.163 46.8616C147.214 48.5131 145.857 49.6676 143.982 50.0749C143.168 50.2565 142.355 50.324 141.52 50.2112C140.91 50.1425 140.321 50.0749 139.757 49.8713C138.741 49.5094 138.378 48.8751 138.356 47.9021C138.312 46.4764 138.356 36.4966 138.333 34.2562C138.333 33.4416 138.695 33.26 139.283 33.2379C140.164 33.1704 141.068 33.1925 141.949 33.2832C142.898 33.374 143.802 33.5998 144.683 33.9618C145.338 34.2341 145.949 34.6182 146.468 35.0708C147.688 36.1114 148.502 37.4241 148.932 38.9639C149.293 40.208 149.36 41.4754 149.293 42.7428Z" fill="white"/>
<path d="M171.347 44.96C171.347 44.8239 171.347 44.711 171.325 44.5748C171.121 43.3295 170.466 42.3799 169.45 41.6559C168.793 41.1799 168.049 40.8634 167.28 40.6376C167.145 40.5923 167.033 40.5468 166.896 40.5236C166.919 40.4106 166.986 40.3885 167.054 40.3653C167.507 40.1395 167.936 39.8904 168.319 39.5506C169.021 38.9629 169.495 38.2378 169.721 37.3556C169.856 36.8807 169.856 36.4047 169.812 35.9078C169.697 34.6625 169.157 33.6896 168.162 32.9656C167.123 32.1963 165.902 31.8786 164.637 31.8565C162.197 31.8111 159.734 31.8565 157.293 31.8565C156.593 31.8565 155.893 31.9019 155.169 31.789C155.034 31.7657 154.853 31.7203 154.74 31.8786C154.559 32.1731 154.379 32.4675 154.31 32.8074C154.288 32.9656 154.334 33.0552 154.514 33.0785C155.034 33.146 155.554 33.2368 156.073 33.3044C156.683 33.3951 157.113 33.7349 157.157 34.2773C157.203 34.6625 157.225 35.0244 157.225 35.4096C157.225 36.8121 157.203 38.2378 157.18 39.6414C157.135 42.4252 157.157 45.2312 157.157 48.0151C157.157 48.5121 157.089 48.9881 156.999 49.485C156.932 49.8248 156.75 50.0519 156.413 50.1647C155.96 50.2997 155.53 50.4358 155.056 50.4358C154.762 50.4358 154.582 50.5487 154.469 50.821C154.379 51.0247 154.288 51.2506 154.265 51.4542C154.221 51.7266 154.288 51.8161 154.559 51.7708C154.762 51.7487 162.219 51.9302 163.621 51.794C164.456 51.7032 165.292 51.5904 166.106 51.3414C167.529 50.8886 168.839 50.2322 169.878 49.1231C170.737 48.2188 171.235 47.1317 171.279 45.8643C171.347 45.5711 171.347 45.2766 171.347 44.9589V44.96ZM160.389 35.7041C160.434 35.0931 160.434 34.5042 160.456 33.8932C160.456 33.5533 160.592 33.3951 160.931 33.3276C161.473 33.2147 162.015 33.2589 162.558 33.2821C163.099 33.3276 163.621 33.3951 164.162 33.5533C165.156 33.8478 165.925 34.4134 166.376 35.3643C166.58 35.7937 166.693 36.2697 166.693 36.7446C166.716 37.3777 166.67 37.9888 166.422 38.5997C166.038 39.4377 165.427 39.9812 164.546 40.1395C163.666 40.2977 161.157 40.2303 160.774 40.2303C160.434 40.2303 160.411 40.1848 160.411 39.845C160.411 39.1211 160.411 38.3961 160.411 37.6955C160.366 37.0611 160.344 36.3826 160.389 35.7041ZM167.733 47.8789C167.348 48.8973 166.648 49.5991 165.654 49.9832C165.111 50.1868 164.569 50.2997 163.982 50.2776C163.281 50.2555 162.58 50.2776 161.879 50.1414C160.931 49.9377 160.501 49.0334 160.434 48.377C160.321 47.2225 160.389 46.0459 160.366 45.1859C160.366 43.9859 160.366 43.1037 160.366 42.1983C160.366 41.8363 160.411 41.7234 160.795 41.7234C161.496 41.7002 162.197 41.678 162.919 41.7455C163.417 41.791 163.891 41.8363 164.365 41.9271C165.382 42.1529 166.309 42.5381 167.033 43.3295C167.619 43.9638 167.936 44.7331 168.003 45.5711C168.071 46.3625 168.026 47.1317 167.733 47.8789Z" fill="white"/>
<path d="M110.317 41.0463C110.52 41.0684 110.724 41.1137 110.905 41.137C111.537 41.1591 112.283 40.9334 112.509 40.0499C112.623 39.6205 112.645 39.2132 112.509 38.7604C112.374 38.7604 112.305 38.8733 112.238 38.9188C111.899 39.19 111.515 39.3494 111.109 39.3936C110.295 39.4844 109.482 39.439 108.69 39.1456C108.329 39.0095 107.968 38.8733 107.583 38.7604C106.815 38.5114 106.001 38.3986 105.188 38.4439C104.036 38.5347 102.951 38.9188 101.934 39.4623C100.85 40.05 100.082 40.9334 99.7207 42.1321C99.5172 42.8339 99.494 43.5578 99.5847 44.2828C99.8102 45.9343 100.669 47.0888 102.205 47.6998C102.296 47.7219 102.364 47.7674 102.454 47.7906C102.657 47.9035 102.68 48.0164 102.499 48.1747C102.319 48.3108 102.138 48.4459 101.934 48.5599C101.482 48.8311 101.03 49.1022 100.578 49.3967C100.24 49.6003 100.195 49.7586 100.307 50.1206C100.443 50.5512 100.692 50.9132 101.03 51.2076C101.347 51.4788 101.686 51.6825 102.07 51.8407C102.319 51.9537 102.319 52.0222 102.092 52.2027C101.664 52.5192 101.234 52.8137 100.805 53.1314C100.375 53.448 99.9461 53.81 99.5847 54.2173C99.0653 54.805 98.884 55.4847 99.0421 56.254C99.2233 57.0686 99.6067 57.7251 100.217 58.2907C100.805 58.8341 101.506 59.2182 102.296 59.4219C103.561 59.7839 104.872 59.8071 106.159 59.5581C108.013 59.2182 109.616 58.3815 110.905 57.0011C111.786 56.0724 112.305 54.9866 112.351 53.6737C112.419 52.0898 111.447 50.7548 109.91 50.3696C109.504 50.2788 109.097 50.2114 108.69 50.1439C107.448 49.9856 106.205 49.917 104.963 49.8273C104.556 49.8041 104.149 49.7365 103.81 49.5329C103.381 49.2605 103.267 48.7403 103.539 48.4016C103.742 48.1526 103.991 47.9943 104.307 47.971C104.556 47.9489 104.781 47.9256 105.03 47.9035C106.499 47.7453 107.764 47.1563 108.848 46.1601C109.413 45.6399 109.798 44.9835 110.001 44.2375C110.272 43.2645 110.272 42.2682 110.046 41.272C109.979 41.0229 110.001 41.0008 110.317 41.0463ZM104.781 52.3156C104.917 52.3389 105.053 52.3156 105.188 52.3156C106.137 52.361 107.109 52.4297 108.035 52.6787C108.351 52.7683 108.623 52.8823 108.917 53.0173C109.82 53.5155 110.159 54.3755 110.046 55.3031C109.91 56.3214 109.346 57.0454 108.465 57.5214C107.877 57.8379 107.221 57.9963 106.544 58.0637C106.295 58.0871 106.07 58.0637 105.821 58.0637C105.03 58.0871 104.262 57.9963 103.516 57.6796C102.996 57.476 102.568 57.1815 102.183 56.7742C101.392 55.9828 101.008 54.5338 102.205 53.3572C102.929 52.6787 103.742 52.2259 104.781 52.3156ZM107.357 45.2558C106.883 46.4545 105.843 46.8165 104.805 46.6582C103.855 46.5232 103.154 46.0017 102.702 45.1418C102.116 43.9884 101.958 42.7885 102.296 41.5443C102.544 40.6156 103.109 39.915 104.104 39.7567C105.369 39.5297 106.566 39.9825 107.222 41.2499C107.538 41.8609 107.697 42.6081 107.697 43.6718C107.674 44.1013 107.583 44.6901 107.357 45.2558Z" fill="white"/>
<path d="M78.8858 43.7147C78.6824 42.4927 78.2304 41.3835 77.3949 40.456C76.1516 39.0757 74.5701 38.4869 72.7851 38.4646C71.2257 38.4425 69.7569 38.8942 68.4473 39.7088C67.1365 40.5235 66.2325 41.678 65.8037 43.1713C65.4191 44.484 65.4412 45.8201 65.7351 47.155C66.5265 50.7303 69.2828 52.2689 72.5818 52.0431C73.5532 51.9756 74.4794 51.6579 75.3614 51.2284C76.6721 50.6174 77.6203 49.6444 78.2758 48.3538C78.7952 47.29 79.0217 46.1587 78.9985 44.8692C78.9764 44.5527 78.9544 44.122 78.8858 43.7147ZM75.6774 48.739C75.2707 49.8248 74.5026 50.4813 73.3499 50.6395C72.3564 50.7757 71.429 50.5266 70.5936 49.9388C69.9835 49.4862 69.5094 48.9194 69.1701 48.2409C68.244 46.3403 68.0859 44.349 68.56 42.3123C68.7181 41.678 69.0341 41.1124 69.5094 40.6597C70.3449 39.8904 71.3163 39.7088 72.4005 39.9358C73.4405 40.1616 74.2318 40.7271 74.864 41.5872C75.4961 42.4473 75.8133 43.4435 75.9935 44.484C76.0841 45.0054 76.0841 45.5477 76.1062 45.8876C76.1062 46.9735 76.0168 47.8568 75.6774 48.739Z" fill="white"/>
<path d="M128.257 43.8973C128.077 42.5844 127.603 41.3846 126.676 40.3895C125.456 39.0545 123.874 38.4878 122.111 38.4657C120.598 38.4436 119.197 38.8731 117.91 39.6202C116.462 40.4803 115.469 41.7023 115.084 43.3537C114.632 45.2101 114.814 47.0198 115.627 48.74C116.372 50.3239 117.638 51.3422 119.309 51.795C121.163 52.2931 122.925 52.0662 124.642 51.2294C126.134 50.5055 127.196 49.3731 127.806 47.8345C128.167 46.929 128.302 45.9561 128.326 44.8249C128.348 44.6211 128.302 44.2593 128.257 43.8973ZM125.139 48.4456C124.778 49.6675 124.01 50.4601 122.721 50.6405C121.773 50.7766 120.869 50.5508 120.056 50.0074C119.355 49.5325 118.858 48.8982 118.496 48.151C118.089 47.3596 117.864 46.5217 117.774 45.6616C117.638 44.599 117.638 43.5574 117.886 42.4937C117.931 42.29 117.999 42.0863 118.089 41.8827C118.723 40.2987 120.123 39.5749 121.773 39.9367C122.881 40.1858 123.716 40.7968 124.348 41.7244C124.958 42.6299 125.252 43.6249 125.388 44.6887C125.456 45.1193 125.479 45.572 125.456 45.9561C125.456 46.8394 125.388 47.6542 125.139 48.4456Z" fill="white"/>
</svg>
