<svg width="230" height="46" viewBox="0 0 230 46" fill="none" xmlns="http://www.w3.org/2000/svg">
<g clip-path="url(#clip0)">
<path d="M26 27.6095C28.5597 27.6095 30.6348 25.5462 30.6348 23.0011C30.6348 20.456 28.5597 18.3928 26 18.3928C23.4403 18.3928 21.3652 20.456 21.3652 23.0011C21.3652 25.5462 23.4403 27.6095 26 27.6095Z" fill="white"/>
<path d="M26.0004 32.4424C39.7355 32.4424 50.87 28.2154 50.87 23.001C50.87 17.7866 39.7355 13.5596 26.0004 13.5596C12.2653 13.5596 1.13086 17.7866 1.13086 23.001C1.13086 28.2154 12.2653 32.4424 26.0004 32.4424Z" stroke="white"/>
<path d="M17.7769 27.7218C24.6444 39.5489 33.8935 47.023 38.4352 44.4158C42.9768 41.8086 41.0914 30.1074 34.2238 18.2804C27.3563 6.45341 18.1073 -1.02074 13.5656 1.58644C9.02389 4.19362 10.9094 15.8948 17.7769 27.7218Z" stroke="white"/>
<path d="M17.7765 18.2804C10.9089 30.1074 9.02347 41.8086 13.5652 44.4158C18.1069 47.023 27.3559 39.5488 34.2234 27.7218C41.091 15.8948 42.9764 4.19359 38.4347 1.58641C33.893 -1.02076 24.644 6.45338 17.7765 18.2804Z" stroke="white"/>
</g>
<path d="M76.2188 35H73.3867L69.9883 29.3076C69.6768 28.779 69.3747 28.3306 69.082 27.9624C68.7894 27.5848 68.4873 27.278 68.1758 27.042C67.8737 26.806 67.5433 26.6361 67.1846 26.5322C66.8353 26.4189 66.4388 26.3623 65.9951 26.3623H64.041V35H61.6621V14.6943H67.7227C68.61 14.6943 69.4266 14.8076 70.1724 15.0342C70.9276 15.2513 71.5789 15.5864 72.1265 16.0396C72.6834 16.4927 73.1177 17.0591 73.4292 17.7388C73.7407 18.409 73.8965 19.1973 73.8965 20.1035C73.8965 20.8115 73.7879 21.4629 73.5708 22.0576C73.3631 22.6429 73.061 23.1668 72.6646 23.6294C72.2775 24.092 71.8055 24.4884 71.2485 24.8188C70.701 25.1398 70.0827 25.39 69.3936 25.5693V25.626C69.7334 25.777 70.026 25.9517 70.2715 26.1499C70.5264 26.3387 70.7671 26.5653 70.9937 26.8296C71.2202 27.0939 71.4421 27.396 71.6592 27.7358C71.8857 28.0662 72.1359 28.4533 72.4097 28.897L76.2188 35ZM64.041 16.8467V24.21H67.2695C67.8643 24.21 68.4118 24.1203 68.9121 23.9409C69.4219 23.7616 69.8608 23.5067 70.229 23.1763C70.5972 22.8364 70.8851 22.4258 71.0928 21.9443C71.3005 21.4535 71.4043 20.9059 71.4043 20.3018C71.4043 19.2161 71.0503 18.3713 70.3423 17.7671C69.6437 17.1535 68.6289 16.8467 67.2979 16.8467H64.041ZM91.2347 28.3306H80.997C81.0347 29.9448 81.469 31.1909 82.2997 32.0688C83.1304 32.9468 84.2727 33.3857 85.7264 33.3857C87.3596 33.3857 88.8606 32.8477 90.2294 31.7715V33.9521C88.955 34.8773 87.2699 35.3398 85.1742 35.3398C83.1257 35.3398 81.5162 34.6838 80.3456 33.3716C79.175 32.05 78.5897 30.195 78.5897 27.8066C78.5897 25.5505 79.2269 23.7144 80.5013 22.2983C81.7852 20.8729 83.3759 20.1602 85.2733 20.1602C87.1708 20.1602 88.6387 20.7738 89.6771 22.001C90.7155 23.2282 91.2347 24.9321 91.2347 27.1128V28.3306ZM88.8558 26.3623C88.8464 25.0218 88.5207 23.9787 87.8788 23.2329C87.2463 22.4871 86.3637 22.1143 85.2308 22.1143C84.1358 22.1143 83.2059 22.506 82.4413 23.2896C81.6766 24.0731 81.2046 25.0973 81.0253 26.3623H88.8558ZM106.01 35H103.688V32.7344H103.631C102.621 34.4714 101.134 35.3398 99.1707 35.3398C97.7263 35.3398 96.5935 34.9575 95.7722 34.1929C94.9604 33.4282 94.5545 32.4134 94.5545 31.1484C94.5545 28.4391 96.1498 26.8626 99.3406 26.4189L103.688 25.8101C103.688 23.3462 102.692 22.1143 100.7 22.1143C98.9535 22.1143 97.377 22.709 95.9705 23.8984V21.5195C97.3959 20.6133 99.0385 20.1602 100.898 20.1602C104.306 20.1602 106.01 21.9632 106.01 25.5693V35ZM103.688 27.665L100.19 28.1465C99.114 28.2975 98.3022 28.5666 97.7547 28.9536C97.2071 29.3312 96.9334 30.0062 96.9334 30.9785C96.9334 31.6865 97.1835 32.2671 97.6838 32.7202C98.1936 33.1639 98.8686 33.3857 99.7088 33.3857C100.86 33.3857 101.809 32.9845 102.555 32.1821C103.31 31.3703 103.688 30.346 103.688 29.1094V27.665ZM121.139 34.3345C120.025 35.0047 118.704 35.3398 117.174 35.3398C115.107 35.3398 113.436 34.6696 112.162 33.3291C110.897 31.9792 110.264 30.2327 110.264 28.0898C110.264 25.7015 110.949 23.7852 112.318 22.3408C113.686 20.887 115.513 20.1602 117.798 20.1602C119.072 20.1602 120.195 20.3962 121.168 20.8682V23.2471C120.091 22.4919 118.94 22.1143 117.713 22.1143C116.23 22.1143 115.013 22.6476 114.059 23.7144C113.115 24.7716 112.643 26.1641 112.643 27.8916C112.643 29.5908 113.087 30.9313 113.974 31.9131C114.871 32.8949 116.07 33.3857 117.571 33.3857C118.836 33.3857 120.025 32.9657 121.139 32.1255V34.3345ZM132.247 34.8584C131.7 35.1605 130.977 35.3115 130.081 35.3115C127.541 35.3115 126.272 33.8955 126.272 31.0635V22.4824H123.779V20.5H126.272V16.96L128.594 16.2095V20.5H132.247V22.4824H128.594V30.6528C128.594 31.6252 128.759 32.319 129.089 32.7344C129.42 33.1497 129.967 33.3574 130.732 33.3574C131.317 33.3574 131.822 33.1969 132.247 32.876V34.8584ZM161.727 35H158.81L148.36 18.8149C148.095 18.409 147.878 17.9842 147.708 17.5405H147.623C147.699 17.9748 147.737 18.9046 147.737 20.3301V35H145.358V14.6943H148.445L158.612 30.6245C159.036 31.2853 159.31 31.7384 159.433 31.9839H159.49C159.395 31.3986 159.348 30.4027 159.348 28.9961V14.6943H161.727V35ZM177.989 35H175.667V32.7344H175.61C174.6 34.4714 173.113 35.3398 171.15 35.3398C169.705 35.3398 168.572 34.9575 167.751 34.1929C166.939 33.4282 166.533 32.4134 166.533 31.1484C166.533 28.4391 168.129 26.8626 171.319 26.4189L175.667 25.8101C175.667 23.3462 174.671 22.1143 172.679 22.1143C170.932 22.1143 169.356 22.709 167.949 23.8984V21.5195C169.375 20.6133 171.017 20.1602 172.877 20.1602C176.285 20.1602 177.989 21.9632 177.989 25.5693V35ZM175.667 27.665L172.169 28.1465C171.093 28.2975 170.281 28.5666 169.734 28.9536C169.186 29.3312 168.912 30.0062 168.912 30.9785C168.912 31.6865 169.162 32.2671 169.663 32.7202C170.173 33.1639 170.847 33.3857 171.688 33.3857C172.839 33.3857 173.788 32.9845 174.534 32.1821C175.289 31.3703 175.667 30.346 175.667 29.1094V27.665ZM189.96 34.8584C189.413 35.1605 188.691 35.3115 187.794 35.3115C185.255 35.3115 183.985 33.8955 183.985 31.0635V22.4824H181.493V20.5H183.985V16.96L186.307 16.2095V20.5H189.96V22.4824H186.307V30.6528C186.307 31.6252 186.472 32.319 186.803 32.7344C187.133 33.1497 187.681 33.3574 188.445 33.3574C189.031 33.3574 189.536 33.1969 189.96 32.876V34.8584ZM195.121 16.8184C194.706 16.8184 194.352 16.6768 194.059 16.3936C193.766 16.1104 193.62 15.7516 193.62 15.3174C193.62 14.8831 193.766 14.5244 194.059 14.2412C194.352 13.9486 194.706 13.8022 195.121 13.8022C195.546 13.8022 195.905 13.9486 196.197 14.2412C196.499 14.5244 196.65 14.8831 196.65 15.3174C196.65 15.7327 196.499 16.0868 196.197 16.3794C195.905 16.672 195.546 16.8184 195.121 16.8184ZM196.254 35H193.932V20.5H196.254V35ZM213.224 20.5L207.447 35H205.167L199.673 20.5H202.221L205.903 31.0352C206.177 31.8092 206.347 32.4842 206.413 33.0601H206.47C206.564 32.3332 206.715 31.6771 206.923 31.0918L210.774 20.5H213.224ZM228.254 28.3306H218.016C218.054 29.9448 218.488 31.1909 219.319 32.0688C220.15 32.9468 221.292 33.3857 222.746 33.3857C224.379 33.3857 225.88 32.8477 227.249 31.7715V33.9521C225.974 34.8773 224.289 35.3398 222.194 35.3398C220.145 35.3398 218.536 34.6838 217.365 33.3716C216.194 32.05 215.609 30.195 215.609 27.8066C215.609 25.5505 216.246 23.7144 217.521 22.2983C218.805 20.8729 220.395 20.1602 222.293 20.1602C224.19 20.1602 225.658 20.7738 226.696 22.001C227.735 23.2282 228.254 24.9321 228.254 27.1128V28.3306ZM225.875 26.3623C225.866 25.0218 225.54 23.9787 224.898 23.2329C224.266 22.4871 223.383 22.1143 222.25 22.1143C221.155 22.1143 220.225 22.506 219.461 23.2896C218.696 24.0731 218.224 25.0973 218.045 26.3623H225.875Z" fill="white"/>
<defs>
<clipPath id="clip0">
<rect width="52" height="46" fill="white"/>
</clipPath>
</defs>
</svg>
