<svg width="132" height="36" viewBox="0 0 132 36" fill="none" xmlns="http://www.w3.org/2000/svg">
<path fill-rule="evenodd" clip-rule="evenodd" d="M19.7934 19.1312C19.7934 18.7424 19.5918 18.3849 19.2603 18.192L10.4296 13.0419C10.2802 12.9531 10.1128 12.9068 9.94319 12.8998H9.8519C9.68342 12.9068 9.51579 12.9531 9.36451 13.0419L0.534483 18.1929C0.205205 18.386 0.000488281 18.7434 0.000488281 19.1316L0.0198537 32.9998C0.0198537 33.1927 0.118614 33.3721 0.285987 33.4666C0.450038 33.5661 0.652545 33.5661 0.816044 33.4666L6.06378 30.4214C6.39575 30.2215 6.59798 29.8691 6.59798 29.4837V23.0047C6.59798 22.6184 6.79993 22.261 7.13054 22.0689L9.36503 20.7647C9.53153 20.6672 9.71354 20.6195 9.89945 20.6195C10.0815 20.6195 10.2682 20.6672 10.4301 20.7647L12.664 22.0689C12.9946 22.261 13.1974 22.6184 13.1974 23.0047V29.4837C13.1974 29.8691 13.4021 30.2237 13.7319 30.4214L18.9785 33.4666C19.1431 33.5661 19.3483 33.5661 19.5116 33.4666C19.6742 33.3721 19.7766 33.1927 19.7766 32.9998L19.7937 19.1324" fill="white"/>
<path fill-rule="evenodd" clip-rule="evenodd" d="M66.1268 26.3519C66.1268 26.4484 66.0759 26.5378 65.9931 26.5858L62.9606 28.3578C62.8781 28.4057 62.7766 28.4057 62.6941 28.3578L59.661 26.5859C59.5786 26.538 59.5276 26.4485 59.5276 26.3521V22.8028C59.5276 22.7066 59.5785 22.6172 59.6607 22.5687L62.6938 20.7935C62.7766 20.745 62.8781 20.745 62.9608 20.7935L65.994 22.5687C66.0761 22.6172 66.1271 22.7066 66.1271 22.8028V26.3521L66.1268 26.3519ZM66.9462 0.0681953C66.781 -0.025177 66.5794 -0.022953 66.4162 0.0740814C66.2532 0.171043 66.1531 0.348534 66.1531 0.540016V14.274C66.1531 14.4088 66.0817 14.5339 65.9666 14.6015C65.8512 14.6693 65.7088 14.6693 65.5931 14.6015L63.3813 13.3102C63.0516 13.1176 62.6455 13.1178 62.3157 13.3104L53.4821 18.4771C53.1518 18.6703 52.9487 19.0269 52.9487 19.4132V29.7482C52.9487 30.1342 53.1518 30.4911 53.4818 30.6846L62.3154 35.8556C62.6457 36.0488 63.0523 36.0488 63.3827 35.8556L72.2169 30.6854C72.547 30.4919 72.7502 30.135 72.7502 29.749V3.98628C72.7502 3.59435 72.5406 3.23327 72.2028 3.04207L66.9458 0.0694885" fill="white"/>
<path fill-rule="evenodd" clip-rule="evenodd" d="M98.5553 22.7103C98.8839 22.5169 99.0857 22.1608 99.0857 21.7756V19.2712C99.0857 18.886 98.8839 18.5297 98.5546 18.3362L89.7777 13.1716C89.4469 12.9773 89.0397 12.977 88.7083 13.1701L79.8775 18.3368C79.5475 18.5299 79.3442 18.8866 79.3442 19.2729V29.605C79.3442 29.9935 79.5503 30.3521 79.8832 30.5442L88.6509 35.6117C88.9745 35.799 89.3712 35.801 89.6969 35.6176L95.005 32.6277C95.1736 32.5329 95.2784 32.3537 95.2791 32.1589C95.2805 31.9641 95.1778 31.7835 95.0114 31.6865L86.1247 26.5174C85.9583 26.4212 85.8563 26.2421 85.8563 26.0487V22.8105C85.8563 22.6174 85.9583 22.4388 86.1233 22.3424L88.8896 20.7264C89.0539 20.63 89.2571 20.63 89.4221 20.7264L92.1891 22.3424C92.3541 22.4388 92.4561 22.6174 92.4561 22.8105V25.3582C92.4561 25.5516 92.5581 25.7304 92.7231 25.8269C92.8889 25.9236 93.0921 25.9228 93.2571 25.8257L98.5468 22.7099" fill="white"/>
<path fill-rule="evenodd" clip-rule="evenodd" d="M35.8572 13.116C36.1869 12.9229 36.5936 12.9229 36.9233 13.116L45.7562 18.2815C46.0865 18.4745 46.2898 18.8313 46.2898 19.2179V29.5565C46.2898 29.9428 46.0865 30.2994 45.7568 30.4928L36.9246 35.6627C36.5943 35.8559 36.1876 35.8559 35.8573 35.6627L27.0266 30.4931C26.6965 30.2996 26.4932 29.943 26.4932 29.5567V19.2174C26.4932 18.8314 26.6965 18.4745 27.0268 18.2816L35.8583 13.1161" fill="#E8E9EA"/>
<path d="M115.701 35.8105C115.397 35.8105 115.094 35.7298 114.828 35.5736L112.047 33.9061C111.632 33.6706 111.834 33.5873 111.971 33.5388C112.526 33.344 112.638 33.2991 113.229 32.9593C113.291 32.9243 113.372 32.9375 113.436 32.9753L115.572 34.2607C115.65 34.3042 115.759 34.3042 115.83 34.2607L124.159 29.389C124.237 29.3442 124.286 29.2536 124.286 29.1605V19.4199C124.286 19.3246 124.237 19.2354 124.157 19.1872L115.832 14.3194C115.754 14.274 115.652 14.274 115.575 14.3194L107.251 19.1886C107.17 19.2354 107.119 19.3274 107.119 19.4199V29.1605C107.119 29.2536 107.17 29.3419 107.25 29.3862L109.532 30.7221C110.77 31.3492 111.528 30.6105 111.528 29.8685V20.2512C111.528 20.1153 111.636 20.0079 111.77 20.0079H112.827C112.958 20.0079 113.067 20.1153 113.067 20.2512V29.8685C113.067 31.5427 112.168 32.5029 110.601 32.5029C110.12 32.5029 109.741 32.5029 108.683 31.9745L106.499 30.7003C105.959 30.3843 105.625 29.7933 105.625 29.1606V19.4199C105.625 18.7869 105.959 18.1962 106.499 17.8814L114.828 13.0041C115.355 12.7018 116.055 12.7018 116.578 13.0041L124.907 17.8814C125.446 18.1976 125.781 18.7869 125.781 19.4199V29.1606C125.781 29.7933 125.446 30.3821 124.907 30.7003L116.585 35.5739C116.319 35.73 116.017 35.8108 115.708 35.8108" fill="#E8E9EA"/>
<path d="M118.272 29.0994C114.627 29.0994 113.864 27.404 113.864 25.9818C113.864 25.8467 113.971 25.7387 114.105 25.7387H115.182C115.302 25.7387 115.402 25.8262 115.421 25.9453C115.583 27.0564 116.068 27.6171 118.272 27.6171C120.027 27.6171 120.774 27.2148 120.774 26.2714C120.774 25.7275 120.562 25.3238 117.835 25.0533C115.556 24.8248 114.147 24.3146 114.147 22.467C114.147 20.7639 115.563 19.7482 117.938 19.7482C120.607 19.7482 121.927 20.6868 122.094 22.7003C122.1 22.7698 122.076 22.8363 122.031 22.8881C121.985 22.9366 121.921 22.9661 121.855 22.9661H120.773C120.661 22.9661 120.562 22.8853 120.539 22.7754C120.28 21.6063 119.649 21.2326 117.938 21.2326C116.022 21.2326 115.8 21.9091 115.8 22.4158C115.8 23.0297 116.063 23.2085 118.649 23.5553C121.209 23.8982 122.425 24.3838 122.425 26.2069C122.425 28.0461 120.911 29.0994 118.272 29.0994Z" fill="#E8E9EA"/>
<path d="M129.759 13.0264V13.2765H129.058V15.1277H128.775V13.2765H128.077V13.0264H129.759Z" fill="#E8E9EA"/>
<path d="M130.007 13.0264H130.41L131.005 14.8025L131.598 13.0264H131.998V15.1277H131.73V13.8876C131.73 13.8442 131.73 13.7736 131.732 13.6754C131.735 13.5745 131.736 13.468 131.736 13.355L131.143 15.1277H130.865L130.267 13.355V13.418C130.267 13.4699 130.267 13.5484 130.271 13.655C130.273 13.7595 130.276 13.8372 130.276 13.8876V15.1277H130.007V13.0264Z" fill="#E8E9EA"/>
<path fill-rule="evenodd" clip-rule="evenodd" d="M89.108 22.2266C89.1718 22.1893 89.2497 22.1893 89.3127 22.2266L91.0082 23.2177C91.0712 23.2547 91.1102 23.3231 91.1102 23.3973V25.3809C91.1102 25.4551 91.0712 25.5235 91.0082 25.5606L89.3127 26.5517C89.2497 26.5889 89.1718 26.5889 89.108 26.5517L87.4147 25.5606C87.351 25.5235 87.312 25.4551 87.312 25.3809V23.3973C87.312 23.3231 87.351 23.2547 87.4147 23.2177L89.108 22.2266Z" fill="#E8E9EA"/>
</svg>
