<svg width="165" height="34" viewBox="0 0 165 34" fill="none" xmlns="http://www.w3.org/2000/svg">
<path d="M71.2 8.3V7.5C71.2 7.3 71.1 7.1 70.7 7.1C70.3 7 69.4 7 68.6 7C66.4 7 65 7.8 65 10.3V24.4C65 24.7 65.2 24.9 65.5 24.9H66.6C66.9 24.9 67.1 24.7 67.1 24.4V13.5H70.8C71.1 13.5 71.2 13.3 71.2 13.1V12.3C71.2 12 71 11.9 70.8 11.9H67V10.3C67 8.9 67.3 8.7 68.6 8.7H70.7C71 8.6 71.2 8.5 71.2 8.3Z" fill="white"/>
<path d="M78.7004 13.1001V12.0001C78.7004 11.7001 78.5004 11.6001 78.2004 11.6001C76.2004 11.6001 74.6004 11.7001 73.3004 12.3001C73.0004 12.4001 72.9004 12.6001 72.9004 12.8001V24.2001C72.9004 24.5001 73.1004 24.7001 73.3004 24.7001H74.5004C74.8004 24.7001 74.9004 24.5001 74.9004 24.2001V13.7001C75.8004 13.5001 76.6004 13.5001 78.2004 13.5001C78.7004 13.5001 78.7004 13.4001 78.7004 13.1001Z" fill="white"/>
<path d="M89.0004 23.9V12.8C89.0004 12.5 88.9004 12.4 88.5004 12.3C87.2004 12 85.6004 11.8 84.1004 11.8C80.6004 11.8 78.9004 14.1 78.9004 17.6V19.2C78.9004 22.7 80.5004 25 84.1004 25C85.5004 25 87.2004 24.8 88.5004 24.5C88.9004 24.3 89.0004 24.2 89.0004 23.9ZM86.9004 23C86.2004 23.1 85.1004 23.2 84.1004 23.2C81.8004 23.2 81.0004 21.6 81.0004 19.1V17.5C81.0004 15 81.7004 13.4 84.1004 13.4C85.1004 13.4 86.2004 13.5 86.9004 13.6V23Z" fill="white"/>
<path d="M106.1 24.3002V15.8002C106.1 13.4002 104.7 11.7002 101.9 11.7002H101.4C100 11.7002 99 11.9002 98.3 12.5002C97.6 11.8002 96.6 11.7002 95.2 11.7002H94.7C91.9 11.7002 90.5 13.4002 90.5 15.8002V24.3002C90.5 24.6002 90.7 24.8002 90.9 24.8002H92.1C92.4 24.8002 92.5 24.6002 92.5 24.3002V15.8002C92.5 13.8002 93.4 13.5002 94.6 13.5002H95.1C96.6 13.5002 97.1 13.8002 97.1 15.1002V24.3002C97.1 24.6002 97.3 24.8002 97.5 24.8002H98.7C99 24.8002 99.1 24.6002 99.1 24.3002V15.1002C99.1 13.8002 99.6 13.5002 101.1 13.5002H101.6C102.9 13.5002 103.7 13.8002 103.7 15.8002V24.3002C103.7 24.6002 103.9 24.8002 104.1 24.8002H105.3C106 24.8002 106.1 24.6002 106.1 24.3002Z" fill="white"/>
<path d="M117.7 18.5002V17.2002C117.7 13.9002 115.9 11.7002 112.5 11.7002C109.1 11.7002 107.2 13.8002 107.2 17.2002V19.3002C107.2 23.7002 109.8 25.0002 112.6 25.0002C114.2 25.0002 115.5 24.9002 116.8 24.6002C117.2 24.5002 117.3 24.4002 117.3 24.1002V23.3002C117.3 23.1002 117.1 23.0002 116.9 23.0002H116.8C115.7 23.2002 114 23.3002 112.6 23.3002C110.4 23.3002 109.3 22.3002 109.3 19.5002V19.0002H117.2C117.5 19.0002 117.7 18.8002 117.7 18.5002ZM115.6 17.4002H109.3V17.2002C109.3 14.7002 110.4 13.5002 112.5 13.5002C114.6 13.5002 115.6 14.5002 115.6 17.2002V17.4002Z" fill="white"/>
<path d="M134.9 19.7V12.3C134.9 12 134.7 11.8 134.4 11.8H133.3C133 11.8 132.8 12 132.8 12.3V19.7C132.8 22.3 131.8 23.2 129.9 23.2C129.3 23.2 128.7 23.1 128 22.9V12.3C128 12 127.8 11.8 127.5 11.8H126.3C126 11.8 125.8 12 125.8 12.3V22.9C125.1 23.1 124.5 23.2 123.9 23.2C121.9 23.2 121 22.3 121 19.7V12.3C121 12 120.8 11.8 120.5 11.8H119.4C119.1 11.8 118.9 12 118.9 12.3V19.7C118.9 23.9 121.2 25 123.7 25C124.9 25 125.9 24.8 126.8 24.4C127.8 24.8 128.7 25 129.9 25C132.6 25 134.9 23.9 134.9 19.7Z" fill="white"/>
<path d="M147 19.2002V17.4002C147 13.9002 145.2 11.7002 141.7 11.7002C138.2 11.7002 136.4 14.0002 136.4 17.4002V19.2002C136.4 22.7002 138.2 24.9002 141.7 24.9002C145.2 25.0002 147 22.7002 147 19.2002ZM144.9 19.2002C144.9 21.6002 143.9 23.1002 141.7 23.1002C139.5 23.1002 138.5 21.6002 138.5 19.2002V17.4002C138.5 15.0002 139.5 13.5002 141.7 13.5002C143.9 13.5002 144.9 15.0002 144.9 17.4002V19.2002Z" fill="white"/>
<path d="M154.401 13.1001V12.0001C154.401 11.7001 154.201 11.6001 153.901 11.6001C151.901 11.6001 150.301 11.7001 149.001 12.3001C148.701 12.4001 148.601 12.6001 148.601 12.8001V24.2001C148.601 24.5001 148.801 24.7001 149.001 24.7001H150.201C150.501 24.7001 150.601 24.5001 150.601 24.2001V13.7001C151.501 13.5001 152.301 13.5001 153.901 13.5001C154.401 13.5001 154.401 13.4001 154.401 13.1001Z" fill="white"/>
<path d="M165 24.5001C165 24.4001 165 24.3001 164.9 24.3001L159.6 18.0001L164.8 12.4001C164.9 12.3001 164.9 12.2001 164.9 12.1001C164.9 12.0001 164.8 11.8001 164.5 11.8001H163C162.8 11.8001 162.7 11.8001 162.5 12.0001L157.8 17.3001V7.6001C157.8 7.3001 157.6 7.1001 157.3 7.1001H156.2C155.9 7.1001 155.7 7.3001 155.7 7.6001V24.4001C155.7 24.7001 155.9 24.9001 156.2 24.9001H157.3C157.6 24.9001 157.8 24.7001 157.8 24.4001V18.8001L162.5 24.6001C162.7 24.8001 162.8 24.9001 163 24.9001H164.7C164.9 24.8001 165 24.7001 165 24.5001Z" fill="white"/>
<path d="M61.5004 24.2001V9.3001C61.5004 9.0001 61.3004 8.8001 61.0004 8.8001H58.8004C58.5004 8.8001 58.3004 9.0001 58.3004 9.3001V24.2001C58.3004 24.5001 58.5004 24.7001 58.8004 24.7001H61.0004C61.3004 24.6001 61.5004 24.4001 61.5004 24.2001ZM50.1004 24.6001V8.9001C48.9004 8.9001 47.0004 9.7001 47.0004 11.4001V22.1001C46.3004 22.2001 45.3004 22.3001 44.7004 22.3001C42.7004 22.3001 42.2004 20.9001 42.2004 19.0001V11.3001C42.1004 9.4001 40.0004 8.9001 39.1004 8.9001V18.9001C39.1004 22.5001 40.9004 24.8001 44.7004 24.8001C45.3004 24.8001 46.5004 24.6001 47.0004 24.5001V24.7001C47.5004 27.8001 43.7004 26.6001 41.7004 26.4001C40.2004 26.4001 39.2004 27.6001 38.9004 29.0001C39.8004 29.3001 42.6004 29.6001 44.6004 29.8001C48.2004 29.9001 50.1004 27.9001 50.1004 24.6001ZM55.8004 24.2001V9.3001C55.8004 9.0001 55.6004 8.8001 55.3004 8.8001H53.1004C52.8004 8.8001 52.6004 9.0001 52.6004 9.3001V24.2001C52.6004 24.5001 52.8004 24.7001 53.1004 24.7001H55.3004C55.6004 24.6001 55.8004 24.4001 55.8004 24.2001ZM54.2004 4.6001C55.1004 4.6001 55.8004 5.3001 55.8004 6.2001C55.8004 7.1001 55.1004 7.8001 54.2004 7.8001C53.3004 7.8001 52.6004 7.1001 52.6004 6.2001C52.6004 5.4001 53.3004 4.6001 54.2004 4.6001ZM60.0004 4.6001C60.9004 4.6001 61.6004 5.3001 61.6004 6.2001C61.6004 7.1001 60.9004 7.8001 60.0004 7.8001C59.1004 7.8001 58.4004 7.1001 58.4004 6.2001C58.4004 5.4001 59.1004 4.6001 60.0004 4.6001Z" fill="#DADCDE"/>
<path fill-rule="evenodd" clip-rule="evenodd" d="M20.1761 9.54614C18.6142 5.03792 23.1796 0.204973 26.9352 0.0608191C29.1855 1.23479 31.1177 4.31766 31.0211 8.50115C30.7262 13.6553 27.0793 18.0972 23.1108 22.1897C22.8893 17.1994 21.8301 14.0185 20.1761 9.54614Z" fill="#D7D7D8"/>
<path fill-rule="evenodd" clip-rule="evenodd" d="M11.3226 33.9575C10.6944 28.9253 12.7374 24.6325 14.7651 22.015C15.7287 20.7859 16.4692 19.6645 17.0332 18.6317C18.0984 19.093 20.9617 20.5952 22.5393 23.0342C22.3102 26.5723 19.6957 33.0112 11.3226 33.9575Z" fill="#A5A5A6"/>
<path fill-rule="evenodd" clip-rule="evenodd" d="M8.15854 14.8447C1.49458 12.9808 -0.149275 7.12667 0.148137 3.1895C6.61938 0.56641 13.5838 3.25324 17.6049 8.85349C20.4243 12.7785 22.1895 17.8108 22.5476 22.2026C20.6134 19.6498 18.1704 18.1709 15.0587 17.0126C12.9303 16.221 10.9642 15.6965 8.15854 14.8447Z" fill="#E8E9EA"/>
</svg>
